<?xml version="1.0" encoding="UTF-8"?>
<svg width="135px" height="40px" viewBox="0 0 135 40" version="1.1" xmlns="http://www.w3.org/2000/svg" xmlns:xlink="http://www.w3.org/1999/xlink">
    <!-- Generator: Sketch 44.1 (41455) - http://www.bohemiancoding.com/sketch -->
    <title>btn-gplay-ru</title>
    <desc>Created with Sketch.</desc>
    <defs>
        <linearGradient x1="91.488428%" y1="4.9481245%" x2="-38.3517333%" y2="71.9074222%" id="linearGradient-1">
            <stop stop-color="#00A0FF" offset="0%"></stop>
            <stop stop-color="#00A1FF" offset="1%"></stop>
            <stop stop-color="#00BEFF" offset="26%"></stop>
            <stop stop-color="#00D2FF" offset="51%"></stop>
            <stop stop-color="#00DFFF" offset="76%"></stop>
            <stop stop-color="#00E3FF" offset="100%"></stop>
        </linearGradient>
        <linearGradient x1="107.684729%" y1="50%" x2="-130.640394%" y2="50%" id="linearGradient-2">
            <stop stop-color="#FFE000" offset="0%"></stop>
            <stop stop-color="#FFBD00" offset="41%"></stop>
            <stop stop-color="#FFA500" offset="78%"></stop>
            <stop stop-color="#FF9C00" offset="100%"></stop>
        </linearGradient>
        <linearGradient x1="86.219293%" y1="17.8768889%" x2="-50.1497903%" y2="194.702638%" id="linearGradient-3">
            <stop stop-color="#FF3A44" offset="0%"></stop>
            <stop stop-color="#C31162" offset="100%"></stop>
        </linearGradient>
        <linearGradient x1="-18.7537448%" y1="-54.0521474%" x2="42.1210306%" y2="24.9170664%" id="linearGradient-4">
            <stop stop-color="#32A071" offset="0%"></stop>
            <stop stop-color="#2DA771" offset="7%"></stop>
            <stop stop-color="#15CF74" offset="48%"></stop>
            <stop stop-color="#06E775" offset="80%"></stop>
            <stop stop-color="#00F076" offset="100%"></stop>
        </linearGradient>
    </defs>
    <g id="Page-1" stroke="none" stroke-width="1" fill="none" fill-rule="evenodd">
        <g id="btn-gplay-ru" fill-rule="nonzero">
            <rect id="Rectangle-path" fill="#000000" x="0" y="0" width="135" height="40"></rect>
            <path d="M68.14,21.75 C65.795425,21.7610334 63.9026739,23.6686811 63.9100209,26.0132706 C63.9173678,28.3578601 65.8220372,30.2536083 68.1666353,30.2499478 C70.5112334,30.2462873 72.409974,28.344601 72.41,26 C72.426473,24.8643738 71.9812316,23.7707097 71.1762551,22.9695037 C70.3712787,22.1682976 69.2755364,21.7281956 68.14,21.75 L68.14,21.75 Z M68.14,28.58 C67.0832273,28.6539053 66.088673,28.0743135 65.6320213,27.1184371 C65.1753697,26.1625607 65.3494358,25.0246828 66.0709659,24.249038 C66.7924959,23.4733932 67.9148379,23.2176324 68.9011878,23.6040831 C69.8875378,23.9905338 70.5374189,24.9406494 70.54,26 C70.5725428,26.6626719 70.3360327,27.3103928 69.8841403,27.7961771 C69.432248,28.2819613 68.8032921,28.5646164 68.14,28.58 L68.14,28.58 Z M58.83,21.75 C56.4840995,21.7555198 54.5863275,23.6607469 54.5900052,26.006651 C54.5936829,28.3525551 56.4974192,30.2518225 58.8433255,30.2499869 C61.1892318,30.2481513 63.0899935,28.345907 63.09,26 C63.106473,24.8643738 62.6612316,23.7707097 61.8562551,22.9695037 C61.0512787,22.1682976 59.9555364,21.7281956 58.82,21.75 L58.83,21.75 Z M58.83,28.58 C57.7726757,28.658073 56.7752215,28.0813713 56.3153517,27.1260966 C55.8554819,26.1708219 56.0268227,25.0314615 56.7473134,24.2536934 C57.467804,23.4759253 58.5907575,23.2180976 59.5783538,23.6036927 C60.5659501,23.9892877 61.2171215,24.9398011 61.22,26 C61.2525428,26.6626719 61.0160327,27.3103928 60.5641403,27.7961771 C60.112248,28.2819613 59.4832921,28.5646164 58.82,28.58 L58.83,28.58 Z M47.74,23.06 L47.74,24.86 L52.06,24.86 C51.9922634,25.7078038 51.6398446,26.5077945 51.06,27.13 C50.1860229,28.0202246 48.9765432,28.499658 47.73,28.45 C45.0790332,28.45 42.93,26.3009668 42.93,23.65 C42.93,20.9990332 45.0790332,18.85 47.73,18.85 C48.9477957,18.8301388 50.123762,19.2940521 51,20.14 L52.27,18.87 C51.0749196,17.6598581 49.4407184,16.9852541 47.74,17 C45.3189608,16.905779 43.0403936,18.1436718 41.801854,20.2260571 C40.5633145,22.3084423 40.5633145,24.9015577 41.801854,26.9839429 C43.0403936,29.0663282 45.3189608,30.304221 47.74,30.21 C49.471765,30.2882543 51.1527407,29.6136762 52.35,28.36 C53.3976757,27.2089216 53.9570431,25.6957612 53.91,24.14 C53.9132269,23.7609882 53.8797372,23.3825548 53.81,23.01 L47.74,23.06 Z M93.05,24.46 C92.5160796,22.8892101 91.0679278,21.811053 89.41,21.75 C88.3043635,21.7478383 87.2471451,22.2034076 86.4893794,23.0085336 C85.7316138,23.8136596 85.3408955,24.8965231 85.41,26 C85.385441,27.1292961 85.8211644,28.2200283 86.6170522,29.0215741 C87.4129399,29.8231198 88.5005582,30.2665588 89.63,30.25 C91.0508585,30.257659 92.3806434,29.5514455 93.17,28.37 L91.72,27.37 C91.279746,28.1039422 90.4858563,28.552167 89.63,28.55 C88.7435914,28.5837851 87.9266413,28.0721998 87.57,27.26 L93.26,24.91 L93.05,24.46 Z M87.25,25.88 C87.2090519,25.2551643 87.4213257,24.640145 87.8389667,24.1735911 C88.2566076,23.7070373 88.8444602,23.4282216 89.47,23.4 C90.1293698,23.3565516 90.7510664,23.7106826 91.05,24.3 L87.25,25.88 Z M82.63,30 L84.5,30 L84.5,17.5 L82.63,17.5 L82.63,30 Z M79.57,22.7 L79.5,22.7 C78.9299621,22.0626768 78.1150572,21.69888 77.26,21.7 C74.9901469,21.8100717 73.2063371,23.6824796 73.2063371,25.955 C73.2063371,28.2275204 74.9901469,30.0999283 77.26,30.21 C78.117829,30.2244237 78.9380159,29.8582688 79.5,29.21 L79.56,29.21 L79.56,29.82 C79.56,31.45 78.69,32.32 77.29,32.32 C76.336303,32.2976774 75.4907281,31.7010334 75.15,30.81 L73.52,31.49 C74.1476816,33.016811 75.6392308,34.0098583 77.29,34 C79.48,34 81.29,32.71 81.29,29.57 L81.29,22 L79.57,22 L79.57,22.7 Z M77.43,28.58 C76.0928876,28.4621598 75.0673763,27.342295 75.0673763,26 C75.0673763,24.657705 76.0928876,23.5378402 77.43,23.42 C78.0761196,23.4531575 78.6814859,23.7457702 79.1088498,24.2314965 C79.5362137,24.7172228 79.749373,25.3549169 79.7,26 C79.7551348,26.6480494 79.5426575,27.2904311 79.1119703,27.7777877 C78.6812831,28.2651443 78.0699104,28.5550138 77.42,28.58 L77.43,28.58 Z M101.81,17.5 L97.34,17.5 L97.34,30 L99.21,30 L99.21,25.26 L101.82,25.26 C103.272684,25.3643638 104.661974,24.648509 105.42013,23.404973 C106.178286,22.161437 106.178286,20.598563 105.42013,19.355027 C104.661974,18.111491 103.272684,17.3956362 101.82,17.5 L101.81,17.5 Z M101.81,23.5 L99.2,23.5 L99.2,19.24 L101.85,19.24 C103.034651,19.24 103.995,20.2003492 103.995,21.385 C103.995,22.5696508 103.034651,23.53 101.85,23.53 L101.81,23.5 Z M113.34,21.7 C111.948713,21.6168389 110.640687,22.367088 110.01,23.61 L111.67,24.3 C112.004406,23.6836682 112.671125,23.3228556 113.37,23.38 C113.849528,23.3239946 114.331454,23.4629701 114.707528,23.7657102 C115.083603,24.0684503 115.322299,24.5095749 115.37,24.99 L115.37,25.12 C114.769393,24.8019991 114.099592,24.6371252 113.42,24.64 C111.63,24.64 109.82,25.64 109.82,27.45 C109.855688,28.2297088 110.20524,28.9618295 110.789131,29.4797974 C111.373022,29.9977652 112.141598,30.2575326 112.92,30.2 C113.879229,30.2688831 114.799569,29.8087132 115.32,29 L115.38,29 L115.38,30 L117.18,30 L117.18,25.19 C117.18,23 115.52,21.73 113.39,21.73 L113.34,21.7 Z M113.11,28.55 C112.5,28.55 111.65,28.24 111.65,27.49 C111.65,26.49 112.71,26.16 113.65,26.16 C114.244042,26.1453419 114.831131,26.2903874 115.35,26.58 C115.220696,27.699415 114.286524,28.5525405 113.16,28.58 L113.11,28.55 Z M123.74,22 L121.6,27.42 L121.54,27.42 L119.32,22 L117.32,22 L120.65,29.58 L118.75,33.79 L120.7,33.79 L125.82,22 L123.74,22 Z M106.93,30 L108.8,30 L108.8,17.5 L106.93,17.5 L106.93,30 Z" id="Shape" fill="#FFFFFF"></path>
            <path d="M10.44,7.54 C10.114065,7.93110834 9.94955365,8.43179492 9.98,8.94 L9.98,31.06 C9.94955365,31.5682051 10.114065,32.0688917 10.44,32.46 L10.51,32.53 L22.9,20.15 L22.9,19.86 L10.51,7.47 L10.44,7.54 Z" id="Shape" fill="url(#linearGradient-1)"></path>
            <path d="M27,24.28 L22.9,20.15 L22.9,19.86 L27,15.72 L27.09,15.77 L32,18.56 C33.4,19.35 33.4,20.65 32,21.45 L27.11,24.23 L27,24.28 Z" id="Shape" fill="url(#linearGradient-2)"></path>
            <path d="M27.12,24.22 L22.9,20 L10.44,32.46 C11.0287177,32.9775224 11.902429,33.0027256 12.52,32.52 L27.13,24.22" id="Shape" fill="url(#linearGradient-3)"></path>
            <path d="M27.12,15.78 L12.51,7.48 C11.892429,6.99727439 11.0187177,7.0224776 10.43,7.54 L22.9,20 L27.12,15.78 Z" id="Shape" fill="url(#linearGradient-4)"></path>
            <path d="M27,24.13 L12.51,32.38 C11.9170385,32.8233364 11.1029615,32.8233364 10.51,32.38 L10.51,32.38 L10.44,32.45 L10.44,32.45 L10.51,32.52 L10.51,32.52 C11.1018458,32.9666792 11.9181542,32.9666792 12.51,32.52 L27.12,24.22 L27,24.13 Z" id="Shape" fill="#000000" opacity="0.2"></path>
            <path d="M10.44,32.32 C10.114065,31.9288917 9.94955365,31.4282051 9.98,30.92 L9.98,31.07 C9.94955365,31.5782051 10.114065,32.0788917 10.44,32.47 L10.51,32.4 L10.44,32.32 Z" id="Shape" fill="#000000" opacity="0.12"></path>
            <path d="M32,21.3 L27,24.13 L27.09,24.22 L32,21.44 C32.5670701,21.1736132 32.9484684,20.6243997 33,20 L33,20 C32.8860295,20.5648379 32.516706,21.0449585 32,21.3 Z" id="Shape" fill="#000000" opacity="0.12"></path>
            <path d="M12.51,7.62 L32,18.7 C32.516706,18.9550415 32.8860295,19.4351621 33,20 L33,20 C32.9484684,19.3756003 32.5670701,18.8263868 32,18.56 L12.51,7.48 C11.11,6.69 9.97,7.35 9.97,8.95 L9.97,9.1 C10,7.49 11.12,6.83 12.51,7.62 Z" id="Shape" fill="#FFFFFF" opacity="0.25"></path>
            <path d="M42.11,14.27 L41.37,14.27 L41.37,12.27 L42,12.27 C42.5815242,11.6537624 42.8598718,10.8113946 42.76,9.97 L42.76,7 L46.76,7 L46.76,12.26 L47.43,12.26 L47.43,14.26 L46.69,14.26 L46.69,13 L42.11,13 L42.11,14.27 Z M43.5,10 C43.5466573,10.8066396 43.3479357,11.6084987 42.93,12.3 L45.93,12.3 L45.93,7.74 L43.5,7.74 L43.5,10 Z" id="Shape" stroke="#FFFFFF" stroke-width="0.2" fill="#FFFFFF"></path>
            <path d="M53.41,12.22 C52.1929898,13.4302279 50.2270102,13.4302279 49.01,12.22 C47.8302689,10.9712339 47.8302689,9.01876613 49.01,7.77 C49.5919984,7.18374669 50.3839158,6.85403297 51.21,6.85403297 C52.0360842,6.85403297 52.8280016,7.18374669 53.41,7.77 C54.5947655,9.01675984 54.5947655,10.9732402 53.41,12.22 L53.41,12.22 Z M49.58,11.72 C50.4813239,12.6175651 51.9386761,12.6175651 52.84,11.72 C53.7251983,10.7441711 53.7251983,9.25582886 52.84,8.28 C51.9386761,7.38243493 50.4813239,7.38243493 49.58,8.28 C48.6948017,9.25582886 48.6948017,10.7441711 49.58,11.72 L49.58,11.72 Z" id="Shape" stroke="#FFFFFF" stroke-width="0.2" fill="#FFFFFF"></path>
            <path d="M58.18,13.13 C57.3458062,13.1465821 56.5410153,12.8218102 55.9519794,12.2308864 C55.3629435,11.6399625 55.0407486,10.8341365 55.06,10 C55.0407486,9.16586353 55.3629435,8.36003747 55.9519794,7.76911363 C56.5410153,7.1781898 57.3458062,6.8534179 58.18,6.87 C59.0277427,6.84900884 59.8383954,7.21748737 60.38,7.87 L59.84,8.39 C59.4392305,7.88120476 58.8168877,7.59798285 58.17,7.63 C57.5497188,7.61387834 56.9498742,7.85237077 56.51,8.29 C55.6112838,9.27209371 55.6112838,10.7779063 56.51,11.76 C56.9498742,12.1976292 57.5497188,12.4361217 58.17,12.42 C58.8828034,12.4136368 59.5548845,12.0867776 60,11.53 L60.54,12.07 C60.2678361,12.4001217 59.9264519,12.6664014 59.54,12.85 C59.1131367,13.0433302 58.6485169,13.1389873 58.18,13.13 Z" id="Shape" stroke="#FFFFFF" stroke-width="0.2" fill="#FFFFFF"></path>
            <polygon id="Shape" stroke="#FFFFFF" stroke-width="0.2" fill="#FFFFFF" points="63.68 13 62.91 13 62.91 7.74 61.23 7.74 61.23 7 65.35 7 65.35 7.74 63.68 7.74"></polygon>
            <path d="M70.65,7 L68.38,12.06 C68.1937836,12.6734529 67.6405013,13.1024472 67,13.13 C66.793302,13.1273749 66.589248,13.0831632 66.4,13 L66.6,12.29 C66.7215239,12.3607679 66.8593785,12.3986779 67,12.4 C67.1469862,12.4110728 67.2937747,12.3761232 67.42,12.3 C67.5404782,12.1980124 67.6333333,12.0673274 67.69,11.92 L67.91,11.44 L65.91,7.01 L66.82,7.01 L68.3,10.45 L68.3,10.45 L69.74,7 L70.65,7 Z" id="Shape" stroke="#FFFFFF" stroke-width="0.2" fill="#FFFFFF"></path>
            <polygon id="Shape" stroke="#FFFFFF" stroke-width="0.2" fill="#FFFFFF" points="71.52 13 71.52 7 75.86 7 75.86 13 75.09 13 75.09 7.74 72.29 7.74 72.29 13"></polygon>
            <polygon id="Shape" stroke="#FFFFFF" stroke-width="0.2" fill="#FFFFFF" points="77.23 13 77.23 7 78 7 78 9.57 81 9.57 81 7 81.77 7 81.77 13 81 13 81 10.29 78 10.29 78 13"></polygon>
            <path d="M88.06,12.22 C86.8429898,13.4302279 84.8770102,13.4302279 83.66,12.22 C82.4802689,10.9712339 82.4802689,9.01876613 83.66,7.77 C84.2419984,7.18374669 85.0339158,6.85403297 85.86,6.85403297 C86.6860842,6.85403297 87.4780016,7.18374669 88.06,7.77 C89.2447655,9.01675984 89.2447655,10.9732402 88.06,12.22 L88.06,12.22 Z M84.23,11.72 C85.1313239,12.6175651 86.5886761,12.6175651 87.49,11.72 C88.3751983,10.7441711 88.3751983,9.25582886 87.49,8.28 C86.5886761,7.38243493 85.1313239,7.38243493 84.23,8.28 C83.3448017,9.25582886 83.3448017,10.7441711 84.23,11.72 L84.23,11.72 Z" id="Shape" stroke="#FFFFFF" stroke-width="0.2" fill="#FFFFFF"></path>
            <path d="M92.09,13 L92.09,7 L94.26,7 C94.7105605,6.99149081 95.1472206,7.15613316 95.48,7.46 C95.8182813,7.75357474 96.0087722,8.18217927 96,8.63 C96.0046929,8.89656215 95.9279426,9.15821095 95.78,9.38 C95.6331767,9.59543103 95.4287269,9.76522834 95.19,9.87 L95.19,9.87 C95.4800671,9.96602197 95.7344622,10.1472349 95.92,10.39 C96.1122885,10.6350038 96.2146585,10.9385839 96.21,11.25 C96.2203361,11.7167258 96.0224315,12.1638434 95.67,12.47 C95.321804,12.7911878 94.8636653,12.966569 94.39,12.96 L92.09,13 Z M92.86,9.57 L94.26,9.57 C94.5246389,9.58104763 94.7807079,9.4749619 94.96,9.28 C95.1388872,9.11779032 95.2441824,8.88985362 95.251725,8.64849141 C95.2592675,8.40712919 95.1684099,8.17306271 95,8 C94.830816,7.80863046 94.5853181,7.70237016 94.33,7.71 L92.9,7.71 L92.86,9.57 Z M92.86,12.26 L94.41,12.26 C94.6842187,12.2691998 94.9482331,12.1555269 95.13,11.95 C95.3063151,11.7671249 95.4064241,11.524003 95.41,11.27 C95.41,10.7177153 94.9622847,10.27 94.41,10.27 L92.89,10.27 L92.86,12.26 Z" id="Shape" stroke="#FFFFFF" stroke-width="0.2" fill="#FFFFFF"></path>
        </g>
    </g>
</svg>