<?xml version="1.0" encoding="UTF-8"?>
<svg width="135px" height="40px" viewBox="0 0 135 40" version="1.1" xmlns="http://www.w3.org/2000/svg" xmlns:xlink="http://www.w3.org/1999/xlink">
    <!-- Generator: Sketch 44.1 (41455) - http://www.bohemiancoding.com/sketch -->
    <title>btn-microsoft-es</title>
    <desc>Created with Sketch.</desc>
    <defs></defs>
    <g id="Page-1" stroke="none" stroke-width="1" fill="none" fill-rule="evenodd">
        <g id="btn-microsoft-es">
            <rect id="Rectangle-path" fill="#000000" fill-rule="nonzero" x="0" y="0" width="135" height="40"></rect>
            <g id="Layer_1" transform="translate(12.000000, 8.000000)">
                <g id="Group">
                    <path d="M43.6919367,12.8076923 C43.6919367,12.4871795 43.8084189,12.2307692 44.0413833,12.0128205 C44.2743478,11.7948718 44.5461396,11.6923077 44.8567588,11.6923077 C45.1932629,11.6923077 45.4779972,11.8076923 45.6980191,12.0128205 C45.9180411,12.2307692 46.0345233,12.4871795 46.0345233,12.7948718 C46.0345233,13.1025641 45.9180411,13.3589744 45.6980191,13.5769231 C45.4650547,13.7820513 45.1932629,13.8974359 44.8697012,13.8974359 C44.5461396,13.8974359 44.2614053,13.7948718 44.0413833,13.5769231 C43.8084189,13.3717949 43.6919367,13.1153846 43.6919367,12.8076923 L43.6919367,12.8076923 Z M45.8145014,23.2179487 L43.8990162,23.2179487 L43.8990162,15.1410256 L45.8145014,15.1410256 L45.8145014,23.2179487 Z" id="Shape" fill="#FFFFFF" fill-rule="nonzero"></path>
                    <path d="M51.6386116,21.8333333 C51.9233459,21.8333333 52.2339651,21.7692308 52.5834117,21.6410256 C52.9199158,21.5128205 53.2434775,21.3333333 53.5411543,21.1282051 L53.5411543,22.8974359 C53.2305351,23.0769231 52.8810884,23.2051282 52.4928144,23.2948718 C52.1045404,23.3846154 51.677439,23.4230769 51.2115102,23.4230769 C50.0078607,23.4230769 49.0371757,23.0512821 48.2865126,22.2948718 C47.5358495,21.5384615 47.1605179,20.5769231 47.1605179,19.4102564 C47.1605179,18.1153846 47.548792,17.0384615 48.3123975,16.1923077 C49.0760031,15.3461538 50.1631703,14.9358974 51.5738993,14.9358974 C51.9362883,14.9358974 52.2986774,14.9871795 52.6610665,15.0769231 C53.0234556,15.1666667 53.3211323,15.2692308 53.5411543,15.3974359 L53.5411543,17.2179487 C53.2434775,17 52.9458008,16.8333333 52.6351816,16.7179487 C52.3245624,16.6025641 52.0139431,16.5384615 51.6903815,16.5384615 C50.9397184,16.5384615 50.3184799,16.7820513 49.8525511,17.2692308 C49.3866223,17.7564103 49.1536579,18.4102564 49.1536579,19.2435897 C49.1536579,20.0641026 49.3736798,20.6923077 49.8266662,21.1538462 C50.2667101,21.6153846 50.875006,21.8333333 51.6386116,21.8333333" id="Shape" fill="#FFFFFF" fill-rule="nonzero"></path>
                    <path d="M59.0028754,15.0128205 C59.158185,15.0128205 59.2876097,15.025641 59.4170344,15.0384615 C59.5335166,15.0641026 59.6370563,15.0897436 59.7276536,15.1153846 L59.7276536,17.0384615 C59.6241139,16.9615385 59.4817467,16.8974359 59.2876097,16.8333333 C59.0934727,16.7692308 58.8605083,16.7307692 58.5887165,16.7307692 C58.1227877,16.7307692 57.7215712,16.9230769 57.3980095,17.3205128 C57.0744478,17.7179487 56.9061957,18.3205128 56.9061957,19.1410256 L56.9061957,23.2179487 L54.9907106,23.2179487 L54.9907106,15.1410256 L56.9061957,15.1410256 L56.9061957,16.4102564 L56.9320807,16.4102564 C57.1132752,15.974359 57.3721246,15.6282051 57.7215712,15.3717949 C58.0710178,15.1282051 58.4981192,15.0128205 59.0028754,15.0128205" id="Shape" fill="#FFFFFF" fill-rule="nonzero"></path>
                    <path d="M59.8311933,19.2948718 C59.8311933,17.9615385 60.2065249,16.8974359 60.9701304,16.1153846 C61.733736,15.3333333 62.7950183,14.9487179 64.1410349,14.9487179 C65.4093967,14.9487179 66.4059667,15.3205128 67.1307448,16.0769231 C67.8425805,16.8333333 68.2049696,17.8461538 68.2049696,19.1282051 C68.2049696,20.4358974 67.8296381,21.4871795 67.0660325,22.2564103 C66.3024269,23.0384615 65.2670296,23.4230769 63.9598404,23.4230769 C62.6914786,23.4230769 61.6949086,23.0512821 60.9442455,22.3205128 C60.1935824,21.5769231 59.8311933,20.5769231 59.8311933,19.2948718 M61.8243333,19.2307692 C61.8243333,20.0769231 62.0184703,20.7179487 62.4067443,21.1666667 C62.7950183,21.6153846 63.3515444,21.8333333 64.0633801,21.8333333 C64.7622733,21.8333333 65.2929145,21.6153846 65.6553036,21.1666667 C66.0176927,20.7179487 66.1988872,20.0641026 66.1988872,19.1923077 C66.1988872,18.3205128 66.0047502,17.6666667 65.6294186,17.2179487 C65.2540871,16.7692308 64.7234459,16.5512821 64.0374952,16.5512821 C63.3386019,16.5512821 62.7950183,16.7820513 62.3938018,17.2435897 C62.0184703,17.7179487 61.8243333,18.3717949 61.8243333,19.2307692" id="Shape" fill="#FFFFFF" fill-rule="nonzero"></path>
                    <path d="M71.0652549,17.2692308 C71.0652549,17.5384615 71.1558521,17.7564103 71.3241042,17.9102564 C71.4923563,18.0641026 71.8806303,18.2564103 72.4889263,18.5 C73.2525318,18.8076923 73.7961155,19.1410256 74.1067347,19.525641 C74.4173539,19.9102564 74.5726635,20.3717949 74.5726635,20.9102564 C74.5726635,21.6666667 74.2749867,22.2820513 73.6925757,22.7435897 C73.0972222,23.2051282 72.3077317,23.4358974 71.2982193,23.4358974 C70.9617151,23.4358974 70.5863836,23.3974359 70.1722246,23.3076923 C69.7580657,23.2307692 69.4086191,23.1282051 69.1238848,23 L69.1238848,21.1282051 C69.4733314,21.3717949 69.848663,21.5641026 70.2498794,21.7051282 C70.6510959,21.8461538 71.013485,21.9230769 71.3499891,21.9230769 C71.790033,21.9230769 72.1006522,21.8589744 72.3077317,21.7435897 C72.5148112,21.6282051 72.6183509,21.4230769 72.6183509,21.1410256 C72.6183509,20.8846154 72.5148112,20.6538462 72.2947893,20.474359 C72.0747673,20.2948718 71.6735508,20.0897436 71.0781973,19.8461538 C70.3663616,19.5512821 69.8616054,19.2179487 69.5768711,18.8589744 C69.2791944,18.4871795 69.1368273,18.025641 69.1368273,17.4615385 C69.1368273,16.7307692 69.434504,16.1410256 70.016915,15.6666667 C70.5993261,15.1923077 71.3629316,14.9615385 72.2947893,14.9615385 C72.5795235,14.9615385 72.9030852,14.9871795 73.2525318,15.0512821 C73.6019784,15.1153846 73.8996552,15.1923077 74.1455621,15.2948718 L74.1455621,17.1025641 C73.8867127,16.9358974 73.589036,16.7948718 73.2525318,16.6666667 C72.9160277,16.5512821 72.5795235,16.4871795 72.2430194,16.4871795 C71.8806303,16.4871795 71.595896,16.5641026 71.3888166,16.7051282 C71.1558521,16.8205128 71.0652549,17.0128205 71.0652549,17.2692308" id="Shape" fill="#FFFFFF" fill-rule="nonzero"></path>
                    <path d="M75.4009814,19.2948718 C75.4009814,17.9615385 75.7763129,16.8974359 76.5399185,16.1153846 C77.3035241,15.3333333 78.3648064,14.9487179 79.710823,14.9487179 C80.9791848,14.9487179 81.9757547,15.3205128 82.7005329,16.0769231 C83.4123686,16.8333333 83.7747577,17.8461538 83.7747577,19.1282051 C83.7747577,20.4358974 83.3994261,21.4871795 82.6358206,22.2564103 C81.872215,23.0384615 80.8368176,23.4230769 79.5296284,23.4230769 C78.2612666,23.4230769 77.2646967,23.0512821 76.5140336,22.3205128 C75.7763129,21.5769231 75.4009814,20.5769231 75.4009814,19.2948718 M77.3941213,19.2307692 C77.3941213,20.0769231 77.5882583,20.7179487 77.9765324,21.1666667 C78.3648064,21.6153846 78.9213325,21.8333333 79.6331682,21.8333333 C80.3320614,21.8333333 80.8627025,21.6153846 81.2250916,21.1666667 C81.5874807,20.7179487 81.7686753,20.0641026 81.7686753,19.1923077 C81.7686753,18.3205128 81.5745382,17.6666667 81.1992067,17.2179487 C80.8238751,16.7692308 80.293234,16.5512821 79.6072832,16.5512821 C78.90839,16.5512821 78.3518639,16.7820513 77.9635899,17.2435897 C77.5882583,17.7179487 77.3941213,18.3717949 77.3941213,19.2307692" id="Shape" fill="#FFFFFF" fill-rule="nonzero"></path>
                    <path d="M90.1295091,16.6923077 L90.1295091,20.8461538 C90.1295091,21.7051282 90.3365885,22.3461538 90.737805,22.7820513 C91.1390215,23.2051282 91.7473175,23.4230769 92.5626929,23.4230769 C92.8344847,23.4230769 93.119219,23.3974359 93.4039533,23.3333333 C93.6886875,23.2820513 93.8828246,23.2179487 94.0122492,23.1410256 L94.0122492,21.5641026 C93.895767,21.6410256 93.7533999,21.7051282 93.5980903,21.7564103 C93.4427807,21.8076923 93.313356,21.8333333 93.1968738,21.8333333 C92.8085998,21.8333333 92.5238655,21.7307692 92.342671,21.525641 C92.1614764,21.3205128 92.0708791,20.974359 92.0708791,20.474359 L92.0708791,16.6923077 L94.0122492,16.6923077 L94.0122492,15.1410256 L92.0708791,15.1410256 L92.0708791,12.7435897 L90.1424515,13.3205128 L90.1424515,15.1410256 L87.2821663,15.1410256 L87.2821663,14.1666667 C87.2821663,13.6794872 87.385706,13.3076923 87.605728,13.0641026 C87.8257499,12.8205128 88.1363691,12.6923077 88.5375856,12.6923077 C88.7446651,12.6923077 88.9258596,12.7179487 89.0811692,12.7692308 C89.2364788,12.8205128 89.352961,12.8717949 89.4176734,12.8974359 L89.4176734,11.2564103 C89.2753062,11.2051282 89.1199966,11.1794872 88.9388021,11.1538462 C88.7576075,11.1282051 88.5505281,11.1153846 88.3175637,11.1153846 C87.4504184,11.1153846 86.7256402,11.3846154 86.1691141,11.9230769 C85.612588,12.4615385 85.3278537,13.1666667 85.3278537,14.0128205 L85.3278537,15.1410256 L83.9688947,15.1410256 L83.9688947,16.6923077 L85.3278537,16.6923077 L85.3278537,23.2179487 L87.2692238,23.2179487 L87.2692238,16.6923077 L90.1295091,16.6923077 Z" id="Shape" fill="#FFFFFF" fill-rule="nonzero"></path>
                    <polygon id="Shape" fill="#FFFFFF" fill-rule="nonzero" points="42.0482434 11.9487179 42.0482434 23.2179487 40.0680459 23.2179487 40.0680459 14.3846154 40.042161 14.3846154 36.5088674 23.2179487 35.1887358 23.2179487 31.5777874 14.3846154 31.5519025 14.3846154 31.5519025 23.2179487 29.7270146 23.2179487 29.7270146 11.9487179 32.5614149 11.9487179 35.8358591 20.3076923 35.8746865 20.3076923 39.3303253 11.9487179"></polygon>
                    <rect id="Rectangle-path" fill="#F25022" fill-rule="nonzero" x="0.295844184" y="0.794871795" width="10.7551902" height="10.6538462"></rect>
                    <rect id="Rectangle-path" fill="#7FBA00" fill-rule="nonzero" x="12.1770291" y="0.794871795" width="10.7551902" height="10.6538462"></rect>
                    <rect id="Rectangle-path" fill="#00A4EF" fill-rule="nonzero" x="0.295844184" y="12.5641026" width="10.6281248" height="10.527978"></rect>
                    <rect id="Rectangle-path" fill="#FFB900" fill-rule="nonzero" x="12.1770291" y="12.5641026" width="10.7551902" height="10.6538462"></rect>
                    <path d="M34.1062956,1.43330469 C34.5734057,1.88387598 34.832739,2.39574182 34.8843031,2.96891755 L34.0016513,2.96891755 C33.9015563,2.53367181 33.7021275,2.18885201 33.4033591,1.93444781 C33.1045906,1.6800436 32.6852594,1.55284341 32.1453528,1.55284341 C31.4871522,1.55284341 30.9555949,1.78655461 30.5506651,2.25398402 C30.1457352,2.72141342 29.9432733,3.43787234 29.9432733,4.40338226 C29.9432733,5.19418087 30.1260198,5.83554569 30.4915183,6.32749599 C30.8570168,6.81944628 31.4022232,7.06541774 32.1271538,7.06541774 C32.794454,7.06541774 33.3025045,6.80641976 33.6513205,6.28841602 C33.8363446,6.01562115 33.9743524,5.65700856 34.0653479,5.21256749 L34.9479996,5.21256749 C34.8691368,5.92367321 34.608287,6.51982833 34.1654424,7.00105073 C33.6346354,7.58035669 32.9188151,7.87000532 32.0179598,7.87000532 C31.2414651,7.87000532 30.5893406,7.63246279 30.0615668,7.1573706 C29.366968,6.52902288 29.0196738,5.55892984 29.0196738,4.24706239 C29.0196738,3.25090136 29.2805236,2.43406157 29.802231,1.79651851 C30.366403,1.10380345 31.1444026,0.75745112 32.1362533,0.75745112 C32.9825113,0.75745112 33.6391855,0.982733389 34.1062956,1.43330469 Z M38.9904535,6.53898758 C39.1921602,6.12366506 39.293012,5.66160653 39.293012,5.15279812 C39.293012,4.69303149 39.2202167,4.31909358 39.0746239,4.03097316 C38.844102,3.57733675 38.4467611,3.35052195 37.8825891,3.35052195 C37.382114,3.35052195 37.0181375,3.54362103 36.7906488,3.929825 C36.5631601,4.31602897 36.4494175,4.78191883 36.4494175,5.32750857 C36.4494175,5.85164253 36.5631601,6.28841427 36.7906488,6.63783691 C37.0181375,6.98725955 37.3790808,7.16196825 37.8734896,7.16196825 C38.4164293,7.16196825 38.7887469,6.9543101 38.9904535,6.53898758 Z M39.4977508,3.26316672 C39.9314959,3.68615202 40.1483652,4.30836019 40.1483652,5.12980991 C40.1483652,5.92367362 39.9572776,6.57959751 39.5750965,7.09760124 C39.1929155,7.61560498 38.5999372,7.87460296 37.7961438,7.87460296 C37.1258105,7.87460296 36.5934949,7.64548936 36.1991812,7.18725529 C35.8048674,6.72902121 35.6077135,6.11370944 35.6077135,5.3413015 C35.6077135,4.51372156 35.8154834,3.85473261 36.2310294,3.36431488 C36.6465754,2.87389714 37.2046727,2.62869195 37.9053379,2.62869195 C38.5332067,2.62869195 39.0640057,2.84018142 39.4977508,3.26316672 Z M41.1220119,2.77121889 L41.9000194,2.77121889 L41.9000194,3.47006067 C42.1305413,3.18194025 42.3747088,2.97504837 42.6325293,2.84937882 C42.8903499,2.72370928 43.1769813,2.66087545 43.4924323,2.66087545 C44.183998,2.66087545 44.6511011,2.90454811 44.8937557,3.39190074 C45.0272157,3.65856538 45.0939447,4.04016596 45.0939447,4.53671392 L45.0939447,7.69529487 L44.2613403,7.69529487 L44.2613403,4.59188564 C44.2613403,4.29150477 44.2173598,4.04936465 44.1293975,3.865458 C43.9838047,3.55894691 43.7199218,3.40569367 43.3377408,3.40569367 C43.1436171,3.40569367 42.9843774,3.42561659 42.8600169,3.46546303 C42.6355614,3.53289547 42.4384075,3.66775832 42.2685492,3.87005564 C42.132056,4.03250652 42.0433368,4.20031882 42.0023888,4.37349758 C41.9614408,4.54667635 41.9409672,4.79418034 41.9409672,5.11601698 L41.9409672,7.69529487 L41.1220119,7.69529487 L41.1220119,2.77121889 Z M46.7910019,6.15048672 C46.8152674,6.4263467 46.883513,6.63783618 46.9957407,6.7849615 C47.2019972,7.05162614 47.5599073,7.18495646 48.069482,7.18495646 C48.3728003,7.18495646 48.6397163,7.1182913 48.8702382,6.98495898 C49.1007601,6.85162666 49.2160193,6.64550104 49.2160193,6.36657596 C49.2160193,6.15508331 49.1235086,5.9941674 48.9384845,5.88382341 C48.8201904,5.81639097 48.5866388,5.73823181 48.2378228,5.6493436 L47.5872084,5.48382844 C47.1716624,5.37961467 46.8653155,5.26314221 46.6681586,5.13440755 C46.3163095,4.91065446 46.1403875,4.6010829 46.1403875,4.2056836 C46.1403875,3.73978675 46.3064518,3.36278377 46.6385853,3.07466335 C46.9707188,2.78654293 47.4173482,2.64248488 47.978487,2.64248488 C48.7125172,2.64248488 49.2417996,2.86010448 49.5663502,3.29535023 C49.7695734,3.5712102 49.8681504,3.8685215 49.862084,4.18729303 L49.0886263,4.18729303 C49.0734604,4.00032126 49.0082479,3.83021016 48.892987,3.67695462 C48.7049297,3.45933175 48.3788674,3.35052195 47.9147905,3.35052195 C47.6054058,3.35052195 47.371096,3.41029071 47.2118539,3.52983003 C47.0526118,3.64936936 46.972992,3.8072202 46.972992,4.0033873 C46.972992,4.21794506 47.0776352,4.38958869 47.2869248,4.51832335 C47.4082521,4.59495112 47.5872072,4.66238254 47.8237955,4.72061965 L48.3652158,4.85395131 C48.9536533,4.99801152 49.3479611,5.13747197 49.5481512,5.27233685 C49.8666353,5.4838295 50.025875,5.81638904 50.025875,6.27002545 C50.025875,6.7083363 49.8613273,7.08687181 49.532227,7.40564334 C49.2031267,7.72441487 48.7019008,7.88379825 48.0285343,7.88379825 C47.3036036,7.88379825 46.7902451,7.71751848 46.4884435,7.38495395 C46.1866418,7.05238942 46.0251273,6.64090446 46.003895,6.15048672 L46.7910019,6.15048672 Z M51.2224596,2.79420711 L52.0550641,2.79420711 L52.0550641,7.69529487 L51.2224596,7.69529487 L51.2224596,2.79420711 Z M52.6738302,0.789634623 L51.4590467,2.11835354 L50.831181,2.11835354 L51.6637855,0.789634623 L52.6738302,0.789634623 Z M56.2726834,2.96891755 C56.4273757,3.07619643 56.5850989,3.23251474 56.7458575,3.43787717 L56.7458575,2.81719532 L57.5011162,2.81719532 L57.5011162,7.2952999 C57.5011162,7.92058252 57.4101221,8.41405797 57.2281312,8.77574105 C56.8884147,9.44393522 56.2469062,9.77802729 55.3035864,9.77802729 C54.7788458,9.77802729 54.3375244,9.65925603 53.9796088,9.42170993 C53.6216933,9.18416384 53.4215062,8.81252472 53.3790417,8.30678143 L54.2116461,8.30678143 C54.2510775,8.52746941 54.3299391,8.69758052 54.4482332,8.81711984 C54.6332573,9.00102649 54.9244385,9.09297844 55.3217854,9.09297844 C55.9496542,9.09297844 56.3606443,8.8692287 56.554768,8.42172251 C56.6700289,8.15812298 56.7231088,7.68763552 56.7140093,7.01024602 C56.5502174,7.26158511 56.3530635,7.44855407 56.1225416,7.5711585 C55.8920197,7.69376294 55.5871895,7.75506423 55.2080416,7.75506423 C54.6802679,7.75506423 54.2184727,7.56579648 53.8226424,7.18725529 C53.4268121,6.80871409 53.2288999,6.18267459 53.2288999,5.30911799 C53.2288999,4.48460317 53.4283286,3.84093955 53.8271921,3.37810781 C54.2260557,2.91527606 54.7075662,2.68386367 55.2717382,2.68386367 C55.6539192,2.68386367 55.9875642,2.77888068 56.2726834,2.96891755 Z M56.3727779,3.85626271 C56.124057,3.56201207 55.8070941,3.41488895 55.4218799,3.41488895 C54.8455752,3.41488895 54.4512674,3.68767973 54.2389446,4.23326946 C54.1267169,4.52445499 54.0706038,4.90605557 54.0706038,5.37808264 C54.0706038,5.93286771 54.1820716,6.3550804 54.4050105,6.64473338 C54.6279495,6.93438635 54.9274718,7.07921067 55.3035864,7.07921067 C55.8920238,7.07921067 56.3060471,6.81101749 56.5456685,6.27462309 C56.6791285,5.97117711 56.7458575,5.61716212 56.7458575,5.21256749 C56.7458575,4.60261042 56.6214989,4.15051335 56.3727779,3.85626271 Z M59.553054,2.77121889 L59.553054,6.04014328 C59.553054,6.29148237 59.5924848,6.49684172 59.6713476,6.65622748 C59.8169403,6.95047813 60.0884061,7.09760124 60.485753,7.09760124 C61.0559913,7.09760124 61.4442329,6.84013579 61.6504893,6.32519717 C61.7627171,6.04933719 61.8188301,5.67080167 61.8188301,5.18957927 L61.8188301,2.77121889 L62.6377853,2.77121889 L62.6377853,7.69529487 L61.8643276,7.69529487 L61.8734271,6.96886723 C61.7672657,7.15583899 61.6353243,7.31368983 61.4775988,7.44242449 C61.165181,7.6998938 60.7860388,7.82862653 60.340161,7.82862653 C59.6455622,7.82862653 59.1723928,7.59414906 58.9206386,7.1251871 C58.7841454,6.87384801 58.7158998,6.53822341 58.7158998,6.11830322 L58.7158998,2.77121889 L59.553054,2.77121889 Z M66.9509495,2.90684937 C67.2755,3.0708328 67.5227007,3.28308854 67.6925589,3.54362296 C67.8563508,3.79189694 67.9655437,4.08154558 68.020141,4.41257755 C68.0686719,4.63939575 68.092937,5.00107341 68.092937,5.49762137 L64.5213823,5.49762137 C64.5365482,5.99723444 64.653324,6.39799168 64.8717132,6.6999051 C65.0901023,7.00181852 65.4282971,7.15277296 65.8863077,7.15277296 C66.3139864,7.15277296 66.6552144,7.01024744 66.9100017,6.72519213 C67.0555945,6.55967615 67.1587211,6.36810959 67.2193848,6.15048672 L68.0246907,6.15048672 C68.0034585,6.33132826 67.932938,6.53285628 67.8131273,6.75507682 C67.6933166,6.97729735 67.5591003,7.15890245 67.4104743,7.29989755 C67.1617534,7.54510642 66.8538899,7.71061992 66.4868748,7.79644302 C66.289718,7.8454848 66.0667824,7.87000532 65.8180614,7.87000532 C65.2114249,7.87000532 64.6973081,7.64702185 64.2756958,7.20104822 C63.8540834,6.75507459 63.6432803,6.13056761 63.6432803,5.32750857 C63.6432803,4.53670997 63.8555999,3.89457887 64.2802455,3.40109602 C64.7048911,2.90761317 65.2599552,2.66087545 65.9454544,2.66087545 C66.2912373,2.66087545 66.6263989,2.74286593 66.9509495,2.90684937 Z M67.251233,4.84015838 C67.217868,4.48154041 67.140523,4.19495684 67.0191957,3.98039908 C66.7947402,3.58193467 66.4201478,3.38270545 65.8954072,3.38270545 C65.5192925,3.38270545 65.2038463,3.5198671 64.9490589,3.79419452 C64.6942716,4.06852195 64.559297,4.41717308 64.5441311,4.84015838 L67.251233,4.84015838 Z M69.1211808,0.941356852 L69.940136,0.941356852 L69.940136,7.69529487 L69.1211808,7.69529487 L69.1211808,0.941356852 Z M74.219177,6.53898758 C74.4208836,6.12366506 74.5217354,5.66160653 74.5217354,5.15279812 C74.5217354,4.69303149 74.4489401,4.31909358 74.3033474,4.03097316 C74.0728255,3.57733675 73.6754845,3.35052195 73.1113126,3.35052195 C72.6108374,3.35052195 72.246861,3.54362103 72.0193723,3.929825 C71.7918836,4.31602897 71.6781409,4.78191883 71.6781409,5.32750857 C71.6781409,5.85164253 71.7918836,6.28841427 72.0193723,6.63783691 C72.246861,6.98725955 72.6078043,7.16196825 73.1022131,7.16196825 C73.6451528,7.16196825 74.0174703,6.9543101 74.219177,6.53898758 Z M74.7264742,3.26316672 C75.1602194,3.68615202 75.3770887,4.30836019 75.3770887,5.12980991 C75.3770887,5.92367362 75.186001,6.57959751 74.80382,7.09760124 C74.421639,7.61560498 73.8286607,7.87460296 73.0248673,7.87460296 C72.3545339,7.87460296 71.8222184,7.64548936 71.4279046,7.18725529 C71.0335909,6.72902121 70.836437,6.11370944 70.836437,5.3413015 C70.836437,4.51372156 71.0442069,3.85473261 71.4597529,3.36431488 C71.8752989,2.87389714 72.4333961,2.62869195 73.1340613,2.62869195 C73.7619301,2.62869195 74.2927291,2.84018142 74.7264742,3.26316672 Z M79.7903473,6.61484869 C80.0117696,6.97040155 80.3666467,7.14817532 80.8549891,7.14817532 C81.2341369,7.14817532 81.5457918,6.98342808 81.789963,6.65392866 C82.0341342,6.32442924 82.1562179,5.85164299 82.1562179,5.2355557 C82.1562179,4.6133382 82.0303427,4.1528122 81.7785886,3.85396389 C81.5268344,3.55511558 81.2159379,3.40569367 80.8458896,3.40569367 C80.4333768,3.40569367 80.0989734,3.56507704 79.8426695,3.88384857 C79.5863655,4.2026201 79.4582155,4.67157503 79.4582155,5.29072742 C79.4582155,5.81792649 79.568925,6.25929583 79.7903473,6.61484869 Z M81.6284468,2.92294112 C81.7740396,3.01489444 81.9393455,3.17581035 82.1243697,3.40569367 L82.1243697,0.918368635 L82.9114766,0.918368635 L82.9114766,7.69529487 L82.1744169,7.69529487 L82.1744169,7.01024602 C81.9833264,7.31369199 81.7573577,7.53284413 81.496504,7.66770901 C81.2356503,7.80257389 80.9368863,7.87000532 80.600203,7.87000532 C80.0572633,7.87000532 79.5871271,7.63935918 79.1897802,7.17806 C78.7924332,6.71676081 78.5937628,6.10298157 78.5937628,5.33670385 C78.5937628,4.61946791 78.7749927,3.99802601 79.137458,3.47235949 C79.4999233,2.94669298 80.0178315,2.68386367 80.6911981,2.68386367 C81.0642795,2.68386367 81.3766926,2.76355535 81.6284468,2.92294112 Z M87.1563945,2.90684937 C87.480945,3.0708328 87.7281457,3.28308854 87.8980039,3.54362296 C88.0617958,3.79189694 88.1709887,4.08154558 88.225586,4.41257755 C88.2741169,4.63939575 88.298382,5.00107341 88.298382,5.49762137 L84.7268274,5.49762137 C84.7419933,5.99723444 84.8587691,6.39799168 85.0771582,6.6999051 C85.2955473,7.00181852 85.6337421,7.15277296 86.0917527,7.15277296 C86.5194315,7.15277296 86.8606594,7.01024744 87.1154467,6.72519213 C87.2610395,6.55967615 87.3641662,6.36810959 87.4248298,6.15048672 L88.2301358,6.15048672 C88.2089035,6.33132826 88.1383831,6.53285628 88.0185723,6.75507682 C87.8987616,6.97729735 87.7645453,7.15890245 87.6159194,7.29989755 C87.3671984,7.54510642 87.059335,7.71061992 86.6923199,7.79644302 C86.495163,7.8454848 86.2722274,7.87000532 86.0235064,7.87000532 C85.4168699,7.87000532 84.9027532,7.64702185 84.4811408,7.20104822 C84.0595284,6.75507459 83.8487254,6.13056761 83.8487254,5.32750857 C83.8487254,4.53670997 84.061045,3.89457887 84.4856905,3.40109602 C84.9103361,2.90761317 85.4654002,2.66087545 86.1508995,2.66087545 C86.4966823,2.66087545 86.831844,2.74286593 87.1563945,2.90684937 Z M87.4566781,4.84015838 C87.4233131,4.48154041 87.3459681,4.19495684 87.2246408,3.98039908 C87.0001852,3.58193467 86.6255928,3.38270545 86.1008522,3.38270545 C85.7247376,3.38270545 85.4092913,3.5198671 85.154504,3.79419452 C84.8997166,4.06852195 84.764742,4.41717308 84.7495761,4.84015838 L87.4566781,4.84015838 Z" id="Consíguelo-de" fill="#FFFFFF"></path>
                </g>
            </g>
        </g>
    </g>
</svg>