<?xml version="1.0" encoding="utf-8"?>
<!-- Generator: Adobe Illustrator 16.0.0, SVG Export Plug-In . SVG Version: 6.00 Build 0)  -->
<!DOCTYPE svg PUBLIC "-//W3C//DTD SVG 1.1//EN" "http://www.w3.org/Graphics/SVG/1.1/DTD/svg11.dtd">
<svg version="1.1" id="Layer_1" xmlns="http://www.w3.org/2000/svg" xmlns:xlink="http://www.w3.org/1999/xlink" x="0px" y="0px"
	 width="135px" height="40px" viewBox="0 0 135 40" enable-background="new 0 0 135 40" xml:space="preserve">
<g>
	<rect fill="#010101" width="135" height="40"/>
	<g>
		<polygon fill="none" points="18.293,24.543 21.275,21.563 21.275,21.563 18.293,24.543 8.78,15.029 8.78,15.029 18.293,24.543 
			8.764,34.071 8.764,34.071 18.293,24.543 21.289,27.538 21.29,27.538 		"/>
		
			<linearGradient id="SVGID_1_" gradientUnits="userSpaceOnUse" x1="1016.1611" y1="637.8633" x2="1003.6008" y2="645.724" gradientTransform="matrix(0.7071 0.7071 0.7071 -0.7071 -1153.2708 -243.7176)">
			<stop  offset="0" style="stop-color:#D7E69E"/>
			<stop  offset="0.4456" style="stop-color:#95C4AA"/>
			<stop  offset="1" style="stop-color:#02A5B7"/>
		</linearGradient>
		<path fill="url(#SVGID_1_)" d="M21.275,21.563L9.66,15.175c-0.328-0.18-0.634-0.222-0.878-0.145l9.513,9.513L21.275,21.563z"/>
		
			<linearGradient id="SVGID_2_" gradientUnits="userSpaceOnUse" x1="1008.8584" y1="644.5781" x2="1025.1439" y2="640.3209" gradientTransform="matrix(0.7071 0.7071 0.7071 -0.7071 -1153.2708 -243.7176)">
			<stop  offset="0" style="stop-color:#EE2B7B"/>
			<stop  offset="0.0192" style="stop-color:#EE337D"/>
			<stop  offset="0.7039" style="stop-color:#F6BD80"/>
			<stop  offset="1" style="stop-color:#FDEA75"/>
		</linearGradient>
		<path fill="url(#SVGID_2_)" d="M21.29,27.538l3.964-2.182c0.804-0.445,0.804-1.168,0-1.608l-3.979-2.186l-2.98,2.98L21.29,27.538z
			"/>
		
			<linearGradient id="SVGID_3_" gradientUnits="userSpaceOnUse" x1="1017.9473" y1="631.9014" x2="1000.2899" y2="642.29" gradientTransform="matrix(0.7071 0.7071 0.7071 -0.7071 -1153.2708 -243.7176)">
			<stop  offset="0" style="stop-color:#89CFBD"/>
			<stop  offset="0.0907" style="stop-color:#7EBEBC"/>
			<stop  offset="0.5396" style="stop-color:#467DAD"/>
			<stop  offset="0.8523" style="stop-color:#1E5BA2"/>
			<stop  offset="1" style="stop-color:#0B4F9D"/>
		</linearGradient>
		<path fill="url(#SVGID_3_)" d="M8.78,15.029c-0.354,0.109-0.583,0.467-0.583,1.008L8.2,33.065c0,0.538,0.223,0.89,0.564,1.004
			l9.529-9.528L8.78,15.029z"/>
		
			<linearGradient id="SVGID_4_" gradientUnits="userSpaceOnUse" x1="1024.3613" y1="640.1514" x2="1013.4857" y2="625.8233" gradientTransform="matrix(0.7071 0.7071 0.7071 -0.7071 -1153.2708 -243.7176)">
			<stop  offset="0" style="stop-color:#F04C2A"/>
			<stop  offset="0.4704" style="stop-color:#B6506C"/>
			<stop  offset="0.8353" style="stop-color:#8C5292"/>
			<stop  offset="1" style="stop-color:#7952A1"/>
		</linearGradient>
		<path fill="url(#SVGID_4_)" d="M8.764,34.071c0.248,0.084,0.558,0.045,0.894-0.14l11.63-6.394l-2.995-2.995L8.764,34.071z"/>
	</g>
	<g>
		<g>
			<path fill="#010101" d="M26.349,37.896c0-11.254,0-22.507,0-33.761c34.716,0,69.435,0,104.151,0c0,11.254,0,22.507,0,33.761
				C95.784,37.896,61.065,37.896,26.349,37.896z M41.096,19.132C38,15.92,32.535,16.466,29.893,20.169
				c-1.791,2.509-1.88,5.774-0.229,8.343c1.695,2.635,4.866,3.953,7.929,3.357c3.829-0.747,5.978-4.31,5.178-8.019
				c-2.213,0-4.437,0-6.695,0c0,0.695,0,1.333,0,2.043c0.832,0,1.604,0,2.376,0c0.761,0,1.521,0,2.289,0
				c-0.139,1.997-1.461,3.45-3.415,3.884c-2.365,0.531-4.773-0.526-5.89-2.588c-1.177-2.166-0.819-4.849,0.874-6.543
				c1.915-1.919,4.186-1.972,7.397-0.176C40.158,20.036,40.609,19.603,41.096,19.132z M65.605,33.4
				c1.034,2.212,3.048,3.241,5.286,2.8c2.204-0.435,3.522-2.043,3.568-4.506c0.051-2.751,0.017-5.501,0.013-8.25
				c0-0.261-0.028-0.522-0.043-0.77c-1.675-0.191-1.782-0.167-2.17,0.45c-2.128-1.243-4.213-0.997-5.751,0.681
				c-1.543,1.686-1.727,4.266-0.426,6.124c0.713,1.025,1.682,1.672,2.904,1.95c1.238,0.285,2.322-0.091,3.35-0.819
				c0.161,1.587-0.293,2.596-1.314,3.052c-1.262,0.563-2.257,0.178-3.68-1.451C66.791,32.897,66.223,33.138,65.605,33.4z
				 M95.495,26.416c1.228,0,2.332,0.078,3.424-0.017c2.117-0.191,3.785-1.903,3.924-3.897c0.149-2.176-1.086-4.135-3.258-4.502
				c-2.026-0.343-4.128-0.236-6.207-0.327c0,4.805,0,9.399,0,14.032c0.712,0,1.383,0,2.117,0
				C95.495,29.98,95.495,28.317,95.495,26.416z M115.1,25.728c-1.54-0.556-3.003-0.64-4.448-0.047
				c-1.557,0.64-2.396,1.975-2.19,3.424c0.216,1.518,1.498,2.687,3.118,2.885c1.333,0.155,2.514-0.119,3.46-1.239
				c0.1,0.432,0.164,0.706,0.217,0.937c0.746,0,1.417,0,2.136,0c0-1.948,0.012-3.827-0.005-5.711
				c-0.016-2.238-1.229-3.702-3.427-4.166c-2.27-0.479-4.351,0.397-5.188,2.216c0.176,0.091,0.357,0.186,0.539,0.274
				c0.745,0.365,1.33,0.608,2.178-0.108C112.769,23.109,114.852,24.027,115.1,25.728z M118.179,22.239
				c0.153,0.401,0.238,0.654,0.345,0.895c1.082,2.456,2.138,4.923,3.265,7.359c0.309,0.668,0.296,1.201-0.032,1.839
				c-0.618,1.209-1.153,2.453-1.777,3.795c0.531,0,0.896-0.05,1.244,0.011c0.884,0.157,1.296-0.227,1.641-1.042
				c1.692-4.011,3.454-7.992,5.19-11.984c0.108-0.255,0.208-0.517,0.351-0.872c-0.571,0-0.997,0.055-1.404-0.01
				c-0.904-0.147-1.292,0.244-1.579,1.092c-0.591,1.762-1.324,3.482-2.064,5.401c-0.206-0.438-0.331-0.696-0.44-0.963
				c-0.664-1.597-1.345-3.188-1.968-4.8c-0.219-0.563-0.515-0.798-1.123-0.729C119.327,22.285,118.818,22.239,118.179,22.239z
				 M53.667,27.116c0-2.726-2.095-4.813-4.84-4.814c-2.741-0.006-4.862,2.079-4.875,4.796c-0.016,2.745,2.132,4.879,4.899,4.869
				C51.581,31.957,53.669,29.854,53.667,27.116z M59.299,22.302c-2.752-0.006-4.831,2.053-4.847,4.802
				c-0.018,2.735,2.052,4.839,4.788,4.865c2.768,0.024,4.912-2.098,4.906-4.854C64.14,24.391,62.043,22.304,59.299,22.302z
				 M88.252,25.972c-0.553-2.202-2.153-3.611-4.121-3.67c-2.61-0.079-4.566,1.867-4.649,4.627c-0.087,2.777,1.841,4.939,4.483,5.038
				c1.841,0.07,3.595-0.862,4.169-2.242c-0.503-0.34-1.014-0.681-1.509-1.012c-1.773,1.786-3.742,1.726-4.626-0.136
				C84.088,27.708,86.173,26.84,88.252,25.972z M78.197,31.775c0-4.697,0-9.316,0-13.962c-0.712,0-1.378,0-2.061,0
				c0,4.68,0,9.297,0,13.962C76.829,31.775,77.478,31.775,78.197,31.775z M106.766,31.713c0-4.661,0-9.276,0-13.888
				c-0.762,0-1.46,0-2.143,0c0,4.667,0,9.255,0,13.888C105.368,31.713,106.043,31.713,106.766,31.713z M69.156,12.564
				c0.085-0.09,0.171-0.182,0.259-0.273c0-1.94,0.018-3.88-0.026-5.821c-0.005-0.208-0.376-0.406-0.578-0.61
				c-0.097,0.059-0.193,0.119-0.291,0.18c0,1.521,0,3.043,0,4.564c-0.992-1.321-1.854-2.646-2.656-4.008
				c-0.344-0.587-0.748-0.779-1.389-0.554c0,2.125,0,4.232,0,6.315c0.686,0.206,0.833-0.088,0.82-0.667
				c-0.03-1.349-0.009-2.696-0.009-4.046c1.086,1.394,1.947,2.823,2.877,4.209C68.375,12.171,68.818,12.331,69.156,12.564z
				 M60.134,12.575c1.898-0.001,3.294-1.428,3.294-3.366c0-1.941-1.38-3.354-3.29-3.368c-1.94-0.015-3.378,1.45-3.351,3.405
				C56.815,11.17,58.23,12.577,60.134,12.575z M34.779,9.809c-0.408,1.474-1.377,2.099-2.726,1.887
				c-1.232-0.191-2.283-1.398-2.036-2.631c0.53-2.646,2.148-2.917,4.333-1.734c0.139-0.156,0.291-0.326,0.432-0.484
				c-0.797-1.172-3.101-1.339-4.345-0.37c-1.311,1.018-1.731,2.977-0.895,4.43c0.849,1.476,2.683,2.093,4.282,1.439
				c1.349-0.552,2.049-1.919,1.677-3.393c-0.813,0-1.645,0.016-2.474-0.004c-0.664-0.018-0.653,0.313-0.447,0.859
				C33.281,9.809,33.985,9.809,34.779,9.809z M36.626,12.358c1.292,0,2.5,0,3.709,0c0.05-0.094,0.1-0.189,0.148-0.283
				c-0.234-0.161-0.458-0.444-0.705-0.463c-0.754-0.062-1.516-0.023-2.259-0.023c0-0.743,0-1.324,0-1.893
				c2.509-0.323,2.509-0.323,2.402-0.932c-0.797,0-1.616,0-2.421,0c0-0.691,0-1.278,0-1.964c0.782,0,1.522-0.019,2.257,0.006
				c0.6,0.021,0.742-0.227,0.531-0.79c-1.205,0-2.413,0-3.661,0C36.626,8.146,36.626,10.225,36.626,12.358z M51.684,6.816
				c0,1.905,0,3.737,0,5.52c0.746,0.244,0.869-0.077,0.86-0.646c-0.022-1.602-0.008-3.205-0.008-4.789
				c1.806-0.267,1.806-0.267,1.621-0.94c-1.235,0-2.485,0.013-3.736-0.005c-0.7-0.009-0.579,0.366-0.452,0.86
				C50.534,6.816,51.06,6.816,51.684,6.816z M42.836,6.926c0,1.787,0,3.594,0,5.407c0.688,0.211,0.856-0.042,0.848-0.623
				c-0.024-1.605-0.009-3.21-0.009-4.914c0.504,0,0.919,0.039,1.322-0.019c0.167-0.023,0.306-0.252,0.46-0.386
				c-0.146-0.143-0.29-0.404-0.438-0.407c-1.303-0.033-2.609-0.019-3.905-0.019C41.096,6.583,41.096,6.583,42.836,6.926z
				 M48.312,6.009c0,2.164,0,4.265,0,6.425c0.307-0.03,0.554-0.052,0.798-0.076c0-2.151,0-4.228,0-6.349
				C48.843,6.009,48.613,6.009,48.312,6.009z"/>
			<path fill="#FFFFFF" d="M41.096,19.132c-0.487,0.471-0.936,0.904-1.388,1.34c-3.211-1.796-5.482-1.741-7.397,0.178
				c-1.693,1.694-2.051,4.375-0.874,6.541c1.117,2.063,3.525,3.119,5.89,2.592c1.953-0.438,3.275-1.891,3.415-3.888
				c-0.767,0-1.528,0-2.289,0c-0.772,0-1.544,0-2.376,0c0-0.71,0-1.346,0-2.038c2.258,0,4.482,0,6.695,0
				c0.8,3.706-1.349,7.269-5.178,8.016c-3.063,0.594-6.234-0.723-7.929-3.359c-1.651-2.569-1.563-5.831,0.229-8.343
				C32.535,16.466,38,15.92,41.096,19.132z"/>
			<path fill="#FFFFFF" d="M65.605,33.4c0.618-0.263,1.186-0.503,1.736-0.739c1.423,1.629,2.418,2.015,3.68,1.451
				c1.021-0.456,1.476-1.465,1.314-3.052c-1.027,0.729-2.111,1.104-3.35,0.819c-1.222-0.278-2.191-0.925-2.904-1.95
				c-1.301-1.858-1.118-4.438,0.426-6.124c1.538-1.678,3.623-1.924,5.751-0.681c0.388-0.617,0.495-0.642,2.17-0.45
				c0.015,0.247,0.043,0.509,0.043,0.77c0.004,2.749,0.038,5.499-0.013,8.25c-0.046,2.465-1.366,4.071-3.568,4.506
				C68.653,36.642,66.639,35.614,65.605,33.4z M67.381,27.108c-0.018,1.629,1.15,2.904,2.651,2.904c1.403,0,2.501-1.213,2.538-2.81
				c0.038-1.603-1.08-2.925-2.491-2.955C68.588,24.216,67.401,25.477,67.381,27.108z"/>
			<path fill="#FFFFFF" d="M95.495,26.416c0,1.901,0,3.564,0,5.288c-0.734,0-1.405,0-2.117,0c0-4.633,0-9.227,0-14.032
				c2.079,0.091,4.181-0.016,6.207,0.327c2.172,0.367,3.407,2.327,3.258,4.502c-0.139,1.994-1.807,3.706-3.924,3.897
				C97.827,26.494,96.723,26.416,95.495,26.416z M95.56,24.252c1.157,0,2.232,0.08,3.288-0.026c0.987-0.104,1.73-1.116,1.74-2.102
				c0.011-1-0.791-2.06-1.798-2.153c-1.057-0.1-2.128-0.021-3.23-0.021C95.56,21.416,95.56,22.809,95.56,24.252z"/>
			<path fill="#FFFFFF" d="M115.1,25.728c-0.248-1.7-2.331-2.618-3.609-1.534c-0.85,0.717-1.435,0.477-2.18,0.108
				c-0.182-0.089-0.361-0.186-0.539-0.276c0.838-1.818,2.919-2.692,5.188-2.214c2.198,0.464,3.411,1.928,3.427,4.166
				c0.017,1.884,0.005,3.763,0.005,5.711c-0.719,0-1.39,0-2.136,0c-0.053-0.23-0.117-0.507-0.217-0.935
				c-0.946,1.116-2.127,1.393-3.46,1.237c-1.62-0.198-2.902-1.367-3.118-2.885c-0.206-1.451,0.634-2.783,2.19-3.424
				C112.097,25.088,113.56,25.172,115.1,25.728z M113.14,27.118c-0.016-0.036-0.028-0.07-0.04-0.109
				c-0.579,0.204-1.228,0.312-1.716,0.65c-0.327,0.222-0.602,0.789-0.573,1.181c0.024,0.337,0.45,0.759,0.799,0.937
				c0.847,0.433,1.746,0.279,2.415-0.341c0.466-0.434,0.719-1.104,1.065-1.667c-0.563-0.21-1.12-0.427-1.688-0.63
				C113.323,27.108,113.227,27.124,113.14,27.118z"/>
			<path fill="#FFFFFF" d="M118.179,22.239c0.64,0,1.148,0.046,1.646-0.01c0.608-0.067,0.904,0.167,1.123,0.73
				c0.623,1.61,1.304,3.201,1.968,4.8c0.109,0.265,0.234,0.521,0.44,0.963c0.74-1.919,1.474-3.64,2.064-5.401
				c0.287-0.848,0.675-1.241,1.579-1.092c0.407,0.064,0.833,0.01,1.404,0.01c-0.143,0.355-0.242,0.617-0.351,0.872
				c-1.736,3.992-3.498,7.974-5.19,11.984c-0.345,0.815-0.757,1.199-1.641,1.042c-0.348-0.061-0.713-0.011-1.244-0.011
				c0.624-1.342,1.159-2.588,1.777-3.795c0.328-0.638,0.341-1.171,0.032-1.839c-1.127-2.437-2.183-4.903-3.265-7.359
				C118.417,22.894,118.332,22.641,118.179,22.239z"/>
			<path fill="#FFFFFF" d="M53.667,27.116c0,2.737-2.086,4.841-4.816,4.853c-2.768,0.01-4.917-2.123-4.901-4.871
				c0.015-2.715,2.136-4.8,4.877-4.796C51.572,22.304,53.667,24.391,53.667,27.116z M51.489,27.137
				c-0.001-1.638-1.154-2.885-2.666-2.889c-1.501-0.002-2.684,1.259-2.692,2.872c-0.007,1.604,1.187,2.893,2.68,2.898
				C50.313,30.021,51.489,28.753,51.489,27.137z"/>
			<path fill="#FFFFFF" d="M59.299,22.302c2.745,0.004,4.841,2.089,4.846,4.813c0.006,2.757-2.138,4.879-4.906,4.854
				c-2.735-0.026-4.806-2.13-4.788-4.865C54.468,24.354,56.547,22.296,59.299,22.302z M56.609,27.137
				c0,1.612,1.196,2.893,2.688,2.882c1.502-0.012,2.697-1.298,2.687-2.898c-0.011-1.613-1.196-2.874-2.7-2.872
				C57.773,24.252,56.607,25.51,56.609,27.137z"/>
			<path fill="#FFFFFF" d="M88.252,25.972c-2.079,0.868-4.164,1.736-6.253,2.605c0.884,1.855,2.853,1.92,4.626,0.136
				c0.495,0.331,1.006,0.672,1.509,1.012c-0.574,1.38-2.328,2.313-4.169,2.242c-2.643-0.099-4.57-2.261-4.483-5.038
				c0.083-2.76,2.039-4.706,4.649-4.627C86.099,22.36,87.699,23.77,88.252,25.972z M85.741,25.204
				c-0.636-0.914-1.431-1.185-2.366-0.882c-1.118,0.361-1.752,1.266-1.739,2.574C83.002,26.333,84.332,25.786,85.741,25.204z"/>
			<path fill="#FFFFFF" d="M78.197,31.775c-0.723,0-1.37,0-2.061,0c0-4.663,0-9.28,0-13.962c0.683,0,1.349,0,2.061,0
				C78.197,22.459,78.197,27.073,78.197,31.775z"/>
			<path fill="#FFFFFF" d="M106.766,31.713c-0.723,0-1.397,0-2.143,0c0-4.633,0-9.222,0-13.888c0.683,0,1.381,0,2.143,0
				C106.766,22.437,106.766,27.052,106.766,31.713z"/>
			<path fill="#FFFFFF" d="M69.156,12.564c-0.338-0.234-0.781-0.393-0.994-0.71c-0.93-1.384-1.791-2.815-2.877-4.208
				c0,1.349-0.019,2.696,0.009,4.046c0.013,0.579-0.134,0.872-0.82,0.666c0-2.083,0-4.189,0-6.314
				c0.641-0.225,1.045-0.034,1.389,0.555c0.802,1.362,1.664,2.687,2.656,4.007c0-1.522,0-3.044,0-4.564
				c0.098-0.062,0.194-0.121,0.291-0.181c0.202,0.204,0.573,0.403,0.578,0.61c0.044,1.94,0.026,3.88,0.026,5.821
				C69.327,12.383,69.241,12.474,69.156,12.564z"/>
			<path fill="#FFFFFF" d="M60.134,12.575c-1.904,0.001-3.319-1.404-3.347-3.327c-0.027-1.956,1.412-3.421,3.352-3.406
				c1.909,0.013,3.29,1.427,3.29,3.368C63.428,11.147,62.033,12.574,60.134,12.575z M62.53,9.229
				c0.015-1.467-1.019-2.574-2.406-2.578c-1.334-0.004-2.4,1.079-2.437,2.476c-0.038,1.448,0.995,2.584,2.379,2.617
				C61.462,11.777,62.517,10.702,62.53,9.229z"/>
			<path fill="#FFFFFF" d="M34.779,9.809c-0.794,0-1.499,0-2.199,0c-0.205-0.547-0.216-0.878,0.448-0.859
				c0.831,0.021,1.662,0.004,2.474,0.004c0.371,1.473-0.328,2.84-1.678,3.393c-1.597,0.654-3.432,0.037-4.282-1.439
				c-0.835-1.453-0.416-3.41,0.895-4.43c1.244-0.969,3.548-0.802,4.346,0.37c-0.141,0.158-0.293,0.328-0.431,0.484
				c-2.185-1.183-3.805-0.912-4.334,1.734c-0.247,1.233,0.803,2.439,2.036,2.631C33.402,11.908,34.371,11.284,34.779,9.809z"/>
			<path fill="#FFFFFF" d="M36.626,12.358c0-2.133,0-4.213,0-6.345c1.249,0,2.457,0,3.661,0c0.212,0.564,0.07,0.813-0.53,0.791
				c-0.738-0.025-1.477-0.006-2.258-0.006c0,0.686,0,1.273,0,1.964c0.805,0,1.625,0,2.421,0c0.108,0.609,0.108,0.609-2.403,0.932
				c0,0.569,0,1.15,0,1.893c0.746,0,1.507-0.04,2.26,0.023c0.248,0.02,0.47,0.303,0.705,0.464c-0.048,0.094-0.098,0.189-0.146,0.283
				C39.126,12.358,37.918,12.358,36.626,12.358z"/>
			<path fill="#FFFFFF" d="M51.684,6.816c-0.624,0-1.149,0-1.715,0c-0.127-0.495-0.248-0.87,0.452-0.86
				c1.25,0.016,2.501,0.005,3.736,0.005c0.185,0.673,0.185,0.673-1.621,0.94c0,1.585-0.016,3.188,0.008,4.789
				c0.008,0.568-0.113,0.889-0.86,0.646C51.684,10.554,51.684,8.721,51.684,6.816z"/>
			<path fill="#FFFFFF" d="M42.836,6.926c-1.741-0.341-1.741-0.341-1.721-0.962c1.296,0,2.602-0.014,3.905,0.019
				c0.148,0.003,0.292,0.265,0.438,0.407c-0.154,0.134-0.292,0.363-0.46,0.386c-0.403,0.058-0.818,0.019-1.322,0.019
				c0,1.703-0.015,3.308,0.009,4.914c0.008,0.582-0.16,0.834-0.848,0.623C42.836,10.519,42.836,8.712,42.836,6.926z"/>
			<path fill="#FFFFFF" d="M48.312,6.009c0.302,0,0.531,0,0.798,0c0,2.121,0,4.197,0,6.349c-0.244,0.022-0.492,0.046-0.798,0.076
				C48.312,10.273,48.312,8.172,48.312,6.009z"/>
			<path fill="#010101" d="M67.381,27.108c0.02-1.632,1.207-2.893,2.698-2.86c1.415,0.03,2.529,1.353,2.493,2.955
				c-0.039,1.597-1.137,2.81-2.54,2.81C68.531,30.013,67.363,28.737,67.381,27.108z"/>
			<path fill="#010101" d="M95.56,24.252c0-1.443,0-2.836,0-4.302c1.103,0,2.174-0.079,3.23,0.021
				c1.007,0.094,1.809,1.153,1.798,2.153c-0.01,0.985-0.753,1.998-1.74,2.102C97.792,24.332,96.717,24.252,95.56,24.252z"/>
			<path fill="#010101" d="M113.14,27.118c0.087,0.006,0.184-0.01,0.263,0.019c0.567,0.205,1.126,0.417,1.688,0.629
				c-0.347,0.565-0.598,1.236-1.065,1.67c-0.669,0.62-1.568,0.773-2.415,0.341c-0.349-0.178-0.774-0.6-0.799-0.937
				c-0.028-0.392,0.246-0.959,0.573-1.181c0.488-0.339,1.137-0.446,1.716-0.65C113.111,27.048,113.124,27.082,113.14,27.118z"/>
			<path fill="#010101" d="M51.489,27.137c0,1.616-1.176,2.884-2.677,2.882c-1.492-0.006-2.687-1.294-2.68-2.898
				c0.009-1.613,1.19-2.874,2.692-2.872C50.333,24.252,51.488,25.499,51.489,27.137z"/>
			<path fill="#010101" d="M56.609,27.137c-0.002-1.627,1.164-2.885,2.676-2.889c1.503-0.002,2.689,1.259,2.7,2.872
				c0.012,1.601-1.185,2.887-2.687,2.898C57.805,30.029,56.609,28.749,56.609,27.137z"/>
			<path fill="#010101" d="M85.741,25.204c-1.409,0.582-2.739,1.129-4.105,1.692c-0.013-1.309,0.621-2.213,1.739-2.574
				C84.311,24.018,85.105,24.29,85.741,25.204z"/>
			<path fill="#010101" d="M62.53,9.229c-0.013,1.471-1.067,2.547-2.464,2.514c-1.385-0.033-2.417-1.168-2.379-2.617
				c0.037-1.398,1.104-2.48,2.437-2.476C61.511,6.656,62.544,7.763,62.53,9.229z"/>
		</g>
	</g>
</g>
</svg>
