<?xml version="1.0" encoding="utf-8"?>
<!-- Generator: Adobe Illustrator 16.0.0, SVG Export Plug-In . SVG Version: 6.00 Build 0)  -->
<!DOCTYPE svg PUBLIC "-//W3C//DTD SVG 1.1//EN" "http://www.w3.org/Graphics/SVG/1.1/DTD/svg11.dtd">
<svg version="1.1" id="Untitled-Page_x25_201" xmlns="http://www.w3.org/2000/svg" xmlns:xlink="http://www.w3.org/1999/xlink"
	 x="0px" y="0px" width="135px" height="40px" viewBox="0 0 135 40" enable-background="new 0 0 135 40" xml:space="preserve">
<path fill="none" d="z"/>
<path fill="none" d="z"/>
<g>
	<rect width="135" height="40"/>
	<g>
		<path fill="#FFFFFF" d="M30.128,19.784c-0.029-3.223,2.639-4.791,2.761-4.864c-1.511-2.203-3.853-2.504-4.676-2.528
			c-1.967-0.207-3.875,1.177-4.877,1.177c-1.022,0-2.565-1.157-4.228-1.123c-2.14,0.033-4.142,1.272-5.24,3.196
			c-2.266,3.923-0.576,9.688,1.595,12.859c1.086,1.554,2.355,3.287,4.016,3.226c1.625-0.065,2.232-1.035,4.193-1.035
			c1.943,0,2.513,1.035,4.207,0.996c1.744-0.026,2.842-1.56,3.89-3.127c1.255-1.778,1.759-3.533,1.779-3.623
			C33.507,24.924,30.161,23.646,30.128,19.784L30.128,19.784z"/>
		<path fill="#FFFFFF" d="M26.928,10.306c0.874-1.093,1.472-2.58,1.306-4.089c-1.265,0.056-2.847,0.875-3.758,1.944
			c-0.806,0.942-1.526,2.486-1.34,3.938C24.557,12.205,26.016,11.382,26.928,10.306L26.928,10.306z"/>
	</g>
	<g>
		<path fill="#FFFFFF" d="M43.842,31.711h-1.944V18.949h1.944V31.711z"/>
		<path fill="#FFFFFF" d="M48.918,19.255c-0.517,1.812-1.128,3.3-1.836,4.464l-1.206,0.127c0.527-1.441,0.906-2.91,1.134-4.41
			L48.918,19.255z"/>
		<path fill="#FFFFFF" d="M58.441,31.711h-2.07l-1.135-3.563h-3.941l-1.08,3.563h-2.016l3.906-12.132h2.412L58.441,31.711z
			 M54.894,26.652l-1.025-3.168c-0.108-0.323-0.313-1.086-0.612-2.286H53.22c-0.119,0.516-0.312,1.278-0.576,2.286l-1.008,3.168
			H54.894z"/>
		<path fill="#FFFFFF" d="M68.484,27.229c0,1.487-0.402,2.664-1.208,3.527c-0.721,0.77-1.614,1.152-2.683,1.152
			c-1.151,0-1.979-0.414-2.483-1.242h-0.036v4.607H60.13v-9.433c0-0.937-0.023-1.896-0.072-2.88h1.711l0.107,1.387h0.036
			c0.647-1.045,1.632-1.565,2.952-1.565c1.031,0,1.893,0.407,2.582,1.224C68.139,24.823,68.484,25.896,68.484,27.229z
			 M66.503,27.301c0-0.852-0.191-1.554-0.576-2.105c-0.42-0.575-0.984-0.863-1.691-0.863c-0.48,0-0.916,0.159-1.305,0.479
			c-0.391,0.316-0.646,0.733-0.766,1.25c-0.061,0.239-0.09,0.438-0.09,0.594v1.457c0,0.638,0.195,1.175,0.585,1.611
			c0.39,0.438,0.897,0.657,1.521,0.657c0.732,0,1.303-0.282,1.711-0.846C66.299,28.969,66.503,28.227,66.503,27.301z"/>
		<path fill="#FFFFFF" d="M78.547,27.229c0,1.487-0.402,2.664-1.207,3.527c-0.719,0.77-1.613,1.152-2.682,1.152
			c-1.152,0-1.98-0.414-2.484-1.242h-0.035v4.607h-1.945v-9.433c0-0.937-0.023-1.896-0.07-2.88h1.709l0.107,1.387h0.037
			c0.648-1.045,1.631-1.565,2.951-1.565c1.033,0,1.893,0.407,2.584,1.224C78.201,24.823,78.547,25.896,78.547,27.229z
			 M76.566,27.301c0-0.852-0.191-1.554-0.576-2.105c-0.42-0.575-0.984-0.863-1.691-0.863c-0.48,0-0.916,0.159-1.305,0.479
			c-0.391,0.316-0.646,0.733-0.766,1.25c-0.063,0.239-0.09,0.438-0.09,0.594v1.457c0,0.638,0.193,1.175,0.584,1.611
			c0.391,0.438,0.896,0.657,1.52,0.657c0.732,0,1.303-0.282,1.711-0.846C76.361,28.969,76.566,28.227,76.566,27.301z"/>
		<path fill="#FFFFFF" d="M89.795,28.311c0,1.03-0.359,1.871-1.076,2.52c-0.791,0.708-1.893,1.063-3.305,1.063
			c-1.307,0-2.354-0.252-3.145-0.756l0.447-1.621c0.854,0.518,1.789,0.774,2.811,0.774c0.73,0,1.303-0.165,1.711-0.496
			c0.408-0.33,0.613-0.772,0.613-1.325c0-0.492-0.168-0.906-0.504-1.244c-0.338-0.336-0.896-0.648-1.676-0.938
			c-2.125-0.793-3.188-1.953-3.188-3.479c0-0.998,0.373-1.815,1.117-2.453c0.744-0.637,1.734-0.955,2.971-0.955
			c1.104,0,2.021,0.191,2.754,0.576l-0.486,1.582c-0.684-0.371-1.459-0.558-2.32-0.558c-0.686,0-1.221,0.168-1.604,0.504
			c-0.324,0.3-0.484,0.666-0.484,1.099c0,0.479,0.186,0.875,0.559,1.188c0.322,0.288,0.91,0.601,1.764,0.937
			c1.043,0.42,1.811,0.912,2.303,1.477S89.795,27.469,89.795,28.311z"/>
		<path fill="#FFFFFF" d="M96.221,24.421H94.08v4.248c0,1.08,0.377,1.62,1.133,1.62c0.348,0,0.637-0.029,0.865-0.09l0.053,1.477
			c-0.383,0.145-0.887,0.215-1.512,0.215c-0.768,0-1.367-0.232-1.799-0.701c-0.436-0.469-0.648-1.254-0.648-2.357v-4.41h-1.279
			v-1.458h1.279v-1.603l1.908-0.575v2.178h2.141V24.421L96.221,24.421z"/>
		<path fill="#FFFFFF" d="M105.887,27.266c0,1.344-0.385,2.447-1.152,3.313c-0.805,0.888-1.871,1.332-3.203,1.332
			c-1.285,0-2.309-0.426-3.07-1.278s-1.143-1.926-1.143-3.222c0-1.355,0.393-2.467,1.18-3.33c0.785-0.864,1.844-1.296,3.176-1.296
			c1.285,0,2.316,0.426,3.098,1.276C105.514,24.889,105.887,25.957,105.887,27.266z M103.871,27.328
			c0-0.807-0.174-1.498-0.523-2.076c-0.408-0.697-0.988-1.047-1.746-1.047c-0.779,0-1.373,0.35-1.781,1.047
			c-0.348,0.578-0.521,1.281-0.521,2.111c0,0.808,0.176,1.498,0.521,2.076c0.42,0.697,1.008,1.047,1.764,1.047
			c0.744,0,1.326-0.354,1.746-1.064C103.689,28.832,103.871,28.135,103.871,27.328z"/>
		<path fill="#FFFFFF" d="M112.203,24.673c-0.191-0.036-0.395-0.054-0.611-0.054c-0.684,0-1.213,0.258-1.584,0.773
			c-0.324,0.457-0.486,1.032-0.486,1.729v4.59h-1.943l0.02-5.994c0-1.008-0.023-1.926-0.072-2.754h1.691l0.07,1.674h0.055
			c0.205-0.576,0.527-1.037,0.975-1.386c0.432-0.312,0.898-0.468,1.402-0.468c0.182,0,0.344,0.012,0.484,0.035V24.673
			L112.203,24.673z"/>
		<path fill="#FFFFFF" d="M120.898,26.923c0,0.349-0.025,0.642-0.072,0.882h-5.832c0.023,0.864,0.307,1.524,0.846,1.98
			c0.492,0.408,1.129,0.611,1.908,0.611c0.863,0,1.65-0.139,2.357-0.414l0.307,1.351c-0.828,0.36-1.807,0.54-2.934,0.54
			c-1.357,0-2.422-0.398-3.195-1.197c-0.773-0.798-1.16-1.869-1.16-3.213c0-1.32,0.359-2.418,1.078-3.294
			c0.758-0.937,1.777-1.403,3.061-1.403c1.26,0,2.215,0.467,2.863,1.403C120.641,24.913,120.898,25.831,120.898,26.923z
			 M119.045,26.419c0.012-0.575-0.115-1.073-0.379-1.494c-0.336-0.54-0.852-0.81-1.549-0.81c-0.635,0-1.15,0.264-1.547,0.791
			c-0.324,0.421-0.516,0.925-0.576,1.513H119.045z"/>
	</g>
	<g>
		<g>
			<path fill="#FFFFFF" d="M46.507,7.984h-1.872v5.656h-1.048V7.984h-1.861V7.104h4.781V7.984z"/>
			<path fill="#FFFFFF" d="M51.648,11.061c0,0.188-0.014,0.346-0.039,0.475h-3.143c0.014,0.466,0.164,0.82,0.455,1.066
				c0.266,0.221,0.607,0.33,1.028,0.33c0.466,0,0.89-0.074,1.271-0.223l0.164,0.729c-0.445,0.193-0.973,0.291-1.581,0.291
				c-0.729,0-1.305-0.215-1.722-0.646s-0.625-1.007-0.625-1.731c0-0.711,0.193-1.303,0.582-1.774
				c0.406-0.504,0.956-0.757,1.648-0.757c0.679,0,1.192,0.253,1.541,0.757C51.508,9.977,51.648,10.473,51.648,11.061z
				 M50.648,10.789c0.008-0.311-0.062-0.579-0.203-0.805c-0.182-0.291-0.459-0.438-0.834-0.438c-0.342,0-0.62,0.143-0.834,0.428
				c-0.174,0.227-0.277,0.498-0.311,0.814H50.648z M51.077,6.947l-1.175,1.406h-0.728l0.845-1.406H51.077z"/>
			<path fill="#FFFFFF" d="M54.217,13.641h-1.048V6.764h1.048V13.641z"/>
			<path fill="#FFFFFF" d="M59.96,11.061c0,0.188-0.014,0.346-0.039,0.475h-3.143c0.013,0.466,0.164,0.82,0.455,1.066
				c0.266,0.221,0.607,0.33,1.027,0.33c0.467,0,0.891-0.074,1.271-0.223l0.164,0.729c-0.446,0.193-0.973,0.291-1.581,0.291
				c-0.73,0-1.306-0.215-1.722-0.646c-0.418-0.431-0.625-1.007-0.625-1.731c0-0.711,0.192-1.303,0.582-1.774
				c0.406-0.504,0.955-0.757,1.647-0.757c0.679,0,1.192,0.253,1.542,0.757C59.822,9.977,59.96,10.473,59.96,11.061z M58.96,10.789
				c0.007-0.311-0.063-0.579-0.203-0.805c-0.182-0.291-0.459-0.438-0.834-0.438c-0.343,0-0.621,0.143-0.835,0.428
				c-0.174,0.227-0.276,0.498-0.31,0.814H58.96z M59.388,6.947l-1.174,1.406h-0.727l0.844-1.406H59.388z"/>
			<path fill="#FFFFFF" d="M64.849,9.053l-0.203,0.795c-0.267-0.129-0.569-0.195-0.912-0.195c-0.459,0-0.823,0.154-1.092,0.462
				c-0.269,0.307-0.402,0.696-0.402,1.169c0,0.498,0.141,0.892,0.422,1.183s0.639,0.437,1.072,0.437c0.322,0,0.64-0.063,0.949-0.193
				l0.146,0.786c-0.344,0.162-0.775,0.243-1.301,0.243c-0.717,0-1.289-0.219-1.717-0.655c-0.427-0.437-0.64-1.021-0.64-1.751
				s0.229-1.331,0.688-1.799c0.459-0.469,1.076-0.703,1.853-0.703C64.154,8.829,64.533,8.902,64.849,9.053z"/>
			<path fill="#FFFFFF" d="M70.377,13.641H69.33V10.96c0-0.845-0.316-1.269-0.951-1.269c-0.485,0-0.819,0.246-1,0.736
				c-0.032,0.102-0.049,0.229-0.049,0.377v2.834h-1.048V6.764h1.048v2.84h0.021c0.33-0.517,0.801-0.774,1.417-0.774
				c0.434,0,0.791,0.142,1.076,0.427c0.355,0.355,0.533,0.883,0.533,1.581V13.641z"/>
			<path fill="#FFFFFF" d="M75.752,13.641h-0.941l-0.078-0.543h-0.029c-0.322,0.432-0.781,0.649-1.377,0.649
				c-0.445,0-0.805-0.144-1.076-0.427c-0.246-0.258-0.369-0.579-0.369-0.961c0-0.575,0.24-1.014,0.725-1.318
				c0.48-0.305,1.16-0.453,2.033-0.445v-0.089c0-0.62-0.326-0.931-0.98-0.931c-0.465,0-0.875,0.117-1.229,0.349l-0.213-0.688
				c0.438-0.271,0.979-0.406,1.617-0.406c1.232,0,1.85,0.65,1.85,1.949v1.736C75.684,12.986,75.707,13.361,75.752,13.641z
				 M74.664,12.02v-0.727c-1.156-0.02-1.734,0.297-1.734,0.95c0,0.246,0.066,0.43,0.201,0.553s0.307,0.185,0.512,0.185
				c0.23,0,0.445-0.073,0.641-0.219c0.197-0.146,0.318-0.33,0.363-0.558C74.658,12.152,74.664,12.091,74.664,12.02z"/>
			<path fill="#FFFFFF" d="M80.01,9.848c-0.104-0.02-0.213-0.029-0.33-0.029c-0.367,0-0.652,0.14-0.854,0.418
				c-0.174,0.246-0.262,0.556-0.262,0.931v2.474h-1.047l0.01-3.229c0-0.543-0.014-1.038-0.039-1.483H78.4l0.039,0.901h0.029
				c0.109-0.312,0.283-0.56,0.523-0.747c0.232-0.168,0.484-0.252,0.756-0.252c0.098,0,0.186,0.006,0.262,0.02V9.848z"/>
			<path fill="#FFFFFF" d="M85.48,8.926c-0.025,0.383-0.039,0.828-0.039,1.34v2.695c0,1.016-0.229,1.727-0.678,2.135
				c-0.414,0.375-0.996,0.562-1.746,0.562c-0.654,0-1.184-0.123-1.582-0.369l0.24-0.806c0.396,0.24,0.844,0.359,1.342,0.359
				c0.924,0,1.387-0.498,1.387-1.494v-0.455h-0.021c-0.291,0.479-0.754,0.717-1.387,0.717c-0.57,0-1.039-0.215-1.406-0.649
				c-0.367-0.433-0.553-0.983-0.553-1.649c0-0.756,0.213-1.367,0.639-1.832c0.396-0.434,0.877-0.65,1.445-0.65
				c0.641,0,1.102,0.249,1.379,0.747h0.02l0.039-0.65L85.48,8.926L85.48,8.926z M84.395,11.623v-0.834
				c0-0.316-0.1-0.588-0.297-0.814c-0.199-0.228-0.459-0.34-0.785-0.34c-0.357,0-0.65,0.148-0.881,0.446s-0.346,0.694-0.346,1.192
				c0,0.453,0.107,0.818,0.322,1.097c0.219,0.304,0.52,0.456,0.904,0.456c0.232,0,0.441-0.069,0.629-0.208
				c0.186-0.14,0.314-0.328,0.395-0.567C84.375,11.934,84.395,11.79,84.395,11.623z"/>
			<path fill="#FFFFFF" d="M91.184,11.061c0,0.188-0.014,0.346-0.039,0.475h-3.143c0.014,0.466,0.164,0.82,0.455,1.066
				c0.266,0.221,0.609,0.33,1.029,0.33c0.465,0,0.889-0.074,1.27-0.223l0.164,0.729c-0.445,0.193-0.973,0.291-1.582,0.291
				c-0.729,0-1.305-0.215-1.721-0.646c-0.418-0.431-0.625-1.007-0.625-1.731c0-0.711,0.193-1.303,0.582-1.774
				c0.406-0.504,0.955-0.757,1.648-0.757c0.678,0,1.193,0.253,1.541,0.757C91.045,9.977,91.184,10.473,91.184,11.061z
				 M90.184,10.789c0.008-0.311-0.061-0.579-0.203-0.805c-0.182-0.291-0.459-0.438-0.834-0.438c-0.342,0-0.621,0.143-0.834,0.428
				c-0.174,0.227-0.277,0.498-0.311,0.814H90.184z"/>
			<path fill="#FFFFFF" d="M95.199,9.848c-0.105-0.02-0.213-0.029-0.33-0.029c-0.369,0-0.652,0.14-0.854,0.418
				c-0.176,0.246-0.264,0.556-0.264,0.931v2.474h-1.049l0.01-3.229c0-0.543-0.012-1.038-0.037-1.483h0.91l0.039,0.901h0.029
				c0.109-0.312,0.285-0.56,0.523-0.747c0.234-0.168,0.486-0.252,0.758-0.252c0.096,0,0.184,0.006,0.262,0.02v0.998H95.199z"/>
			<path fill="#FFFFFF" d="M103.561,13.641h-0.932l-0.049-0.758h-0.029c-0.297,0.576-0.801,0.864-1.512,0.864
				c-0.57,0-1.041-0.224-1.416-0.669c-0.375-0.446-0.563-1.025-0.563-1.736c0-0.763,0.203-1.381,0.609-1.853
				c0.395-0.44,0.881-0.66,1.455-0.66c0.635,0,1.078,0.213,1.33,0.64h0.02V6.764h1.047v5.606
				C103.521,12.829,103.535,13.252,103.561,13.641z M102.475,11.652v-0.786c0-0.136-0.01-0.246-0.029-0.33
				c-0.059-0.252-0.186-0.464-0.381-0.636c-0.195-0.17-0.428-0.256-0.701-0.256c-0.389,0-0.695,0.154-0.92,0.465
				c-0.225,0.312-0.336,0.709-0.336,1.193c0,0.467,0.107,0.844,0.322,1.135c0.227,0.311,0.531,0.465,0.914,0.465
				c0.344,0,0.621-0.129,0.828-0.387C102.373,12.275,102.475,11.988,102.475,11.652z"/>
			<path fill="#FFFFFF" d="M108.914,13.641h-0.941l-0.076-0.543h-0.029c-0.324,0.432-0.783,0.649-1.377,0.649
				c-0.447,0-0.807-0.144-1.078-0.427c-0.246-0.258-0.367-0.579-0.367-0.961c0-0.575,0.24-1.014,0.725-1.318
				c0.479-0.305,1.156-0.453,2.029-0.445v-0.089c0-0.62-0.324-0.931-0.977-0.931c-0.465,0-0.875,0.117-1.23,0.349l-0.213-0.688
				c0.439-0.271,0.98-0.406,1.617-0.406c1.234,0,1.852,0.65,1.852,1.949v1.736C108.846,12.986,108.869,13.361,108.914,13.641z
				 M107.828,12.02v-0.727c-1.158-0.02-1.736,0.297-1.736,0.95c0,0.246,0.068,0.43,0.203,0.553s0.305,0.185,0.51,0.185
				c0.232,0,0.445-0.073,0.643-0.219c0.195-0.146,0.316-0.33,0.361-0.558C107.822,12.152,107.828,12.091,107.828,12.02z"/>
			<path fill="#FFFFFF" d="M114.773,13.641h-1.049v-2.701c0-0.832-0.316-1.248-0.949-1.248c-0.313,0-0.563,0.115-0.758,0.344
				c-0.193,0.229-0.291,0.499-0.291,0.809v2.795h-1.047v-3.365c0-0.414-0.016-0.863-0.039-1.35h0.922l0.049,0.737h0.029
				c0.119-0.229,0.303-0.418,0.543-0.569c0.281-0.176,0.602-0.265,0.947-0.265c0.441,0,0.809,0.142,1.1,0.427
				c0.359,0.35,0.543,0.87,0.543,1.563V13.641L114.773,13.641z"/>
			<path fill="#FFFFFF" d="M119.498,12.286c0,0.438-0.162,0.79-0.484,1.055c-0.324,0.265-0.77,0.397-1.34,0.397
				c-0.537,0-0.992-0.107-1.367-0.32l0.223-0.775c0.363,0.219,0.748,0.33,1.154,0.33c0.537,0,0.805-0.197,0.805-0.593
				c0-0.174-0.057-0.317-0.174-0.432c-0.117-0.113-0.324-0.226-0.621-0.334c-0.84-0.312-1.26-0.763-1.26-1.358
				c0-0.406,0.154-0.746,0.465-1.02c0.311-0.271,0.721-0.406,1.232-0.406c0.465,0,0.863,0.096,1.193,0.285L119.1,9.868
				c-0.305-0.181-0.623-0.271-0.959-0.271c-0.223,0-0.395,0.051-0.518,0.154c-0.121,0.104-0.184,0.234-0.184,0.396
				s0.064,0.293,0.193,0.396c0.111,0.098,0.324,0.203,0.641,0.319C119.09,11.173,119.498,11.646,119.498,12.286z"/>
		</g>
	</g>
</g>
</svg>
