<?xml version="1.0" encoding="UTF-8"?>
<svg width="135px" height="40px" viewBox="0 0 135 40" version="1.1" xmlns="http://www.w3.org/2000/svg" xmlns:xlink="http://www.w3.org/1999/xlink">
    <!-- Generator: Sketch 44.1 (41455) - http://www.bohemiancoding.com/sketch -->
    <title>btn-microsoft-de</title>
    <desc>Created with Sketch.</desc>
    <defs></defs>
    <g id="Page-1" stroke="none" stroke-width="1" fill="none" fill-rule="evenodd">
        <g id="btn-microsoft-de">
            <rect id="Rectangle-path" fill="#000000" fill-rule="nonzero" x="0" y="0" width="135" height="40"></rect>
            <g id="Layer_1" transform="translate(12.000000, 8.000000)">
                <path d="M43.3757493,13.1062176 C43.3757493,12.7823834 43.4910082,12.5233161 43.7215259,12.3031088 C43.9520436,12.0829016 44.2209809,11.9792746 44.5411444,11.9792746 C44.8741144,11.9792746 45.1558583,12.0958549 45.386376,12.3160622 C45.6040872,12.5362694 45.719346,12.8082902 45.719346,13.119171 C45.719346,13.4300518 45.6040872,13.7020725 45.3735695,13.9093264 C45.1430518,14.1295337 44.8741144,14.2331606 44.5411444,14.2331606 C44.2081744,14.2331606 43.9392371,14.1295337 43.7087193,13.9093264 C43.4910082,13.6761658 43.3757493,13.4170984 43.3757493,13.1062176 L43.3757493,13.1062176 Z M45.4888283,23.7150259 L43.5678474,23.7150259 L43.5678474,15.4766839 L45.4888283,15.4766839 L45.4888283,23.7150259 Z" id="Shape" fill="#FFFFFF" fill-rule="nonzero"></path>
                <path d="M51.3029973,22.3031088 C51.5847411,22.3031088 51.9049046,22.238342 52.2506812,22.1088083 C52.5964578,21.9792746 52.9038147,21.7979275 53.1983651,21.5777202 L53.1983651,23.3782383 C52.8910082,23.5595855 52.5452316,23.6891192 52.1610354,23.7797927 C51.7768392,23.8704663 51.3414169,23.9222798 50.8803815,23.9222798 C49.6765668,23.9222798 48.7032698,23.5336788 47.9604905,22.7694301 C47.2049046,22.0051813 46.833515,21.0207254 46.833515,19.8290155 C46.833515,18.507772 47.2177112,17.4196891 47.9861035,16.5518135 C48.7544959,15.6968912 49.8302452,15.2694301 51.2389646,15.2694301 C51.5975477,15.2694301 51.9561308,15.3212435 52.3275204,15.4119171 C52.6989101,15.5025907 52.980654,15.619171 53.1983651,15.7357513 L53.1983651,17.5880829 C52.9038147,17.3678756 52.5964578,17.1994819 52.2891008,17.0829016 C51.9817439,16.9663212 51.6615804,16.9015544 51.3414169,16.9015544 C50.5858311,16.9015544 49.9711172,17.1476684 49.5100817,17.6398964 C49.0490463,18.1321244 48.8185286,18.8056995 48.8185286,19.6476684 C48.8185286,20.4766839 49.0362398,21.1243523 49.4844687,21.5906736 C49.9326975,22.0829016 50.5346049,22.3031088 51.3029973,22.3031088" id="Shape" fill="#FFFFFF" fill-rule="nonzero"></path>
                <path d="M58.6411444,15.3471503 C58.7948229,15.3471503 58.9356948,15.3601036 59.0509537,15.373057 C59.1790191,15.3989637 59.2814714,15.4248705 59.3583106,15.4507772 L59.3583106,17.4067358 C59.2558583,17.3290155 59.1149864,17.2642487 58.9228883,17.1994819 C58.7307902,17.134715 58.5002725,17.0958549 58.2185286,17.0958549 C57.7446866,17.0958549 57.3476839,17.2901554 57.0275204,17.6917098 C56.7073569,18.0932642 56.5408719,18.7150259 56.5408719,19.5440415 L56.5408719,23.7020725 L54.619891,23.7020725 L54.619891,15.4637306 L56.5408719,15.4637306 L56.5408719,16.7590674 L56.566485,16.7590674 C56.7457766,16.3056995 57.0019074,15.9559585 57.3604905,15.7098446 C57.7318801,15.4766839 58.1544959,15.3471503 58.6411444,15.3471503" id="Shape" fill="#FFFFFF" fill-rule="nonzero"></path>
                <path d="M59.4735695,19.7253886 C59.4735695,18.365285 59.8577657,17.2901554 60.6133515,16.4870466 C61.3689373,15.6968912 62.4318801,15.2953368 63.7765668,15.2953368 C65.0444142,15.2953368 66.0433243,15.6839378 66.7604905,16.4481865 C67.4776567,17.2124352 67.8362398,18.2487047 67.8362398,19.5569948 C67.8362398,20.8911917 67.4520436,21.9533679 66.6964578,22.7435233 C65.9408719,23.5336788 64.9035422,23.9352332 63.5972752,23.9352332 C62.3294278,23.9352332 61.3305177,23.5595855 60.5877384,22.8082902 C59.8449591,22.0440415 59.4735695,21.0207254 59.4735695,19.7253886 M61.4713896,19.6606218 C61.4713896,20.515544 61.6634877,21.1761658 62.0476839,21.6295337 C62.4318801,22.0829016 62.9825613,22.3160622 63.6997275,22.3160622 C64.3912807,22.3160622 64.9291553,22.0958549 65.2877384,21.6295337 C65.6463215,21.1761658 65.8384196,20.5025907 65.8384196,19.6088083 C65.8384196,18.7279793 65.6463215,18.0544041 65.2749319,17.6010363 C64.9035422,17.1476684 64.3656676,16.9274611 63.686921,16.9274611 C62.9825613,16.9274611 62.4446866,17.1606218 62.0476839,17.6398964 C61.6634877,18.1062176 61.4713896,18.7797927 61.4713896,19.6606218" id="Shape" fill="#FFFFFF" fill-rule="nonzero"></path>
                <path d="M70.6792916,17.6528497 C70.6792916,17.9248705 70.7689373,18.1450777 70.9354223,18.3005181 C71.1147139,18.4559585 71.4989101,18.6502591 72.0880109,18.8963731 C72.8564033,19.2072539 73.3942779,19.5569948 73.7016349,19.9455959 C74.0089918,20.3341969 74.1626703,20.8005181 74.1626703,21.357513 C74.1626703,22.134715 73.8681199,22.7564767 73.2790191,23.2227979 C72.6899183,23.6891192 71.8959128,23.9222798 70.8970027,23.9222798 C70.5640327,23.9222798 70.1798365,23.8834197 69.7828338,23.7927461 C69.3730245,23.7150259 69.027248,23.5984456 68.7455041,23.4818653 L68.7455041,21.5777202 C69.0912807,21.8238342 69.4626703,22.0181347 69.8724796,22.1606218 C70.2694823,22.3031088 70.6408719,22.380829 70.9610354,22.380829 C71.3964578,22.380829 71.7166213,22.3160622 71.9215259,22.1994819 C72.1264305,22.0699482 72.2288828,21.8756477 72.2288828,21.5777202 C72.2288828,21.3056995 72.1264305,21.0854922 71.9087193,20.9041451 C71.6910082,20.7227979 71.2940054,20.5025907 70.6920981,20.2694301 C69.9877384,19.9715026 69.4882834,19.634715 69.193733,19.2590674 C68.8991826,18.8834197 68.7455041,18.4041451 68.7455041,17.8341969 C68.7455041,17.0958549 69.0400545,16.4870466 69.6163488,16.007772 C70.1926431,15.5284974 70.9610354,15.2953368 71.8831063,15.2953368 C72.1648501,15.2953368 72.4850136,15.3212435 72.8435967,15.3860104 C73.2021798,15.4507772 73.4967302,15.5284974 73.727248,15.6321244 L73.727248,17.4715026 C73.4711172,17.3031088 73.1765668,17.1606218 72.8435967,17.0310881 C72.5106267,16.9015544 72.1648501,16.8497409 71.8318801,16.8497409 C71.473297,16.8497409 71.1787466,16.9274611 70.9866485,17.0699482 C70.7817439,17.1994819 70.6792916,17.3937824 70.6792916,17.6528497" id="Shape" fill="#FFFFFF" fill-rule="nonzero"></path>
                <path d="M75.0207084,19.7253886 C75.0207084,18.365285 75.4049046,17.2901554 76.1604905,16.4870466 C76.9160763,15.6968912 77.9790191,15.2953368 79.3237057,15.2953368 C80.5915531,15.2953368 81.5904632,15.6839378 82.3076294,16.4481865 C83.0247956,17.2124352 83.3833787,18.2487047 83.3833787,19.5569948 C83.3833787,20.8911917 82.9991826,21.9533679 82.2435967,22.7435233 C81.4880109,23.5336788 80.4506812,23.9352332 79.1444142,23.9352332 C77.8765668,23.9352332 76.8776567,23.5595855 76.1348774,22.8082902 C75.3920981,22.0440415 75.0207084,21.0207254 75.0207084,19.7253886 M77.0057221,19.6606218 C77.0057221,20.515544 77.1978202,21.1761658 77.5820163,21.6295337 C77.9662125,22.0829016 78.5168937,22.3160622 79.2340599,22.3160622 C79.9256131,22.3160622 80.4634877,22.0958549 80.8220708,21.6295337 C81.180654,21.1761658 81.372752,20.5025907 81.372752,19.6088083 C81.372752,18.7279793 81.180654,18.0544041 80.8092643,17.6010363 C80.4378747,17.1476684 79.9,16.9274611 79.2212534,16.9274611 C78.5168937,16.9274611 77.9790191,17.1606218 77.5820163,17.6398964 C77.2106267,18.1062176 77.0057221,18.7797927 77.0057221,19.6606218" id="Shape" fill="#FFFFFF" fill-rule="nonzero"></path>
                <path d="M89.7226158,17.0699482 L89.7226158,21.2927461 C89.7226158,22.1735751 89.9275204,22.8212435 90.3245232,23.261658 C90.7343324,23.7020725 91.3362398,23.9093264 92.1430518,23.9093264 C92.4119891,23.9093264 92.693733,23.8834197 92.9754768,23.8186528 C93.2572207,23.7668394 93.4621253,23.7020725 93.5773842,23.6243523 L93.5773842,22.0181347 C93.4621253,22.0958549 93.3212534,22.1606218 93.1675749,22.2124352 C93.0138965,22.2642487 92.8730245,22.2901554 92.7705722,22.2901554 C92.386376,22.2901554 92.0918256,22.1865285 91.9125341,21.9792746 C91.7332425,21.7720207 91.6435967,21.4093264 91.6435967,20.9041451 L91.6435967,17.0569948 L93.5901907,17.0569948 L93.5901907,15.4766839 L91.6435967,15.4766839 L91.6435967,13.0284974 L89.7226158,13.6243523 L89.7226158,15.4766839 L86.8667575,15.4766839 L86.8667575,14.4792746 C86.8667575,13.9870466 86.9820163,13.611399 87.186921,13.3523316 C87.4046322,13.0932642 87.7119891,12.9766839 88.1089918,12.9766839 C88.3138965,12.9766839 88.493188,13.0025907 88.659673,13.0544041 C88.8133515,13.1062176 88.9286104,13.1580311 88.9926431,13.1968912 L88.9926431,11.5259067 C88.8517711,11.4740933 88.6980926,11.4481865 88.5188011,11.4222798 C88.3395095,11.3963731 88.1346049,11.3834197 87.9040872,11.3834197 C87.0332425,11.3834197 86.3160763,11.6554404 85.7653951,12.2124352 C85.2147139,12.7694301 84.93297,13.4689119 84.93297,14.3367876 L84.93297,15.4766839 L83.5754768,15.4766839 L83.5754768,17.0569948 L84.93297,17.0569948 L84.93297,23.7020725 L86.8667575,23.7020725 L86.8667575,17.0569948 L89.7226158,17.0569948 L89.7226158,17.0699482 Z" id="Shape" fill="#FFFFFF" fill-rule="nonzero"></path>
                <polygon id="Shape" fill="#FFFFFF" fill-rule="nonzero" points="41.7237057 12.2253886 41.7237057 23.7150259 39.7514986 23.7150259 39.7514986 14.7124352 39.7258856 14.7124352 36.1912807 23.7150259 34.8850136 23.7150259 31.2735695 14.7124352 31.2607629 14.7124352 31.2607629 23.7150259 29.4294278 23.7150259 29.4294278 12.2253886 32.259673 12.2253886 35.5253406 20.7487047 35.5765668 20.7487047 39.0215259 12.2253886"></polygon>
                <rect id="Rectangle-path" fill="#F25022" fill-rule="nonzero" x="0.0640326975" y="0.865284974" width="10.7446866" height="10.8678756"></rect>
                <rect id="Rectangle-path" fill="#7FBA00" fill-rule="nonzero" x="11.9228883" y="0.865284974" width="10.7446866" height="10.8678756"></rect>
                <rect id="Rectangle-path" fill="#00A4EF" fill-rule="nonzero" x="0.0640326975" y="12.8601036" width="10.7446866" height="10.8678756"></rect>
                <rect id="Rectangle-path" fill="#FFB900" fill-rule="nonzero" x="11.9228883" y="12.8601036" width="10.7446866" height="10.8678756"></rect>
                <path d="M29.1370696,1.43089881 L29.9157342,1.43089881 L29.9157342,3.78238828 L32.8754343,3.78238828 L32.8754343,1.43089881 L33.6540988,1.43089881 L33.6540988,7.12173575 L32.8754343,7.12173575 L32.8754343,4.46033005 L29.9157342,4.46033005 L29.9157342,7.12173575 L29.1370696,7.12173575 L29.1370696,1.43089881 Z M37.3382281,3.08701372 C37.6145715,3.2251854 37.8250542,3.4040311 37.9696825,3.6235562 C38.1091455,3.83275071 38.2021194,4.07680731 38.2486071,4.35573332 C38.2899294,4.54684929 38.3105903,4.85159721 38.3105903,5.26998622 L35.2695372,5.26998622 C35.2824505,5.69095789 35.3818809,6.02863408 35.5678316,6.28302493 C35.7537823,6.53741578 36.0417432,6.6646093 36.4317231,6.6646093 C36.7958765,6.6646093 37.0864201,6.54451796 37.3033625,6.30433167 C37.4273297,6.16486867 37.5151384,6.00345557 37.5667913,5.82008755 L38.252481,5.82008755 C38.2344025,5.97246379 38.1743568,6.14227037 38.0723422,6.32951237 C37.9703276,6.51675436 37.8560471,6.66977398 37.7294974,6.78857579 C37.5177202,6.99518765 37.2555854,7.13464857 36.9430849,7.20696272 C36.7752128,7.24828509 36.585391,7.26894596 36.3736138,7.26894596 C35.8570842,7.26894596 35.4193319,7.08106112 35.0603438,6.70528581 C34.7013557,6.32951049 34.5218643,5.8033038 34.5218643,5.12664996 C34.5218643,4.46032672 34.702647,3.91927003 35.0642177,3.50346366 C35.4257885,3.0876573 35.898406,2.87975723 36.4820845,2.87975723 C36.7765064,2.87975723 37.0618848,2.94884204 37.3382281,3.08701372 Z M37.593909,4.71601095 C37.5654999,4.4138411 37.4996433,4.17236711 37.3963374,3.99158174 C37.2052214,3.65583747 36.8862692,3.48796785 36.439471,3.48796785 C36.1192226,3.48796785 35.8506313,3.60353963 35.6336888,3.83468664 C35.4167464,4.06583366 35.3018202,4.35960549 35.288907,4.71601095 L37.593909,4.71601095 Z M39.1861037,2.9727321 L39.8485497,2.9727321 L39.8485497,3.68941341 C39.9027853,3.5499504 40.0357897,3.38014383 40.2475668,3.17998859 C40.459344,2.97983335 40.7034006,2.87975723 40.9797439,2.87975723 C40.9926572,2.87975723 41.0146093,2.88104854 41.0456011,2.88363118 C41.0765929,2.88621383 41.1295364,2.89137905 41.2044332,2.899127 L41.2044332,3.63517806 C41.1631108,3.62743012 41.1250173,3.6222649 41.0901516,3.61968225 C41.0552858,3.6170996 41.0171923,3.6158083 40.97587,3.6158083 C40.6246298,3.6158083 40.3547471,3.72879746 40.1662138,3.95477918 C39.9776805,4.18076091 39.8834152,4.44095881 39.8834152,4.73538071 L39.8834152,7.12173575 L39.1861037,7.12173575 L39.1861037,2.9727321 Z M42.5060814,2.9727321 L42.5060814,5.72711268 C42.5060814,5.93888983 42.5396553,6.11192467 42.6068042,6.24622238 C42.7307713,6.49415661 42.9619148,6.61812186 43.3002418,6.61812186 C43.7857796,6.61812186 44.1163536,6.40118267 44.2919737,5.96729776 C44.3875317,5.73485942 44.43531,5.41590715 44.43531,5.01043137 L44.43531,2.9727321 L45.1326215,2.9727321 L45.1326215,7.12173575 L44.4740495,7.12173575 L44.4817974,6.50965118 C44.3914047,6.66719272 44.2790612,6.80019711 44.1447635,6.90866834 C43.8787507,7.12561079 43.5559246,7.23408039 43.1762753,7.23408039 C42.5848488,7.23408039 42.1819617,7.03651076 41.9676019,6.64136558 C41.8513828,6.42958843 41.7932741,6.14679269 41.7932741,5.79296988 L41.7932741,2.9727321 L42.5060814,2.9727321 Z M46.2212023,2.9727321 L46.8836483,2.9727321 L46.8836483,3.56157296 C47.0799295,3.31880402 47.2878296,3.14447788 47.5073547,3.0385893 C47.7268798,2.93270073 47.9709364,2.87975723 48.2395318,2.87975723 C48.8283756,2.87975723 49.2260975,3.08507469 49.4327093,3.49571576 C49.5463459,3.72040615 49.6031633,4.04194104 49.6031633,4.46033005 L49.6031633,7.12173575 L48.8942299,7.12173575 L48.8942299,4.50681749 C48.8942299,4.25371796 48.856782,4.04969181 48.7818852,3.89473291 C48.6579181,3.63646809 48.4332311,3.50733761 48.1078174,3.50733761 C47.9425279,3.50733761 47.8069409,3.52412458 47.7010524,3.557699 C47.5099364,3.61451726 47.3420668,3.72815208 47.1974385,3.89860687 C47.0812193,4.03548722 47.005678,4.17688509 46.9708122,4.32280472 C46.9359465,4.46872434 46.9185139,4.67727006 46.9185139,4.94844813 L46.9185139,7.12173575 L46.2212023,7.12173575 L46.2212023,2.9727321 Z M50.7730971,1.81442016 L51.4781565,1.81442016 L51.4781565,2.9727321 L52.1406025,2.9727321 L52.1406025,3.54220319 L51.4781565,3.54220319 L51.4781565,6.25009633 C51.4781565,6.39472463 51.5272261,6.49157249 51.6253667,6.5406428 C51.6796023,6.56905193 51.7699937,6.58325629 51.8965434,6.58325629 C51.9301179,6.58325629 51.9662744,6.58261063 52.0050141,6.58131931 C52.0437538,6.58002799 52.0889495,6.57679972 52.1406025,6.57163443 L52.1406025,7.12173575 C52.0605404,7.14497959 51.9772512,7.16176655 51.8907325,7.17209714 C51.8042138,7.18242773 51.7105942,7.18759295 51.6098709,7.18759295 C51.2844572,7.18759295 51.0636441,7.1043038 50.947425,6.93772298 C50.8312058,6.77114217 50.7730971,6.55484863 50.7730971,6.28883586 L50.7730971,3.54220319 L50.2113739,3.54220319 L50.2113739,2.9727321 L50.7730971,2.9727321 L50.7730971,1.81442016 Z M55.4218407,3.08701372 C55.698184,3.2251854 55.9086667,3.4040311 56.053295,3.6235562 C56.192758,3.83275071 56.2857319,4.07680731 56.3322196,4.35573332 C56.373542,4.54684929 56.3942029,4.85159721 56.3942029,5.26998622 L53.3531498,5.26998622 C53.366063,5.69095789 53.4654935,6.02863408 53.6514441,6.28302493 C53.8373948,6.53741578 54.1253558,6.6646093 54.5153357,6.6646093 C54.8794891,6.6646093 55.1700326,6.54451796 55.3869751,6.30433167 C55.5109422,6.16486867 55.5987509,6.00345557 55.6504039,5.82008755 L56.3360936,5.82008755 C56.318015,5.97246379 56.2579694,6.14227037 56.1559548,6.32951237 C56.0539401,6.51675436 55.9396597,6.66977398 55.8131099,6.78857579 C55.6013328,6.99518765 55.3391979,7.13464857 55.0266975,7.20696272 C54.8588253,7.24828509 54.6690035,7.26894596 54.4572264,7.26894596 C53.9406967,7.26894596 53.5029444,7.08106112 53.1439563,6.70528581 C52.7849682,6.32951049 52.6054768,5.8033038 52.6054768,5.12664996 C52.6054768,4.46032672 52.7862595,3.91927003 53.1478303,3.50346366 C53.509401,3.0876573 53.9820185,2.87975723 54.565697,2.87975723 C54.8601189,2.87975723 55.1454973,2.94884204 55.4218407,3.08701372 Z M55.6775216,4.71601095 C55.6491124,4.4138411 55.5832559,4.17236711 55.47995,3.99158174 C55.288834,3.65583747 54.9698817,3.48796785 54.5230836,3.48796785 C54.2028352,3.48796785 53.9342438,3.60353963 53.7173013,3.83468664 C53.5003589,4.06583366 53.3854328,4.35960549 53.3725195,4.71601095 L55.6775216,4.71601095 Z M57.2697162,2.9727321 L57.9321622,2.9727321 L57.9321622,3.68941341 C57.9863978,3.5499504 58.1194022,3.38014383 58.3311794,3.17998859 C58.5429565,2.97983335 58.7870131,2.87975723 59.0633565,2.87975723 C59.0762697,2.87975723 59.0982219,2.88104854 59.1292137,2.88363118 C59.1602054,2.88621383 59.2131489,2.89137905 59.2880457,2.899127 L59.2880457,3.63517806 C59.2467234,3.62743012 59.2086299,3.6222649 59.1737641,3.61968225 C59.1388984,3.6170996 59.1008049,3.6158083 59.0594825,3.6158083 C58.7082424,3.6158083 58.4383597,3.72879746 58.2498263,3.95477918 C58.061293,4.18076091 57.9670278,4.44095881 57.9670278,4.73538071 L57.9670278,7.12173575 L57.2697162,7.12173575 L57.2697162,2.9727321 Z M59.9117522,1.43089881 L60.6090637,1.43089881 L60.6090637,7.12173575 L59.9117522,7.12173575 L59.9117522,1.43089881 Z M62.4104518,6.49415537 C62.5576628,6.61037454 62.7319889,6.66848325 62.9334355,6.66848325 C63.1787871,6.66848325 63.4163872,6.61166584 63.6462428,6.49802932 C64.0336401,6.309496 64.2273358,6.00087416 64.2273358,5.57215456 L64.2273358,5.01043137 C64.1421084,5.06466699 64.0323475,5.10986265 63.8980498,5.14601973 C63.7637521,5.1821768 63.632039,5.2080029 63.5029066,5.22349879 L63.0806457,5.27773413 C62.8275462,5.31130856 62.6377244,5.36425205 62.5111746,5.4365662 C62.2968148,5.55795067 62.1896365,5.75164638 62.1896365,6.01765915 C62.1896365,6.21910571 62.2632409,6.3779362 62.4104518,6.49415537 Z M63.87868,4.60754026 C64.0388042,4.58687908 64.1459825,4.51973123 64.2002181,4.40609471 C64.2312099,4.34411115 64.2467056,4.25501112 64.2467056,4.13879195 C64.2467056,3.90118831 64.1621251,3.72879913 63.9929616,3.62161923 C63.8237982,3.51443933 63.5816785,3.46085018 63.2665955,3.46085018 C62.9024421,3.46085018 62.6441811,3.55898934 62.4918049,3.75527061 C62.4065775,3.86374183 62.3510514,4.02515493 62.3252249,4.23951473 L61.6744008,4.23951473 C61.687314,3.72815038 61.8532467,3.37239592 62.1722037,3.17224068 C62.4911608,2.97208544 62.8611196,2.87200933 63.2820913,2.87200933 C63.7702118,2.87200933 64.1666423,2.96498327 64.4713948,3.15093394 C64.7735647,3.33688461 64.9246473,3.62613688 64.9246473,4.01869941 L64.9246473,6.4089284 C64.9246473,6.48124255 64.9394973,6.53935127 64.9691978,6.58325629 C64.9988982,6.62716131 65.0615265,6.64911349 65.1570845,6.64911349 C65.1880763,6.64911349 65.2229415,6.64717653 65.2616812,6.64330256 C65.300421,6.63942859 65.3417427,6.63361771 65.3856477,6.62586977 L65.3856477,7.14110552 C65.2771765,7.1720973 65.194533,7.19146687 65.1377147,7.19921481 C65.0808965,7.20696276 65.0034182,7.21083667 64.9052776,7.21083667 C64.6650913,7.21083667 64.4907651,7.12561056 64.3822939,6.95515577 C64.3254757,6.86476308 64.2854452,6.73692391 64.2622014,6.57163443 C64.1201557,6.7575851 63.9161296,6.91899819 63.6501168,7.05587855 C63.384104,7.19275891 63.0909779,7.26119806 62.7707295,7.26119806 C62.3859149,7.26119806 62.0714822,7.14433498 61.8274219,6.91060531 C61.5833617,6.67687565 61.4613334,6.38439512 61.4613334,6.03315496 C61.4613334,5.64834037 61.5814247,5.35004898 61.821611,5.13827182 C62.0617973,4.92649467 62.3768756,4.79607289 62.7668555,4.74700257 L63.87868,4.60754026 Z M66.7918927,6.2113568 C66.980426,6.510944 67.2825913,6.66073535 67.6983977,6.66073535 C68.0212287,6.66073535 68.2865918,6.52192009 68.494495,6.2442854 C68.7023982,5.96665071 68.8063482,5.5682832 68.8063482,5.0491709 C68.8063482,4.52489331 68.6991699,4.13685623 68.4848101,3.88504803 C68.2704503,3.63323983 68.0057329,3.50733761 67.6906498,3.50733761 C67.3394096,3.50733761 67.0546769,3.64163331 66.8364431,3.91022873 C66.6182094,4.17882414 66.5090941,4.5739634 66.5090941,5.09565834 C66.5090941,5.53987384 66.6033594,5.9117696 66.7918927,6.2113568 Z M68.3569697,3.10057255 C68.4809368,3.178052 68.621689,3.313639 68.7792306,3.50733761 L68.7792306,1.41152905 L69.4494244,1.41152905 L69.4494244,7.12173575 L68.821844,7.12173575 L68.821844,6.54451676 C68.6591372,6.80019893 68.4667328,6.98485551 68.244625,7.09849203 C68.0225173,7.21212856 67.7681303,7.26894596 67.4814563,7.26894596 C67.0191623,7.26894596 66.6188578,7.0746046 66.2805309,6.68591604 C65.942204,6.29722748 65.773043,5.78005993 65.773043,5.13439787 C65.773043,4.53005818 65.927354,4.00643411 66.2359804,3.56350993 C66.5446069,3.12058576 66.9855875,2.899127 67.5589354,2.899127 C67.8766011,2.899127 68.1426099,2.96627484 68.3569697,3.10057255 Z M73.0638226,3.08701372 C73.3401659,3.2251854 73.5506486,3.4040311 73.6952769,3.6235562 C73.8347399,3.83275071 73.9277138,4.07680731 73.9742015,4.35573332 C74.0155239,4.54684929 74.0361848,4.85159721 74.0361848,5.26998622 L70.9951317,5.26998622 C71.0080449,5.69095789 71.1074754,6.02863408 71.293426,6.28302493 C71.4793767,6.53741578 71.7673377,6.6646093 72.1573176,6.6646093 C72.521471,6.6646093 72.8120145,6.54451796 73.028957,6.30433167 C73.1529241,6.16486867 73.2407328,6.00345557 73.2923858,5.82008755 L73.9780755,5.82008755 C73.9599969,5.97246379 73.8999513,6.14227037 73.7979367,6.32951237 C73.695922,6.51675436 73.5816416,6.66977398 73.4550918,6.78857579 C73.2433147,6.99518765 72.9811798,7.13464857 72.6686794,7.20696272 C72.5008072,7.24828509 72.3109854,7.26894596 72.0992083,7.26894596 C71.5826786,7.26894596 71.1449263,7.08106112 70.7859382,6.70528581 C70.4269501,6.32951049 70.2474587,5.8033038 70.2474587,5.12664996 C70.2474587,4.46032672 70.4282414,3.91927003 70.7898122,3.50346366 C71.1513829,3.0876573 71.6240004,2.87975723 72.2076789,2.87975723 C72.5021008,2.87975723 72.7874792,2.94884204 73.0638226,3.08701372 Z M73.3195035,4.71601095 C73.2910943,4.4138411 73.2252378,4.17236711 73.1219319,3.99158174 C72.9308159,3.65583747 72.6118636,3.48796785 72.1650655,3.48796785 C71.8448171,3.48796785 71.5762257,3.60353963 71.3592832,3.83468664 C71.1423408,4.06583366 71.0274147,4.35960549 71.0145014,4.71601095 L73.3195035,4.71601095 Z M74.8923284,2.9727321 L75.5547743,2.9727321 L75.5547743,3.56157296 C75.7510556,3.31880402 75.9589557,3.14447788 76.1784808,3.0385893 C76.3980059,2.93270073 76.6420625,2.87975723 76.9106579,2.87975723 C77.4995017,2.87975723 77.8972235,3.08507469 78.1038354,3.49571576 C78.2174719,3.72040615 78.2742893,4.04194104 78.2742893,4.46033005 L78.2742893,7.12173575 L77.5653559,7.12173575 L77.5653559,4.50681749 C77.5653559,4.25371796 77.5279081,4.04969181 77.4530113,3.89473291 C77.3290442,3.63646809 77.1043572,3.50733761 76.7789435,3.50733761 C76.613654,3.50733761 76.478067,3.52412458 76.3721784,3.557699 C76.1810624,3.61451726 76.0131928,3.72815208 75.8685645,3.89860687 C75.7523454,4.03548722 75.676804,4.17688509 75.6419383,4.32280472 C75.6070725,4.46872434 75.5896399,4.67727006 75.5896399,4.94844813 L75.5896399,7.12173575 L74.8923284,7.12173575 L74.8923284,2.9727321 Z M81.8499479,2.9727321 L82.9578985,6.35081911 L84.1162104,2.9727321 L84.8793792,2.9727321 L83.3143022,7.12173575 L82.5705032,7.12173575 L81.0402918,2.9727321 L81.8499479,2.9727321 Z M88.0734534,6.14743658 C88.2451995,5.79748774 88.3310713,5.40815936 88.3310713,4.97943975 C88.3310713,4.59204251 88.2690887,4.27696416 88.1451215,4.03419522 C87.9488403,3.65196328 87.6105184,3.46085018 87.1301459,3.46085018 C86.7040089,3.46085018 86.3940958,3.62355458 86.2003971,3.94896826 C86.0066985,4.27438193 85.9098507,4.66693858 85.9098507,5.12664996 C85.9098507,5.56828281 86.0066985,5.93630467 86.2003971,6.23072656 C86.3940958,6.52514846 86.7014263,6.6723572 87.1223979,6.6723572 C87.584692,6.6723572 87.9017073,6.49738541 88.0734534,6.14743658 Z M88.5053992,3.38724507 C88.8747179,3.74365053 89.0593744,4.26792026 89.0593744,4.96006998 C89.0593744,5.62897588 88.89667,6.18165431 88.5712564,6.61812186 C88.2458427,7.05458942 87.7409425,7.27281992 87.0565407,7.27281992 C86.4857755,7.27281992 86.0325275,7.07976986 85.6967832,6.69366395 C85.361039,6.30755803 85.1931694,5.78909918 85.1931694,5.13827182 C85.1931694,4.4409568 85.3700781,3.88569576 85.7239009,3.47247204 C86.0777237,3.05924832 86.5529239,2.85263956 87.1495156,2.85263956 C87.6841238,2.85263956 88.1360805,3.03083962 88.5053992,3.38724507 Z M89.8884004,2.9727321 L90.5508463,2.9727321 L90.5508463,3.56157296 C90.7471276,3.31880402 90.9550277,3.14447788 91.1745528,3.0385893 C91.3940779,2.93270073 91.6381345,2.87975723 91.9067299,2.87975723 C92.4955737,2.87975723 92.8932955,3.08507469 93.0999074,3.49571576 C93.2135439,3.72040615 93.2703613,4.04194104 93.2703613,4.46033005 L93.2703613,7.12173575 L92.5614279,7.12173575 L92.5614279,4.50681749 C92.5614279,4.25371796 92.5239801,4.04969181 92.4490833,3.89473291 C92.3251162,3.63646809 92.1004292,3.50733761 91.7750155,3.50733761 C91.609726,3.50733761 91.474139,3.52412458 91.3682504,3.557699 C91.1771345,3.61451726 91.0092648,3.72815208 90.8646365,3.89860687 C90.7484174,4.03548722 90.672876,4.17688509 90.6380103,4.32280472 C90.6031445,4.46872434 90.5857119,4.67727006 90.5857119,4.94844813 L90.5857119,7.12173575 L89.8884004,7.12173575 L89.8884004,2.9727321 Z" id="Herunterladen-von" fill="#FFFFFF"></path>
            </g>
        </g>
    </g>
</svg>