<?xml version="1.0" encoding="utf-8"?>
<!-- Generator: Adobe Illustrator 16.0.0, SVG Export Plug-In . SVG Version: 6.00 Build 0)  -->
<!DOCTYPE svg PUBLIC "-//W3C//DTD SVG 1.1//EN" "http://www.w3.org/Graphics/SVG/1.1/DTD/svg11.dtd">
<svg version="1.1" id="Layer_1" xmlns="http://www.w3.org/2000/svg" xmlns:xlink="http://www.w3.org/1999/xlink" x="0px" y="0px"
	 width="135px" height="40px" viewBox="0 0 135 40" enable-background="new 0 0 135 40" xml:space="preserve">
<g>
	<rect fill="#010101" width="135" height="40"/>
	<g>
		<polygon fill="none" points="18.293,24.543 21.275,21.563 21.275,21.563 18.293,24.543 8.78,15.029 8.78,15.029 18.293,24.543 
			8.764,34.07 8.764,34.07 18.293,24.543 21.289,27.538 21.29,27.538 		"/>
		
			<linearGradient id="SVGID_1_" gradientUnits="userSpaceOnUse" x1="1461.9531" y1="-651.2734" x2="1449.3928" y2="-659.1342" gradientTransform="matrix(0.7071 0.7071 -0.7071 0.7071 -1477.973 -549.4553)">
			<stop  offset="0" style="stop-color:#D7E69E"/>
			<stop  offset="0.4456" style="stop-color:#95C4AA"/>
			<stop  offset="1" style="stop-color:#02A5B7"/>
		</linearGradient>
		<path fill="url(#SVGID_1_)" d="M21.275,21.563L9.66,15.175c-0.328-0.18-0.634-0.222-0.878-0.145l9.513,9.513L21.275,21.563z"/>
		
			<linearGradient id="SVGID_2_" gradientUnits="userSpaceOnUse" x1="1454.6563" y1="-657.9873" x2="1470.9358" y2="-653.7317" gradientTransform="matrix(0.7071 0.7071 -0.7071 0.7071 -1477.973 -549.4553)">
			<stop  offset="0" style="stop-color:#EE2B7B"/>
			<stop  offset="0.0192" style="stop-color:#EE337D"/>
			<stop  offset="0.7039" style="stop-color:#F6BD80"/>
			<stop  offset="1" style="stop-color:#FDEA75"/>
		</linearGradient>
		<path fill="url(#SVGID_2_)" d="M21.29,27.538l3.964-2.183c0.804-0.444,0.804-1.168,0-1.607l-3.979-2.186l-2.98,2.979L21.29,27.538
			z"/>
		
			<linearGradient id="SVGID_3_" gradientUnits="userSpaceOnUse" x1="1463.7393" y1="-645.311" x2="1446.0828" y2="-655.699" gradientTransform="matrix(0.7071 0.7071 -0.7071 0.7071 -1477.973 -549.4553)">
			<stop  offset="0" style="stop-color:#89CFBD"/>
			<stop  offset="0.0907" style="stop-color:#7EBEBC"/>
			<stop  offset="0.5396" style="stop-color:#467DAD"/>
			<stop  offset="0.8523" style="stop-color:#1E5BA2"/>
			<stop  offset="1" style="stop-color:#0B4F9D"/>
		</linearGradient>
		<path fill="url(#SVGID_3_)" d="M8.78,15.029c-0.354,0.109-0.583,0.467-0.583,1.008L8.2,33.064c0,0.539,0.223,0.891,0.564,1.004
			l9.529-9.527L8.78,15.029z"/>
		
			<linearGradient id="SVGID_4_" gradientUnits="userSpaceOnUse" x1="1470.1533" y1="-653.562" x2="1459.2777" y2="-639.2339" gradientTransform="matrix(0.7071 0.7071 -0.7071 0.7071 -1477.973 -549.4553)">
			<stop  offset="0" style="stop-color:#F04C2A"/>
			<stop  offset="0.4704" style="stop-color:#B6506C"/>
			<stop  offset="0.8353" style="stop-color:#8C5292"/>
			<stop  offset="1" style="stop-color:#7952A1"/>
		</linearGradient>
		<path fill="url(#SVGID_4_)" d="M8.764,34.07c0.248,0.084,0.558,0.046,0.894-0.139l11.63-6.395l-2.995-2.995L8.764,34.07z"/>
	</g>
	<g>
		<g>
			<path fill-rule="evenodd" clip-rule="evenodd" d="M31.24,24.202c0-6.16,0.01-12.32-0.016-18.48
				c-0.003-0.6,0.136-0.735,0.735-0.735c31.76,0.018,63.521,0.018,95.28,0c0.6,0,0.736,0.136,0.735,0.735
				c-0.021,10.72-0.021,21.441,0,32.16c0.001,0.6-0.136,0.736-0.735,0.736c-31.76-0.018-63.52-0.018-95.28,0
				c-0.6,0-0.74-0.135-0.736-0.736c0.031-4.16,0.017-8.32,0.017-12.48c0.12-0.08,0.231-0.068,0.334,0.035
				c0.712,1.545,1.141,3.211,2.509,4.432c2.037,1.818,4.406,2.154,6.826,1.422c2.578-0.779,3.882-2.801,4.103-5.5
				c0.063-0.777-0.162-1.252-1.015-1.26c-1.359-0.016-2.718-0.014-4.077-0.002c-0.42,0.004-0.844,0.068-0.86,0.609
				c-0.02,0.637,0.471,0.648,0.922,0.66c0.719,0.018,1.439-0.018,2.158,0.016c1.288,0.055,1.538,0.453,1.082,1.682
				c-0.833,2.248-3.76,3.418-6.253,2.498c-2.802-1.035-4.416-4.443-3.336-7.047c1.339-3.228,4.518-4.481,7.571-2.983
				c0.144,0.07,0.282,0.151,0.422,0.229c0.4,0.22,0.776,0.231,1.051-0.183c0.309-0.464,0-0.777-0.352-0.983
				c-1.264-0.743-2.62-1.225-4.106-1.032c-3.054,0.395-5.162,1.986-6.113,4.984c-0.132,0.416-0.233,0.852-0.526,1.201
				C31.473,24.274,31.359,24.282,31.24,24.202z"/>
			<path fill-rule="evenodd" clip-rule="evenodd" fill="#202020" d="M31.24,24.202c0.065-0.004,0.131-0.006,0.196-0.006
				c0.397,0.402,0.396,0.807,0.001,1.213c-0.065-0.002-0.132-0.004-0.197-0.008C31.24,25.003,31.24,24.603,31.24,24.202z"/>
			<path fill-rule="evenodd" clip-rule="evenodd" fill="#FEFEFE" d="M31.438,25.409c0-0.404-0.001-0.809-0.001-1.213
				c0.817-4.886,4.774-6.98,8.261-6.461c1.131,0.168,2.299,0.42,3.14,1.308c0.211,0.223,1.119,0.298,0.423,0.879
				c-0.435,0.363-0.565,1.411-1.627,0.704c-2.207-1.467-4.188-1.336-6.164,0.225c-2.212,1.747-2.455,5.272-0.517,7.499
				c1.81,2.08,5.316,2.209,7.308,0.275c0.574-0.559,0.716-1.322,0.959-2.033c0.176-0.514-0.227-0.469-0.545-0.469
				c-1.12,0-2.243-0.049-3.359,0.016c-0.795,0.047-0.721-0.436-0.665-0.906c0.051-0.426-0.336-1.1,0.615-1.08
				c1.759,0.037,3.52,0.033,5.278-0.002c0.595-0.012,0.736,0.242,0.79,0.764c0.503,4.836-4.424,8.496-8.957,6.705
				C33.5,30.481,31.966,28.368,31.438,25.409z"/>
			<path fill-rule="evenodd" clip-rule="evenodd" fill="#FEFEFE" d="M73.444,31.108c-2.04,1.205-3.723,1.1-5.234-0.258
				c-1.495-1.342-1.956-3.52-1.155-5.453c0.724-1.75,2.411-2.76,4.386-2.629c0.04,0.002,0.085-0.008,0.119,0.006
				c1.032,0.451,2.077,0.49,3.168,0.201c0.629-0.168,0.902,0.105,0.89,0.82c-0.042,2.555,0.043,5.113-0.031,7.668
				c-0.105,3.688-3.366,5.682-6.577,4.111c-0.49-0.238-0.821-0.621-1.182-0.984c-0.332-0.334-0.896-0.805-0.689-1.148
				c0.244-0.406,0.905-0.572,1.398-0.814c0.333-0.162,0.355,0.166,0.492,0.344c0.918,1.188,1.815,1.551,2.838,1.166
				C73.134,33.663,73.576,32.837,73.444,31.108z"/>
			<path fill-rule="evenodd" clip-rule="evenodd" fill="#FEFEFE" d="M93.6,25.013c0-1.914,0.024-3.829-0.014-5.744
				c-0.013-0.645,0.124-0.914,0.838-0.884c1.354,0.058,2.712-0.011,4.068,0.023c2.392,0.061,4.222,1.854,4.229,4.102
				c0.007,2.244-1.813,4.029-4.225,4.127c-0.638,0.025-1.282,0.059-1.913-0.008c-0.782-0.084-0.952,0.256-0.916,0.955
				c0.049,0.955,0.007,1.916,0.014,2.873c0.005,0.707,0.198,1.371-1.016,1.357c-1.107-0.012-1.09-0.512-1.076-1.297
				C93.622,28.685,93.6,26.849,93.6,25.013z"/>
			<path fill-rule="evenodd" clip-rule="evenodd" fill="#FDFDFD" d="M114.315,30.86c-1.36,1.354-2.86,1.529-4.438,0.75
				c-1.324-0.652-1.979-1.855-1.829-3.07c0.163-1.318,1.324-2.531,2.715-2.84c1.191-0.266,2.37-0.178,3.551,0.178
				c-0.225-1.543-2.062-2.424-3.276-1.396c-0.861,0.729-1.394,0.477-2.121,0.113c-0.177-0.088-0.367-0.15-0.548-0.223
				c0.493-1.619,2.814-2.624,5.065-2.151c1.833,0.386,3.116,1.858,3.195,3.921c0.056,1.477,0.04,2.959-0.007,4.438
				c-0.014,0.42,0.383,1.178-0.524,1.164C115.418,31.733,114.459,32.21,114.315,30.86z"/>
			<path fill-rule="evenodd" clip-rule="evenodd" fill="#FEFEFE" d="M119.252,35.907c0.287-1.338,1.062-2.463,1.586-3.689
				c0.24-0.563,0.283-0.984,0.021-1.557c-1.072-2.34-2.082-4.711-3.111-7.07c-0.108-0.248-0.189-0.51-0.281-0.756
				c0.088-0.041,0.121-0.068,0.155-0.072c2.148-0.176,2.199-0.141,2.971,1.883c0.269,0.703,0.475,1.445,0.845,2.09
				c0.356,0.621,0.333,1.402,0.933,1.979c0.648-1.652,1.3-3.268,1.915-4.896c0.347-0.916,1.711-1.52,2.533-1.072
				c0.417,0.227,0.09,0.455-0.006,0.678c-1.379,3.207-2.761,6.414-4.141,9.621c-0.156,0.363-0.314,0.725-0.46,1.094
				C121.455,36.05,121.457,36.05,119.252,35.907z"/>
			<path fill-rule="evenodd" clip-rule="evenodd" fill="#FDFDFD" d="M46.349,27.354c-0.014-2.748,1.793-4.58,4.53-4.592
				c2.82-0.014,4.706,1.803,4.716,4.543c0.009,2.672-1.977,4.648-4.673,4.648C48.3,31.956,46.363,30.007,46.349,27.354z"/>
			<path fill-rule="evenodd" clip-rule="evenodd" fill="#FEFEFE" d="M60.93,31.954c-2.622-0.006-4.558-1.959-4.563-4.605
				c-0.005-2.779,1.847-4.604,4.652-4.586c2.755,0.016,4.584,1.838,4.58,4.561C65.596,30.015,63.634,31.96,60.93,31.954z"/>
			<path fill-rule="evenodd" clip-rule="evenodd" fill="#FDFDFD" d="M84.918,31.954c-1.998,0-3.715-1.158-4.271-2.807
				c-0.719-2.127-0.148-4.453,1.387-5.66c1.159-0.912,3.401-0.971,4.769-0.172c0.435,0.254,0.71,0.631,1.01,0.996
				c1.264,1.533,1.171,1.842-0.649,2.559c-1.29,0.506-2.548,1.1-3.846,1.584c-0.808,0.303-0.473,0.689-0.143,1.049
				c0.745,0.811,2.597,0.869,3.368-0.082c0.899-1.109,1.404-0.053,1.808,0.283c0.567,0.477-0.135,0.834-0.489,1.129
				C86.98,31.563,86.001,32.056,84.918,31.954z"/>
			<path fill-rule="evenodd" clip-rule="evenodd" fill="#FAFAFA" d="M104.237,25.05c0-1.918,0.061-3.839-0.026-5.753
				c-0.043-0.948,0.438-0.934,1.084-0.9c0.604,0.032,1.237-0.208,1.217,0.893c-0.071,3.875-0.063,7.753-0.004,11.628
				c0.015,1.006-0.557,0.854-1.146,0.852c-0.583-0.004-1.188,0.166-1.147-0.846C104.292,28.968,104.237,27.007,104.237,25.05z"/>
			<path fill-rule="evenodd" clip-rule="evenodd" fill="#FCFCFC" d="M79.201,25.284c0,1.918-0.066,3.84,0.027,5.754
				c0.05,1.025-0.544,0.824-1.124,0.85c-0.643,0.031-1.085,0.059-1.07-0.885c0.065-3.916,0.069-7.834-0.001-11.75
				c-0.018-1.003,0.508-0.847,1.104-0.858c0.635-0.013,1.133-0.065,1.091,0.896C79.142,21.285,79.201,23.286,79.201,25.284z"/>
			<path fill-rule="evenodd" clip-rule="evenodd" fill="#FAFAFA" d="M52.968,6.937c1.801-0.001,3.257,1.464,3.234,3.256
				c-0.022,1.719-1.478,3.178-3.198,3.204c-1.805,0.027-3.287-1.425-3.283-3.239C49.725,8.475,51.154,6.797,52.968,6.937z"/>
			<path fill-rule="evenodd" clip-rule="evenodd" fill="#F8F8F8" d="M61.036,11.404c0-1.232-0.001-2.45,0.001-3.667
				c0.001-0.312-0.069-0.707,0.428-0.671c0.431,0.032,0.29,0.412,0.293,0.657c0.013,1.519,0.021,3.038-0.006,4.557
				c-0.006,0.3,0.241,0.765-0.307,0.876c-0.48,0.097-0.732-0.251-0.944-0.595c-0.582-0.945-1.151-1.898-1.715-2.855
				c-0.201-0.341-0.393-0.681-0.886-0.986c0,1.305,0.012,2.518-0.009,3.73c-0.005,0.266,0.197,0.683-0.353,0.716
				c-0.574,0.035-0.506-0.363-0.506-0.719c-0.001-1.519-0.006-3.038,0.004-4.558c0.002-0.298-0.142-0.701,0.274-0.825
				c0.412-0.122,0.757,0.012,1.007,0.424c0.697,1.154,1.432,2.286,2.14,3.436C60.577,11.118,60.613,11.372,61.036,11.404z"/>
			<path fill-rule="evenodd" clip-rule="evenodd" fill="#F9F9F9" d="M65.277,10.037c0-0.399-0.044-0.806,0.01-1.198
				c0.08-0.596-0.362-1.562,0.288-1.712c0.911-0.211,1.988-0.36,2.901,0.248c0.801,0.532,0.924,1.311,0.543,2.101
				c-0.204,0.424-0.344,0.595,0.046,1.045c0.889,1.024,0.219,2.49-1.15,2.625c-0.674,0.066-1.36-0.007-2.038,0.027
				c-0.475,0.024-0.625-0.151-0.608-0.616C65.299,11.717,65.277,10.876,65.277,10.037z"/>
			<path fill-rule="evenodd" clip-rule="evenodd" fill="#FBFBFB" d="M95.731,13.051c-0.852,0.393-1.084-0.266-1.508-0.729
				c-0.496-0.542-0.59-1.777-1.534-1.511c-0.677,0.191-0.189,1.188-0.269,1.816c-0.052,0.411-0.182,0.548-0.579,0.541
				c-0.469-0.007-0.357-0.34-0.358-0.59c-0.009-1.636-0.009-3.271,0.001-4.907c0.002-0.184,0.022-0.436,0.138-0.538
				c0.889-0.79,3.742,0.188,3.957,1.358c0.12,0.655,0.043,1.334-0.573,1.708c-0.745,0.451-0.751,0.859-0.194,1.472
				C95.177,12.074,95.425,12.582,95.731,13.051z"/>
			<path fill-rule="evenodd" clip-rule="evenodd" fill="#FAFAFA" d="M32.438,10.127c0-0.28-0.058-0.575,0.011-0.837
				c0.193-0.74-0.559-1.824,0.422-2.202c1.374-0.53,3.503,0.236,4.069,1.272c0.61,1.113,0.664,2.272,0.066,3.432
				c-0.569,1.104-1.54,1.407-2.688,1.372c-0.08-0.003-0.16-0.001-0.24-0.001c-1.641,0.006-1.641,0.006-1.641-1.599
				C32.438,11.085,32.438,10.606,32.438,10.127z"/>
			<path fill-rule="evenodd" clip-rule="evenodd" fill="#F7F7F7" d="M83.077,6.92c0.105-0.006,0.532,0.016,0.852,0.251
				c0.326,0.238,0.868,0.565,0.628,0.997c-0.276,0.496-0.66,0.033-0.987-0.165C82.953,7.63,82.258,7.58,81.914,8.26
				c-0.38,0.751,0.286,1.013,0.878,1.229c0.975,0.355,1.992,0.691,2.139,1.948c0.112,0.973-0.549,1.694-1.711,1.915
				c-0.904,0.172-2.073-0.469-2.359-1.236c-0.101-0.271-0.123-0.454,0.139-0.581c0.275-0.135,0.509-0.138,0.676,0.216
				c0.333,0.702,0.881,0.992,1.663,0.761c0.422-0.125,0.708-0.361,0.75-0.817c0.039-0.435-0.105-0.793-0.527-0.973
				c-0.474-0.2-0.968-0.351-1.437-0.561c-0.787-0.353-1.362-0.9-1.168-1.843C81.151,7.37,81.827,6.947,83.077,6.92z"/>
			<path fill-rule="evenodd" clip-rule="evenodd" fill="#F4F4F4" d="M45.194,10.113c0-0.438-0.053-0.884,0.013-1.312
				c0.088-0.582-0.38-1.323,0.316-1.723c0.648-0.371,2.667,0.049,3.149,0.53c0.557,0.556,0.771,1.18,0.465,1.941
				c-0.297,0.737-0.839,1.246-1.623,1.148c-1.23-0.153-1.613,0.305-1.453,1.482c0.044,0.323,0.339,0.993-0.438,0.969
				c-0.752-0.024-0.381-0.653-0.412-1.009C45.152,11.469,45.194,10.79,45.194,10.113z"/>
			<path fill-rule="evenodd" clip-rule="evenodd" fill="#F3F3F3" d="M90.286,9.522c0,0.638,0.05,1.279-0.011,1.911
				c-0.119,1.248-0.904,1.942-2.137,1.968c-1.16,0.025-2.002-0.613-2.207-1.764c-0.24-1.343-0.055-2.705-0.102-4.059
				c-0.009-0.256,0.035-0.501,0.344-0.523c0.382-0.029,0.445,0.231,0.443,0.546c-0.005,1.077-0.016,2.154,0.003,3.231
				c0.021,1.124,0.59,1.781,1.488,1.766c0.873-0.016,1.448-0.715,1.461-1.802c0.011-0.997-0.008-1.995,0.008-2.992
				c0.005-0.285-0.15-0.72,0.34-0.744c0.619-0.031,0.38,0.487,0.399,0.787c0.037,0.556,0.011,1.116,0.011,1.675
				C90.313,9.522,90.3,9.522,90.286,9.522z"/>
			<path fill-rule="evenodd" clip-rule="evenodd" fill="#F8F8F8" d="M42.16,6.937c0.664-0.005,1.262,0.129,1.653,0.744
				c0.109,0.174,0.265,0.361,0.105,0.528c-0.16,0.169-0.412,0.26-0.646,0.093C43.017,8.122,42.831,7.841,42.48,7.8
				c-0.594-0.069-1.188-0.017-1.387,0.623c-0.191,0.613,0.392,0.782,0.812,0.985c0.463,0.223,0.934,0.433,1.409,0.625
				c0.826,0.333,0.92,1.009,0.889,1.772c-0.033,0.809-0.49,1.186-1.224,1.405c-1.108,0.33-2.352-0.096-2.772-0.993
				c-0.138-0.293-0.188-0.52,0.148-0.688c0.262-0.131,0.435-0.077,0.563,0.206c0.17,0.376,0.447,0.651,0.858,0.779
				c0.72,0.225,1.317-0.007,1.61-0.65c0.297-0.652-0.206-1.025-0.744-1.272c-0.323-0.147-0.667-0.255-1.008-0.36
				c-0.973-0.3-1.488-0.925-1.304-1.96C40.509,7.281,41.202,6.907,42.16,6.937z"/>
			<path fill-rule="evenodd" clip-rule="evenodd" fill="#F8F8F8" d="M76.392,13.165c-1.788,0-1.788,0-1.788-1.813
				c0-1.157-0.007-2.314,0.005-3.472c0.003-0.262-0.104-0.564,0.176-0.77c0.158-0.115,3.206-0.123,3.314,0.021
				c0.084,0.112,0.124,0.28,0.13,0.426c0.01,0.27-0.205,0.301-0.407,0.305c-0.479,0.008-0.962,0.048-1.436-0.004
				c-0.74-0.079-1.024,0.12-1.017,0.946c0.007,0.81,0.266,0.966,1.017,0.992c0.524,0.02,1.531-0.53,1.532,0.405
				c0,0.685-0.996,0.333-1.507,0.308c-0.871-0.044-1.015,0.27-1.045,1.073c-0.033,0.915,0.397,0.95,1.063,0.902
				c0.437-0.031,0.878-0.009,1.316-0.003c0.252,0.004,0.495,0.046,0.484,0.378c-0.012,0.364-0.307,0.292-0.522,0.3
				C77.271,13.174,76.831,13.165,76.392,13.165z"/>
			<path fill-rule="evenodd" clip-rule="evenodd" fill="#F6F6F6" d="M70.356,10.164c0-0.68-0.056-1.366,0.021-2.037
				c0.043-0.373-0.41-1.094,0.463-1.069c0.731,0.021,0.419,0.653,0.432,1.022c0.037,1.159,0.059,2.321-0.003,3.479
				c-0.038,0.724,0.147,0.962,0.911,0.953c0.555-0.006,1.594-0.437,1.601,0.346c0.006,0.644-1.054,0.272-1.624,0.289
				c-1.8,0.055-1.801,0.021-1.801-1.782C70.356,10.963,70.356,10.563,70.356,10.164z"/>
			<path fill-rule="evenodd" clip-rule="evenodd" fill="#DDDDDD" d="M64.032,10.046c0,0.796,0.006,1.591-0.002,2.386
				c-0.004,0.338,0.105,0.733-0.476,0.754c-0.542,0.019-0.551-0.297-0.55-0.686c0.007-1.59,0.006-3.18,0.001-4.771
				c-0.002-0.385,0.012-0.732,0.539-0.716c0.548,0.018,0.486,0.411,0.487,0.767C64.034,8.536,64.032,9.292,64.032,10.046z"/>
			<path fill-rule="evenodd" clip-rule="evenodd" fill="#FCFCFC" d="M39.2,10.142c0,0.839-0.006,1.678,0.004,2.517
				c0.004,0.328-0.073,0.533-0.463,0.504c-0.345-0.026-0.341-0.259-0.341-0.5c-0.001-1.718-0.001-3.436,0.001-5.152
				c0-0.264,0.074-0.465,0.396-0.466s0.4,0.196,0.4,0.462C39.2,8.385,39.199,9.263,39.2,10.142z"/>
			<path fill-rule="evenodd" clip-rule="evenodd" fill="#010101" d="M73.736,27.341c0.001,1.561-1.134,2.771-2.563,2.738
				c-1.348-0.031-2.429-1.229-2.452-2.717c-0.024-1.494,1.156-2.838,2.497-2.844C72.534,24.515,73.736,25.86,73.736,27.341z"/>
			<path fill-rule="evenodd" clip-rule="evenodd" fill="#020202" d="M95.678,22.38c0.169-0.571-0.4-1.675,0.276-1.864
				c1.064-0.298,2.307-0.334,3.409,0.15c0.974,0.428,1.406,1.653,0.995,2.63c-0.321,0.764-0.923,1.172-1.722,1.293
				c-0.274,0.041-0.559,0.02-0.838,0.021C95.678,24.62,95.678,24.62,95.678,22.38z"/>
			<path fill-rule="evenodd" clip-rule="evenodd" fill="#030303" d="M112.718,27.323c0.54,0.129,1.461-0.082,1.644,0.779
				c0.191,0.904-1.243,1.953-2.454,1.93c-0.813-0.016-1.547-0.203-1.608-1.188C110.241,27.94,111.239,27.308,112.718,27.323z"/>
			<path fill-rule="evenodd" clip-rule="evenodd" fill="#010101" d="M50.97,30.079c-1.468,0.02-2.536-1.094-2.57-2.678
				c-0.035-1.652,1.032-2.873,2.52-2.879c1.45-0.006,2.636,1.281,2.612,2.83C53.507,28.872,52.389,30.062,50.97,30.079z"/>
			<path fill-rule="evenodd" clip-rule="evenodd" fill="#010101" d="M63.565,27.312c0,1.588-1.169,2.799-2.673,2.77
				c-1.379-0.025-2.535-1.338-2.49-2.824c0.045-1.523,1.235-2.768,2.617-2.736C62.371,24.55,63.565,25.86,63.565,27.312z"/>
			<path fill-rule="evenodd" clip-rule="evenodd" fill="#070707" d="M84.833,24.493c0.146,0.033,0.417,0.086,0.684,0.158
				c0.369,0.102,0.672,0.338,0.671,0.725c-0.001,0.369-0.422,0.281-0.654,0.387c-0.826,0.371-1.659,0.729-2.5,1.064
				c-0.195,0.076-0.466,0.305-0.633,0.066c-0.109-0.158-0.084-0.459-0.028-0.674C82.589,25.382,83.811,24.493,84.833,24.493z"/>
			<path fill-rule="evenodd" clip-rule="evenodd" fill="#010101" d="M55.254,10.273c-0.042,1.364-1.044,2.361-2.34,2.328
				c-1.365-0.035-2.267-1.064-2.231-2.552c0.034-1.479,0.974-2.355,2.446-2.281C54.454,7.835,55.298,8.83,55.254,10.273z"/>
			<path fill-rule="evenodd" clip-rule="evenodd" fill="#020202" d="M66.813,12.464c-1.019,0.267-0.742-0.496-0.822-1.059
				c-0.172-1.22,0.702-0.824,1.289-0.882c0.696-0.068,1.237,0.152,1.212,0.933C68.455,12.54,67.649,12.54,66.813,12.464z"/>
			<path fill-rule="evenodd" clip-rule="evenodd" fill="#040404" d="M66.899,7.878c0.842-0.063,1.5,0.082,1.435,0.943
				c-0.073,0.952-0.912,0.782-1.565,0.865c-0.794,0.101-0.733-0.381-0.789-0.936C65.891,7.855,66.312,7.719,66.899,7.878z"/>
			<path fill-rule="evenodd" clip-rule="evenodd" fill="#030303" d="M92.395,8.812c-0.119-0.605,0.013-1.028,0.948-0.976
				c0.8,0.046,1.41,0.296,1.382,1.092c-0.03,0.832-0.69,1.078-1.515,1.142C92.176,10.15,92.425,9.494,92.395,8.812z"/>
			<path fill-rule="evenodd" clip-rule="evenodd" fill="#030303" d="M33.233,10.094c0-0.239-0.046-0.489,0.009-0.715
				c0.121-0.498-0.379-1.272,0.318-1.462c0.84-0.229,1.823-0.143,2.424,0.603c0.694,0.859,0.824,1.893,0.244,2.904
				c-0.55,0.96-1.467,1.11-2.475,1.064c-0.431-0.02-0.534-0.225-0.524-0.603C33.245,11.29,33.233,10.692,33.233,10.094z"/>
			<path fill-rule="evenodd" clip-rule="evenodd" fill="#030303" d="M46.093,8.899c-0.118-0.701-0.02-1.145,0.875-1.049
				c0.716,0.076,1.444,0.136,1.429,1.016c-0.017,0.931-0.724,1.136-1.566,1.193C45.739,10.133,46.175,9.373,46.093,8.899z"/>
		</g>
	</g>
</g>
</svg>
