<?xml version="1.0" encoding="UTF-8"?>
<svg width="135px" height="40px" viewBox="0 0 135 40" version="1.1" xmlns="http://www.w3.org/2000/svg" xmlns:xlink="http://www.w3.org/1999/xlink">
    <!-- Generator: Sketch 44.1 (41455) - http://www.bohemiancoding.com/sketch -->
    <title>btn-microsoft-en</title>
    <desc>Created with Sketch.</desc>
    <defs></defs>
    <g id="Page-1" stroke="none" stroke-width="1" fill="none" fill-rule="evenodd">
        <g id="btn-microsoft-en" fill-rule="nonzero">
            <rect id="Rectangle-path" fill="#000000" x="0" y="0" width="135" height="40"></rect>
            <g id="Layer_1" transform="translate(12.000000, 8.000000)">
                <rect id="Rectangle-path" fill="#F25022" x="0.0641025641" y="0.58974359" width="10.7435897" height="10.7435897"></rect>
                <rect id="Rectangle-path" fill="#7FBA00" x="11.9230769" y="0.58974359" width="10.7435897" height="10.7435897"></rect>
                <rect id="Rectangle-path" fill="#00A4EF" x="0.0641025641" y="12.4358974" width="10.7435897" height="10.7435897"></rect>
                <rect id="Rectangle-path" fill="#FFB900" x="11.9230769" y="12.4358974" width="10.7435897" height="10.7435897"></rect>
                <path d="M43.3717949,12.6923077 C43.3717949,12.3717949 43.4871795,12.1153846 43.7179487,11.8974359 C43.9487179,11.6794872 44.2179487,11.5769231 44.5384615,11.5769231 C44.8717949,11.5769231 45.1538462,11.6923077 45.3717949,11.9102564 C45.5897436,12.1282051 45.7051282,12.3974359 45.7051282,12.6923077 C45.7051282,13 45.5897436,13.2692308 45.3589744,13.474359 C45.1282051,13.6923077 44.8589744,13.7948718 44.525641,13.7948718 C44.1923077,13.7948718 43.9230769,13.6923077 43.6923077,13.474359 C43.4871795,13.2564103 43.3717949,13 43.3717949,12.6923077 L43.3717949,12.6923077 Z M45.4871795,23.1794872 L43.5769231,23.1794872 L43.5769231,15.0384615 L45.4871795,15.0384615 L45.4871795,23.1794872 Z" id="Shape" fill="#FFFFFF"></path>
                <path d="M51.3076923,21.7820513 C51.5897436,21.7820513 51.9102564,21.7179487 52.2564103,21.5897436 C52.6025641,21.4615385 52.9102564,21.2820513 53.2051282,21.0641026 L53.2051282,22.8461538 C52.8974359,23.025641 52.5512821,23.1538462 52.1666667,23.2435897 C51.7820513,23.3333333 51.3461538,23.3846154 50.8846154,23.3846154 C49.6923077,23.3846154 48.7179487,23 47.9615385,22.2435897 C47.2051282,21.4871795 46.8333333,20.5128205 46.8333333,19.3461538 C46.8333333,18.0384615 47.2179487,16.9615385 47.9871795,16.1153846 C48.7564103,15.2692308 49.8333333,14.8461538 51.2435897,14.8461538 C51.6025641,14.8461538 51.9615385,14.8974359 52.3333333,14.9871795 C52.7051282,15.0769231 52.9871795,15.1923077 53.2051282,15.3076923 L53.2051282,17.1410256 C52.9102564,16.9230769 52.6025641,16.7564103 52.2948718,16.6410256 C51.9871795,16.525641 51.6666667,16.4615385 51.3461538,16.4615385 C50.5897436,16.4615385 49.9871795,16.7051282 49.5128205,17.1923077 C49.0512821,17.6794872 48.8205128,18.3461538 48.8205128,19.1794872 C48.8205128,20 49.0384615,20.6410256 49.4871795,21.1025641 C49.9358974,21.5641026 50.5384615,21.7820513 51.3076923,21.7820513" id="Shape" fill="#FFFFFF"></path>
                <path d="M58.6538462,14.9102564 C58.8076923,14.9102564 58.9487179,14.9230769 59.0641026,14.9358974 C59.1794872,14.9615385 59.2948718,14.9871795 59.3717949,15.0128205 L59.3717949,16.9487179 C59.2692308,16.8717949 59.1282051,16.8076923 58.9358974,16.7435897 C58.7435897,16.6794872 58.5128205,16.6410256 58.2307692,16.6410256 C57.7564103,16.6410256 57.3589744,16.8333333 57.0384615,17.2307692 C56.7179487,17.6282051 56.5512821,18.2307692 56.5512821,19.0641026 L56.5512821,23.1794872 L54.6410256,23.1794872 L54.6410256,15.0384615 L56.5512821,15.0384615 L56.5512821,16.3205128 L56.5769231,16.3205128 C56.7564103,15.8717949 57.0128205,15.525641 57.3717949,15.2820513 C57.7307692,15.0384615 58.1538462,14.9102564 58.6538462,14.9102564" id="Shape" fill="#FFFFFF"></path>
                <path d="M59.474359,19.2307692 C59.474359,17.8846154 59.8589744,16.8205128 60.6153846,16.025641 C61.3717949,15.2435897 62.4358974,14.8461538 63.7820513,14.8461538 C65.0512821,14.8461538 66.0512821,15.2307692 66.7692308,15.9871795 C67.4871795,16.7435897 67.8461538,17.7692308 67.8461538,19.0512821 C67.8461538,20.3717949 67.4615385,21.4230769 66.7051282,22.2051282 C65.9487179,22.9871795 64.9102564,23.3717949 63.6025641,23.3717949 C62.3461538,23.3717949 61.3333333,23 60.6025641,22.2564103 C59.8461538,21.525641 59.474359,20.5128205 59.474359,19.2307692 M61.474359,19.1666667 C61.474359,20.0128205 61.6666667,20.6666667 62.0512821,21.1153846 C62.4358974,21.5641026 62.9871795,21.7820513 63.7051282,21.7820513 C64.3974359,21.7820513 64.9358974,21.5641026 65.2948718,21.1153846 C65.6538462,20.6666667 65.8461538,20 65.8461538,19.1153846 C65.8461538,18.2435897 65.6538462,17.5769231 65.2820513,17.1282051 C64.9102564,16.6794872 64.3717949,16.4615385 63.6923077,16.4615385 C62.9871795,16.4615385 62.4487179,16.6923077 62.0512821,17.1666667 C61.6666667,17.6410256 61.474359,18.2948718 61.474359,19.1666667" id="Shape" fill="#FFFFFF"></path>
                <path d="M70.6923077,17.1794872 C70.6923077,17.4487179 70.7820513,17.6666667 70.9487179,17.8205128 C71.1282051,17.974359 71.5128205,18.1666667 72.1025641,18.4102564 C72.8717949,18.7179487 73.4102564,19.0641026 73.7179487,19.4487179 C74.025641,19.8333333 74.1794872,20.2948718 74.1794872,20.8333333 C74.1794872,21.6025641 73.8846154,22.2179487 73.2948718,22.6794872 C72.7051282,23.1410256 71.9102564,23.3717949 70.9102564,23.3717949 C70.5769231,23.3717949 70.2051282,23.3333333 69.7948718,23.2435897 C69.3846154,23.1666667 69.0384615,23.0512821 68.7564103,22.9358974 L68.7564103,21.0512821 C69.1025641,21.2948718 69.474359,21.4871795 69.8846154,21.6282051 C70.2820513,21.7692308 70.6538462,21.8461538 70.974359,21.8461538 C71.4102564,21.8461538 71.7307692,21.7820513 71.9358974,21.6666667 C72.1410256,21.5512821 72.2435897,21.3461538 72.2435897,21.0512821 C72.2435897,20.7820513 72.1410256,20.5641026 71.9230769,20.3846154 C71.7051282,20.2051282 71.3076923,19.9871795 70.7051282,19.7564103 C70,19.4615385 69.5,19.1282051 69.2051282,18.7564103 C68.9102564,18.3846154 68.7564103,17.9102564 68.7564103,17.3461538 C68.7564103,16.6153846 69.0512821,16.0128205 69.6282051,15.5384615 C70.2051282,15.0641026 70.9615385,14.8333333 71.8974359,14.8333333 C72.1794872,14.8333333 72.5,14.8589744 72.8589744,14.9230769 C73.2179487,14.9871795 73.5128205,15.0641026 73.7435897,15.1666667 L73.7435897,16.9871795 C73.4871795,16.8205128 73.1923077,16.6794872 72.8589744,16.5512821 C72.525641,16.4358974 72.1794872,16.3717949 71.8589744,16.3717949 C71.5,16.3717949 71.2051282,16.4487179 71.0128205,16.5897436 C70.7948718,16.7307692 70.6923077,16.9358974 70.6923077,17.1794872" id="Shape" fill="#FFFFFF"></path>
                <path d="M75.025641,19.2307692 C75.025641,17.8846154 75.4102564,16.8205128 76.1666667,16.025641 C76.9230769,15.2435897 77.9871795,14.8461538 79.3333333,14.8461538 C80.6025641,14.8461538 81.6025641,15.2307692 82.3205128,15.9871795 C83.0384615,16.7435897 83.3974359,17.7692308 83.3974359,19.0512821 C83.3974359,20.3717949 83.0128205,21.4230769 82.2564103,22.2051282 C81.5,22.9871795 80.4615385,23.3717949 79.1538462,23.3717949 C77.8974359,23.3717949 76.8846154,23 76.1538462,22.2564103 C75.3974359,21.525641 75.025641,20.5128205 75.025641,19.2307692 M77.0128205,19.1666667 C77.0128205,20.0128205 77.2051282,20.6666667 77.5897436,21.1153846 C77.974359,21.5641026 78.525641,21.7820513 79.2435897,21.7820513 C79.9358974,21.7820513 80.474359,21.5641026 80.8333333,21.1153846 C81.1923077,20.6666667 81.3846154,20 81.3846154,19.1153846 C81.3846154,18.2435897 81.1923077,17.5769231 80.8205128,17.1282051 C80.4487179,16.6794872 79.9102564,16.4615385 79.2307692,16.4615385 C78.525641,16.4615385 77.9871795,16.6923077 77.5897436,17.1666667 C77.2051282,17.6410256 77.0128205,18.2948718 77.0128205,19.1666667" id="Shape" fill="#FFFFFF"></path>
                <path d="M89.7179487,16.6153846 L89.7179487,20.7948718 C89.7179487,21.6666667 89.9230769,22.3076923 90.3205128,22.7435897 C90.7179487,23.1794872 91.3333333,23.3846154 92.1410256,23.3846154 C92.4102564,23.3846154 92.6923077,23.3589744 92.974359,23.2948718 C93.2564103,23.2307692 93.4615385,23.1794872 93.5769231,23.1025641 L93.5769231,21.5128205 C93.4615385,21.5897436 93.3205128,21.6538462 93.1666667,21.7051282 C93.0128205,21.7564103 92.8717949,21.7820513 92.7692308,21.7820513 C92.3846154,21.7820513 92.0897436,21.6794872 91.9102564,21.474359 C91.7307692,21.2692308 91.6410256,20.9102564 91.6410256,20.4102564 L91.6410256,16.6025641 L93.5897436,16.6025641 L93.5897436,15.0384615 L91.6538462,15.0384615 L91.6538462,12.6282051 L89.7307692,13.2179487 L89.7307692,15.0512821 L86.8717949,15.0512821 L86.8717949,14.0641026 C86.8717949,13.5769231 86.974359,13.2051282 87.1923077,12.9487179 C87.4102564,12.6923077 87.7179487,12.5769231 88.1153846,12.5769231 C88.3205128,12.5769231 88.5,12.6025641 88.6666667,12.6538462 C88.8205128,12.7051282 88.9358974,12.7564103 89,12.7948718 L89,11.1410256 C88.8589744,11.0897436 88.7051282,11.0641026 88.525641,11.0384615 C88.3461538,11.0128205 88.1410256,11 87.9102564,11 C87.0384615,11 86.3205128,11.2692308 85.7692308,11.8205128 C85.2179487,12.3717949 84.9358974,13.0641026 84.9358974,13.9230769 L84.9358974,15.0512821 L83.5769231,15.0512821 L83.5769231,16.6153846 L84.9358974,16.6153846 L84.9358974,23.1923077 L86.8717949,23.1923077 L86.8717949,16.6153846 L89.7179487,16.6153846 L89.7179487,16.6153846 Z" id="Shape" fill="#FFFFFF"></path>
                <polygon id="Shape" fill="#FFFFFF" points="41.7307692 11.8205128 41.7307692 23.1794872 39.7564103 23.1794872 39.7564103 14.2820513 39.7307692 14.2820513 36.2051282 23.1794872 34.8974359 23.1794872 31.2820513 14.2820513 31.2564103 14.2820513 31.2564103 23.1794872 29.4358974 23.1794872 29.4358974 11.8205128 32.2564103 11.8205128 35.525641 20.2435897 35.5769231 20.2435897 39.025641 11.8205128"></polygon>
                <path d="M34.6153846,6.91025641 C33.9358974,7.29487179 33.1666667,7.48717949 32.3076923,7.48717949 C31.6538462,7.48717949 31.0769231,7.34615385 30.5641026,7.05128205 C30.0641026,6.76923077 29.6666667,6.35897436 29.3974359,5.83333333 C29.1282051,5.30769231 28.9871795,4.71794872 28.9871795,4.06410256 C28.9871795,3.37179487 29.1410256,2.74358974 29.4358974,2.20512821 C29.7307692,1.66666667 30.1538462,1.23076923 30.7051282,0.923076923 C31.2564103,0.615384615 31.8717949,0.461538462 32.5641026,0.461538462 C32.9102564,0.461538462 33.2564103,0.5 33.6025641,0.564102564 C33.9487179,0.628205128 34.2307692,0.717948718 34.4487179,0.820512821 L34.4487179,1.84615385 C33.9358974,1.5 33.2820513,1.33333333 32.4871795,1.33333333 C32.0128205,1.33333333 31.5897436,1.44871795 31.2051282,1.67948718 C30.8205128,1.91025641 30.525641,2.23076923 30.3205128,2.62820513 C30.1153846,3.03846154 30.0128205,3.5 30.0128205,4.01282051 C30.0128205,4.82051282 30.2307692,5.46153846 30.6538462,5.93589744 C31.0769231,6.41025641 31.6666667,6.64102564 32.4102564,6.64102564 C32.8846154,6.64102564 33.3076923,6.55128205 33.6666667,6.35897436 L33.6666667,4.6025641 L32.2179487,4.6025641 L32.2179487,3.75641026 L34.6153846,3.75641026 L34.6153846,6.91025641 Z" id="Shape" fill="#FFFFFF"></path>
                <path d="M40.1410256,5.20512821 L36.7820513,5.20512821 C36.7948718,5.69230769 36.9487179,6.06410256 37.2051282,6.33333333 C37.474359,6.58974359 37.8205128,6.73076923 38.2564103,6.73076923 C38.8333333,6.73076923 39.3333333,6.56410256 39.7692308,6.23076923 L39.7692308,7.05128205 C39.5769231,7.17948718 39.3333333,7.29487179 39.0384615,7.37179487 C38.7435897,7.44871795 38.4358974,7.48717949 38.1282051,7.48717949 C37.3974359,7.48717949 36.8205128,7.26923077 36.4230769,6.83333333 C36.025641,6.3974359 35.8205128,5.78205128 35.8205128,4.98717949 C35.8205128,4.5 35.9230769,4.05128205 36.1153846,3.66666667 C36.3076923,3.26923077 36.5897436,2.96153846 36.9358974,2.74358974 C37.2820513,2.52564103 37.6794872,2.41025641 38.1025641,2.41025641 C38.7307692,2.41025641 39.2307692,2.61538462 39.5897436,3.02564103 C39.9487179,3.43589744 40.1282051,4 40.1282051,4.73076923 L40.1282051,5.20512821 L40.1410256,5.20512821 Z M39.2051282,4.47435897 C39.2051282,4.05128205 39.1025641,3.73076923 38.9102564,3.51282051 C38.7179487,3.29487179 38.4487179,3.17948718 38.0897436,3.17948718 C37.7692308,3.17948718 37.4871795,3.29487179 37.2435897,3.52564103 C37,3.75641026 36.8589744,4.07692308 36.7820513,4.47435897 L39.2051282,4.47435897 L39.2051282,4.47435897 Z" id="Shape" fill="#FFFFFF"></path>
                <path d="M43.7820513,7.32051282 C43.6923077,7.37179487 43.5769231,7.41025641 43.4102564,7.43589744 C43.2564103,7.46153846 43.1153846,7.47435897 42.9871795,7.47435897 C42.0897436,7.47435897 41.6410256,6.97435897 41.6410256,5.98717949 L41.6410256,3.29487179 L40.8205128,3.29487179 L40.8205128,2.52564103 L41.6410256,2.52564103 L41.6410256,1.37179487 L42.5769231,1.07692308 L42.5769231,2.51282051 L43.7692308,2.51282051 L43.7692308,3.28205128 L42.5769231,3.28205128 L42.5769231,5.82051282 C42.5769231,6.14102564 42.6282051,6.37179487 42.7307692,6.5 C42.8333333,6.62820513 43.0128205,6.69230769 43.2820513,6.69230769 C43.4615385,6.69230769 43.6282051,6.64102564 43.7692308,6.53846154 L43.7692308,7.32051282 L43.7820513,7.32051282 Z" id="Shape" fill="#FFFFFF"></path>
                <path d="M48.4230769,0.807692308 C48.4230769,0.961538462 48.3717949,1.08974359 48.2564103,1.20512821 C48.1410256,1.32051282 48,1.37179487 47.8333333,1.37179487 C47.6666667,1.37179487 47.525641,1.32051282 47.4102564,1.20512821 C47.2948718,1.1025641 47.2435897,0.961538462 47.2435897,0.794871795 C47.2435897,0.628205128 47.3076923,0.487179487 47.4230769,0.384615385 C47.5384615,0.282051282 47.6794872,0.217948718 47.8333333,0.217948718 C47.9871795,0.217948718 48.1282051,0.269230769 48.2435897,0.384615385 C48.3717949,0.512820513 48.4230769,0.641025641 48.4230769,0.807692308 L48.4230769,0.807692308 Z M48.2948718,7.37179487 L47.3589744,7.37179487 L47.3589744,2.52564103 L48.2948718,2.52564103 L48.2948718,7.37179487 Z" id="Shape" fill="#FFFFFF"></path>
                <path d="M52.3589744,7.32051282 C52.2692308,7.37179487 52.1538462,7.41025641 51.9871795,7.43589744 C51.8333333,7.46153846 51.6923077,7.47435897 51.5641026,7.47435897 C50.6666667,7.47435897 50.2179487,6.97435897 50.2179487,5.98717949 L50.2179487,3.29487179 L49.3974359,3.29487179 L49.3974359,2.52564103 L50.2179487,2.52564103 L50.2179487,1.37179487 L51.1538462,1.07692308 L51.1538462,2.51282051 L52.3461538,2.51282051 L52.3461538,3.28205128 L51.1538462,3.28205128 L51.1538462,5.82051282 C51.1538462,6.14102564 51.2051282,6.37179487 51.3076923,6.5 C51.4102564,6.62820513 51.5897436,6.69230769 51.8589744,6.69230769 C52.0384615,6.69230769 52.2051282,6.64102564 52.3461538,6.53846154 L52.3461538,7.32051282 L52.3589744,7.32051282 Z" id="Shape" fill="#FFFFFF"></path>
                <path d="M58.4871795,0.987179487 C58.3333333,0.91025641 58.1666667,0.858974359 57.974359,0.858974359 C57.4487179,0.858974359 57.1923077,1.17948718 57.1923077,1.82051282 L57.1923077,2.51282051 L58.2948718,2.51282051 L58.2948718,3.28205128 L57.1923077,3.28205128 L57.1923077,7.35897436 L56.2564103,7.35897436 L56.2564103,3.29487179 L55.4358974,3.29487179 L55.4358974,2.52564103 L56.2564103,2.52564103 L56.2564103,1.78205128 C56.2564103,1.26923077 56.3974359,0.858974359 56.6923077,0.551282051 C56.9871795,0.243589744 57.3846154,0.0897435897 57.8974359,0.0897435897 C58.1538462,0.0897435897 58.3461538,0.115384615 58.5,0.179487179 L58.5,0.987179487 L58.4871795,0.987179487 Z" id="Shape" fill="#FFFFFF"></path>
                <path d="M61.9358974,3.46153846 C61.8846154,3.42307692 61.7820513,3.38461538 61.6538462,3.34615385 C61.525641,3.32051282 61.4102564,3.29487179 61.3205128,3.29487179 C60.9871795,3.29487179 60.7179487,3.44871795 60.5128205,3.74358974 C60.3076923,4.03846154 60.2051282,4.42307692 60.2051282,4.8974359 L60.2051282,7.37179487 L59.2692308,7.37179487 L59.2692308,2.52564103 L60.2051282,2.52564103 L60.2051282,3.5 L60.2307692,3.5 C60.3333333,3.16666667 60.5,2.91025641 60.7179487,2.71794872 C60.9358974,2.52564103 61.1923077,2.43589744 61.474359,2.43589744 C61.6666667,2.43589744 61.8205128,2.46153846 61.9230769,2.5 L61.9230769,3.46153846 L61.9358974,3.46153846 Z" id="Shape" fill="#FFFFFF"></path>
                <path d="M67.2820513,4.92307692 C67.2820513,5.70512821 67.0512821,6.33333333 66.6025641,6.79487179 C66.1538462,7.25641026 65.5512821,7.48717949 64.8076923,7.48717949 C64.0769231,7.48717949 63.4871795,7.25641026 63.0512821,6.80769231 C62.6153846,6.35897436 62.3974359,5.75641026 62.3974359,5 C62.3974359,4.19230769 62.6282051,3.56410256 63.0769231,3.1025641 C63.525641,2.64102564 64.1410256,2.41025641 64.9230769,2.41025641 C65.6538462,2.41025641 66.2307692,2.62820513 66.6410256,3.07692308 C67.0769231,3.52564103 67.2820513,4.14102564 67.2820513,4.92307692 M66.3205128,4.94871795 C66.3205128,4.37179487 66.1923077,3.93589744 65.9487179,3.64102564 C65.6923077,3.34615385 65.3461538,3.19230769 64.8846154,3.19230769 C64.4230769,3.19230769 64.0512821,3.34615385 63.7820513,3.66666667 C63.5128205,3.97435897 63.3846154,4.42307692 63.3846154,4.98717949 C63.3846154,5.53846154 63.5128205,5.96153846 63.7820513,6.26923077 C64.0512821,6.57692308 64.4102564,6.73076923 64.8846154,6.73076923 C65.3589744,6.73076923 65.7179487,6.57692308 65.9615385,6.28205128 C66.1923077,5.96153846 66.3205128,5.52564103 66.3205128,4.94871795" id="Shape" fill="#FFFFFF"></path>
                <path d="M75.6538462,7.37179487 L74.7179487,7.37179487 L74.7179487,4.61538462 C74.7179487,4.11538462 74.6410256,3.75641026 74.4871795,3.52564103 C74.3333333,3.29487179 74.0641026,3.19230769 73.6923077,3.19230769 C73.3846154,3.19230769 73.1153846,3.33333333 72.9102564,3.61538462 C72.6923077,3.8974359 72.5897436,4.24358974 72.5897436,4.62820513 L72.5897436,7.37179487 L71.6538462,7.37179487 L71.6538462,4.52564103 C71.6538462,3.64102564 71.3076923,3.19230769 70.6282051,3.19230769 C70.3076923,3.19230769 70.0384615,3.33333333 69.8333333,3.6025641 C69.6282051,3.87179487 69.525641,4.21794872 69.525641,4.64102564 L69.525641,7.38461538 L68.5897436,7.38461538 L68.5897436,2.52564103 L69.525641,2.52564103 L69.525641,3.28205128 L69.5384615,3.28205128 C69.8846154,2.69230769 70.3974359,2.41025641 71.0512821,2.41025641 C71.3589744,2.41025641 71.6410256,2.5 71.8974359,2.66666667 C72.1410256,2.83333333 72.3205128,3.07692308 72.4358974,3.38461538 C72.6282051,3.05128205 72.8461538,2.80769231 73.1153846,2.64102564 C73.3846154,2.48717949 73.6923077,2.3974359 74.0512821,2.3974359 C75.1153846,2.3974359 75.6410256,3.05128205 75.6410256,4.37179487 L75.6410256,7.37179487 L75.6538462,7.37179487 Z" id="Shape" fill="#FFFFFF"></path>
            </g>
        </g>
    </g>
</svg>