<?xml version="1.0" encoding="utf-8"?>
<!-- Generator: Adobe Illustrator 19.1.0, SVG Export Plug-In . SVG Version: 6.00 Build 0)  -->
<svg version="1.1" id="DE_Download_on_the" xmlns="http://www.w3.org/2000/svg" xmlns:xlink="http://www.w3.org/1999/xlink" x="0px"
	 y="0px" viewBox="-412 261 135 40" style="enable-background:new -412 261 135 40;" xml:space="preserve">
<style type="text/css">
	.st0{fill:#A6A6A6;}
	.st1{fill:#FFFFFF;}
</style>
<g>
	<path class="st0" d="M-281.8,301h-125.5c-2.6,0-4.7-2.1-4.7-4.7v-30.5c0-2.6,2.1-4.7,4.7-4.7h125.5c2.6,0,4.8,2.1,4.8,4.7v30.5
		C-277,298.9-279.2,301-281.8,301L-281.8,301z"/>
	<path d="M-278,296.3c0,2.1-1.7,3.8-3.8,3.8h-125.5c-2.1,0-3.8-1.7-3.8-3.8v-30.5c0-2.1,1.7-3.8,3.8-3.8h125.5
		c2.1,0,3.8,1.7,3.8,3.8L-278,296.3L-278,296.3z"/>
	<g>
		<g>
			<path class="st1" d="M-381.9,280.8c0-3.2,2.6-4.8,2.8-4.9c-1.5-2.2-3.9-2.5-4.7-2.5c-2-0.2-3.9,1.2-4.9,1.2c-1,0-2.6-1.2-4.2-1.1
				c-2.1,0-4.1,1.3-5.2,3.2c-2.3,3.9-0.6,9.7,1.6,12.9c1.1,1.6,2.4,3.3,4,3.2c1.6-0.1,2.2-1,4.2-1c1.9,0,2.5,1,4.2,1
				c1.7,0,2.8-1.6,3.9-3.1c1.3-1.8,1.8-3.5,1.8-3.6C-378.5,285.9-381.8,284.6-381.9,280.8z"/>
			<path class="st1" d="M-385.1,271.3c0.9-1.1,1.5-2.6,1.3-4.1c-1.3,0.1-2.8,0.9-3.8,1.9c-0.8,0.9-1.5,2.5-1.3,3.9
				C-387.4,273.2-386,272.4-385.1,271.3z"/>
		</g>
	</g>
	<g>
		<path class="st1" d="M-358.3,292.5h-2.3l-1.2-3.9h-4.3l-1.2,3.9h-2.2l4.3-13.3h2.6L-358.3,292.5z M-362.2,287l-1.1-3.5
			c-0.1-0.4-0.3-1.2-0.7-2.5h0c-0.1,0.6-0.3,1.4-0.6,2.5l-1.1,3.5H-362.2z"/>
		<path class="st1" d="M-347.3,287.6c0,1.6-0.4,2.9-1.3,3.9c-0.8,0.8-1.8,1.3-2.9,1.3c-1.3,0-2.2-0.5-2.7-1.4h0v5.1h-2.1v-10.3
			c0-1,0-2.1-0.1-3.2h1.9l0.1,1.5h0c0.7-1.1,1.8-1.7,3.2-1.7c1.1,0,2.1,0.4,2.8,1.3C-347.7,284.9-347.3,286.1-347.3,287.6z
			 M-349.5,287.7c0-0.9-0.2-1.7-0.6-2.3c-0.5-0.6-1.1-0.9-1.9-0.9c-0.5,0-1,0.2-1.4,0.5c-0.4,0.3-0.7,0.8-0.8,1.4
			c-0.1,0.3-0.1,0.5-0.1,0.7v1.6c0,0.7,0.2,1.3,0.6,1.8c0.4,0.5,1,0.7,1.7,0.7c0.8,0,1.4-0.3,1.9-0.9S-349.5,288.7-349.5,287.7z"/>
		<path class="st1" d="M-336.3,287.6c0,1.6-0.4,2.9-1.3,3.9c-0.8,0.8-1.8,1.3-2.9,1.3c-1.3,0-2.2-0.5-2.7-1.4h0v5.1h-2.1v-10.3
			c0-1,0-2.1-0.1-3.2h1.9l0.1,1.5h0c0.7-1.1,1.8-1.7,3.2-1.7c1.1,0,2.1,0.4,2.8,1.3C-336.6,284.9-336.3,286.1-336.3,287.6z
			 M-338.4,287.7c0-0.9-0.2-1.7-0.6-2.3c-0.5-0.6-1.1-0.9-1.9-0.9c-0.5,0-1,0.2-1.4,0.5c-0.4,0.3-0.7,0.8-0.8,1.4
			c-0.1,0.3-0.1,0.5-0.1,0.7v1.6c0,0.7,0.2,1.3,0.6,1.8c0.4,0.5,1,0.7,1.7,0.7c0.8,0,1.4-0.3,1.9-0.9S-338.4,288.7-338.4,287.7z"/>
		<path class="st1" d="M-323.9,288.8c0,1.1-0.4,2.1-1.2,2.8c-0.9,0.8-2.1,1.2-3.6,1.2c-1.4,0-2.6-0.3-3.4-0.8l0.5-1.8
			c0.9,0.6,2,0.9,3.1,0.9c0.8,0,1.4-0.2,1.9-0.5c0.4-0.4,0.7-0.8,0.7-1.5c0-0.5-0.2-1-0.6-1.4c-0.4-0.4-1-0.7-1.8-1
			c-2.3-0.9-3.5-2.1-3.5-3.8c0-1.1,0.4-2,1.2-2.7c0.8-0.7,1.9-1,3.3-1c1.2,0,2.2,0.2,3,0.6l-0.5,1.7c-0.8-0.4-1.6-0.6-2.5-0.6
			c-0.8,0-1.3,0.2-1.8,0.6c-0.4,0.3-0.5,0.7-0.5,1.2c0,0.5,0.2,1,0.6,1.3c0.4,0.3,1,0.7,1.9,1c1.1,0.5,2,1,2.5,1.6
			C-324.2,287.1-323.9,287.9-323.9,288.8z"/>
		<path class="st1" d="M-316.9,284.5h-2.3v4.7c0,1.2,0.4,1.8,1.2,1.8c0.4,0,0.7,0,0.9-0.1l0.1,1.6c-0.4,0.2-1,0.2-1.7,0.2
			c-0.8,0-1.5-0.3-2-0.8c-0.5-0.5-0.7-1.4-0.7-2.6v-4.8h-1.4v-1.6h1.4v-1.8l2.1-0.6v2.4h2.4C-316.9,282.9-316.9,284.5-316.9,284.5z"
			/>
		<path class="st1" d="M-306.3,287.6c0,1.5-0.4,2.7-1.3,3.6c-0.9,1-2.1,1.5-3.5,1.5c-1.4,0-2.5-0.5-3.4-1.4
			c-0.8-0.9-1.3-2.1-1.3-3.5c0-1.5,0.4-2.7,1.3-3.7c0.9-0.9,2-1.4,3.5-1.4c1.4,0,2.5,0.5,3.4,1.4
			C-306.7,285-306.3,286.2-306.3,287.6z M-308.5,287.7c0-0.9-0.2-1.6-0.6-2.3c-0.4-0.8-1.1-1.1-1.9-1.1c-0.9,0-1.5,0.4-2,1.1
			c-0.4,0.6-0.6,1.4-0.6,2.3c0,0.9,0.2,1.6,0.6,2.3c0.5,0.8,1.1,1.1,1.9,1.1c0.8,0,1.5-0.4,1.9-1.2
			C-308.7,289.3-308.5,288.6-308.5,287.7z"/>
		<path class="st1" d="M-299.3,284.8c-0.2,0-0.4-0.1-0.7-0.1c-0.8,0-1.3,0.3-1.7,0.9c-0.4,0.5-0.5,1.1-0.5,1.9v5h-2.1l0-6.6
			c0-1.1,0-2.1-0.1-3h1.9l0.1,1.8h0.1c0.2-0.6,0.6-1.1,1.1-1.5c0.5-0.3,1-0.5,1.5-0.5c0.2,0,0.4,0,0.5,0V284.8z"/>
		<path class="st1" d="M-289.8,287.3c0,0.4,0,0.7-0.1,1h-6.4c0,0.9,0.3,1.7,0.9,2.2c0.5,0.4,1.2,0.7,2.1,0.7c0.9,0,1.8-0.1,2.6-0.5
			l0.3,1.5c-0.9,0.4-2,0.6-3.2,0.6c-1.5,0-2.7-0.4-3.5-1.3c-0.8-0.9-1.3-2.1-1.3-3.5c0-1.4,0.4-2.7,1.2-3.6c0.8-1,1.9-1.5,3.4-1.5
			c1.4,0,2.4,0.5,3.1,1.5C-290.1,285-289.8,286.1-289.8,287.3z M-291.8,286.7c0-0.6-0.1-1.2-0.4-1.6c-0.4-0.6-0.9-0.9-1.7-0.9
			c-0.7,0-1.3,0.3-1.7,0.9c-0.4,0.5-0.6,1-0.6,1.7L-291.8,286.7L-291.8,286.7z"/>
	</g>
	<g>
		<g>
			<path class="st1" d="M-364.6,274.4h-3.7v-6.5h1v5.7h2.7V274.4z"/>
			<path class="st1" d="M-359.6,274.4h-0.9l-0.1-0.5h0c-0.3,0.4-0.8,0.6-1.4,0.6c-0.4,0-0.8-0.1-1.1-0.4c-0.2-0.3-0.4-0.6-0.4-1
				c0-0.6,0.2-1,0.7-1.3c0.5-0.3,1.2-0.5,2-0.4v-0.1c0-0.6-0.3-0.9-1-0.9c-0.5,0-0.9,0.1-1.2,0.3l-0.2-0.7c0.4-0.3,1-0.4,1.6-0.4
				c1.2,0,1.9,0.6,1.9,2v1.7C-359.7,273.8-359.7,274.2-359.6,274.4z M-360.7,272.8v-0.7c-1.2,0-1.7,0.3-1.7,1c0,0.2,0.1,0.4,0.2,0.6
				c0.1,0.1,0.3,0.2,0.5,0.2c0.2,0,0.4-0.1,0.6-0.2c0.2-0.1,0.3-0.3,0.4-0.6C-360.7,272.9-360.7,272.9-360.7,272.8z"/>
			<path class="st1" d="M-353.7,274.4h-0.9l0-0.8h0c-0.3,0.6-0.8,0.9-1.5,0.9c-0.6,0-1-0.2-1.4-0.7c-0.4-0.4-0.6-1-0.6-1.7
				c0-0.8,0.2-1.4,0.6-1.9c0.4-0.4,0.9-0.7,1.5-0.7c0.6,0,1.1,0.2,1.3,0.6h0v-2.7h1v5.6C-353.7,273.6-353.7,274-353.7,274.4z
				 M-354.8,272.4v-0.8c0-0.1,0-0.2,0-0.3c-0.1-0.3-0.2-0.5-0.4-0.6c-0.2-0.2-0.4-0.3-0.7-0.3c-0.4,0-0.7,0.2-0.9,0.5
				c-0.2,0.3-0.3,0.7-0.3,1.2c0,0.5,0.1,0.8,0.3,1.1c0.2,0.3,0.5,0.5,0.9,0.5c0.3,0,0.6-0.1,0.8-0.4
				C-354.9,273.1-354.8,272.8-354.8,272.4z"/>
			<path class="st1" d="M-348,271.9c0,0.2,0,0.3,0,0.5h-3.1c0,0.5,0.2,0.8,0.5,1.1c0.3,0.2,0.6,0.3,1,0.3c0.5,0,0.9-0.1,1.3-0.2
				l0.2,0.7c-0.4,0.2-1,0.3-1.6,0.3c-0.7,0-1.3-0.2-1.7-0.6s-0.6-1-0.6-1.7c0-0.7,0.2-1.3,0.6-1.8c0.4-0.5,1-0.8,1.6-0.8
				c0.7,0,1.2,0.3,1.5,0.8C-348.1,270.8-348,271.3-348,271.9z M-349,271.6c0-0.3-0.1-0.6-0.2-0.8c-0.2-0.3-0.5-0.4-0.8-0.4
				c-0.3,0-0.6,0.1-0.8,0.4c-0.2,0.2-0.3,0.5-0.3,0.8C-351.2,271.6-349,271.6-349,271.6z"/>
			<path class="st1" d="M-342.4,274.4h-1v-2.7c0-0.8-0.3-1.2-1-1.2c-0.3,0-0.6,0.1-0.8,0.3c-0.2,0.2-0.3,0.5-0.3,0.8v2.8h-1v-3.4
				c0-0.4,0-0.9,0-1.3h0.9l0,0.7h0c0.1-0.2,0.3-0.4,0.5-0.6c0.3-0.2,0.6-0.3,1-0.3c0.4,0,0.8,0.1,1.1,0.4c0.4,0.3,0.5,0.9,0.5,1.6
				V274.4z"/>
			<path class="st1" d="M-336.5,268.3c0,0.2-0.1,0.3-0.2,0.5c-0.1,0.1-0.3,0.2-0.5,0.2c-0.2,0-0.3-0.1-0.4-0.2
				c-0.1-0.1-0.2-0.3-0.2-0.5s0.1-0.3,0.2-0.4s0.3-0.2,0.5-0.2c0.2,0,0.3,0.1,0.5,0.2C-336.6,268-336.5,268.1-336.5,268.3z
				 M-336.6,274.4h-1v-4.7h1V274.4z"/>
			<path class="st1" d="M-328,274.4h-1v-2.6c0-0.9-0.3-1.3-0.9-1.3c-0.3,0-0.5,0.1-0.7,0.3c-0.2,0.2-0.3,0.5-0.3,0.8v2.9h-1v-2.8
				c0-0.4-0.1-0.6-0.2-0.9c-0.1-0.2-0.4-0.3-0.6-0.3c-0.3,0-0.5,0.1-0.7,0.3c-0.2,0.2-0.3,0.5-0.3,0.8v2.8h-1v-3.4
				c0-0.4,0-0.9,0-1.3h0.9l0,0.7h0c0.3-0.5,0.8-0.8,1.4-0.8c0.6,0,1.1,0.3,1.3,0.9h0c0.1-0.2,0.3-0.4,0.6-0.6c0.3-0.2,0.6-0.3,1-0.3
				c0.4,0,0.8,0.1,1,0.4c0.3,0.4,0.5,0.9,0.5,1.6L-328,274.4L-328,274.4z"/>
		</g>
	</g>
</g>
</svg>
