<svg xmlns="http://www.w3.org/2000/svg" width="135" height="40" viewBox="0 0 135 40">
  <g fill="none">
    <rect width="135" height="40" fill="#000000"/>
    <g fill="#FFFFFF" transform="translate(12 6)">
      <path d="M18.1279 13.7842C18.0991 10.561 20.7671 8.9932 20.8892 8.9199 19.3779 6.7168 17.0361 6.416 16.2129 6.3921 14.2461 6.1851 12.3379 7.5688 11.3359 7.5688 10.314 7.5688 8.771 6.4121 7.1079 6.4458 4.9678 6.479 2.9658 7.7178 1.8682 9.6421-.3979 13.5649 1.292 19.3301 3.4629 22.501 4.5488 24.0547 5.8179 25.7881 7.479 25.7266 9.104 25.6611 9.7109 24.6914 11.6719 24.6914 13.6152 24.6914 14.1851 25.7266 15.8789 25.6875 17.623 25.6611 18.7212 24.1279 19.769 22.5605 21.0239 20.7822 21.5278 19.0273 21.5479 18.9375 21.5068 18.9238 18.1611 17.6465 18.1279 13.7842zM14.9282 4.3062C15.8022 3.2129 16.3999 1.7261 16.2339.2168 14.9692.2729 13.3872 1.0918 12.4761 2.1611 11.6699 3.103 10.9502 4.647 11.1362 6.0991 12.5571 6.2051 14.0161 5.3818 14.9282 4.3062z"/>
    </g>
    <g fill="#FFFFFF" transform="translate(42 18)">
      <path d="M11.645 13.5039L9.374 13.5039 8.1299 9.5947 3.8062 9.5947 2.6211 13.5039.4102 13.5039 4.6938.1958 7.3398.1958 11.645 13.5039zM7.7549 7.9551L6.6299 4.4805C6.5112 4.125 6.2881 3.2891 5.959 1.9731L5.9189 1.9731C5.7881 2.5391 5.5771 3.375 5.2871 4.4805L4.1821 7.9551 7.7549 7.9551zM22.6621 8.5879C22.6621 10.2197 22.2212 11.5098 21.3389 12.457 20.5488 13.2998 19.5679 13.7207 18.397 13.7207 17.1328 13.7207 16.2251 13.2676 15.6719 12.3594L15.6318 12.3594 15.6318 17.415 13.5 17.415 13.5 7.0664C13.5 6.041 13.4731 4.9883 13.4209 3.9082L15.2959 3.9082 15.415 5.4297 15.4551 5.4297C16.166 4.2832 17.2451 3.71 18.6929 3.71 19.8252 3.71 20.77 4.1572 21.5259 5.0518 22.2842 5.9492 22.6621 7.127 22.6621 8.5879zM20.4902 8.666C20.4902 7.7324 20.2798 6.9619 19.8579 6.3555 19.397 5.7246 18.7778 5.4082 18.002 5.4082 17.4761 5.4082 16.998 5.584 16.5708 5.9316 16.1431 6.2813 15.8628 6.7383 15.7319 7.3047 15.666 7.5684 15.6328 7.7832 15.6328 7.9531L15.6328 9.5547C15.6328 10.251 15.8472 10.8398 16.2749 11.3223 16.7031 11.8018 17.2588 12.043 17.9429 12.043 18.7461 12.043 19.3711 11.7324 19.8179 11.1152 20.2661 10.4961 20.4902 9.6797 20.4902 8.666zM33.6992 8.5879C33.6992 10.2197 33.2578 11.5098 32.375 12.457 31.5859 13.2998 30.6055 13.7207 29.4336 13.7207 28.1699 13.7207 27.2617 13.2676 26.71 12.3594L26.6699 12.3594 26.6699 17.415 24.5381 17.415 24.5381 7.0664C24.5381 6.041 24.5112 4.9883 24.459 3.9082L26.334 3.9082 26.4531 5.4297 26.4932 5.4297C27.2031 4.2832 28.2822 3.71 29.7305 3.71 30.8613 3.71 31.8066 4.1572 32.5645 5.0518 33.3203 5.9492 33.6992 7.127 33.6992 8.5879zM31.5273 8.666C31.5273 7.7324 31.3164 6.9619 30.8945 6.3555 30.4336 5.7246 29.8164 5.4082 29.0391 5.4082 28.5117 5.4082 28.0352 5.584 27.6074 5.9316 27.1797 6.2813 26.9004 6.7383 26.7695 7.3047 26.7041 7.5684 26.6689 7.7832 26.6689 7.9531L26.6689 9.5547C26.6689 10.251 26.8828 10.8398 27.3105 11.3223 27.7383 11.8008 28.293 12.043 28.9805 12.043 29.7832 12.043 30.4082 11.7324 30.8555 11.1152 31.3027 10.4961 31.5273 9.6797 31.5273 8.666zM46.0391 9.7715C46.0391 10.9043 45.6465 11.8252 44.8574 12.5361 43.9902 13.3125 42.7832 13.7012 41.2324 13.7012 39.7988 13.7012 38.6523 13.4248 37.7832 12.8721L38.2773 11.0947C39.2129 11.6611 40.2402 11.9453 41.3594 11.9453 42.1621 11.9453 42.7871 11.7637 43.2363 11.4004 43.6836 11.04 43.9063 10.5527 43.9063 9.9482 43.9063 9.4082 43.7227 8.9531 43.3535 8.584 42.9863 8.2148 42.373 7.8721 41.5176 7.5566 39.1875 6.6875 38.0234 5.4131 38.0234 3.7402 38.0234 2.6465 38.4316 1.749 39.248 1.0508 40.0625.3521 41.1484.0029 42.5059.0029 43.7168.0029 44.7227.2139 45.5254.6348L44.9941 2.373C44.2441 1.9648 43.3945 1.7607 42.4453 1.7607 41.6953 1.7607 41.1094 1.9458 40.6895 2.314 40.3359 2.6426 40.1582 3.0439 40.1582 3.5195 40.1582 4.0449 40.3594 4.4805 40.7676 4.8232 41.123 5.1387 41.7676 5.4805 42.7051 5.8496 43.8516 6.3105 44.6895 6.8496 45.2305 7.4668 45.7695 8.0811 46.0391 8.8516 46.0391 9.7715zM53.0879 5.5078L50.7383 5.5078 50.7383 10.167C50.7383 11.3516 51.1523 11.9434 51.9824 11.9434 52.3633 11.9434 52.6797 11.9111 52.9297 11.8438L52.9883 13.4629C52.5684 13.6201 52.0156 13.6992 51.3301 13.6992 50.4883 13.6992 49.8301 13.4414 49.3555 12.9277 48.8809 12.4141 48.6445 11.5527 48.6445 10.3408L48.6445 5.5039 47.2441 5.5039 47.2441 3.9043 48.6445 3.9043 48.6445 2.147 50.7383 1.5151 50.7383 3.9043 53.0879 3.9043 53.0879 5.5078zM63.6914 8.627C63.6914 10.1016 63.2695 11.3125 62.4277 12.2598 61.543 13.2344 60.3711 13.7207 58.9102 13.7207 57.502 13.7207 56.3809 13.2539 55.5449 12.3203 54.709 11.3857 54.291 10.208 54.291 8.7871 54.291 7.2998 54.7227 6.082 55.584 5.1348 56.4434 4.1875 57.6055 3.7129 59.0664 3.7129 60.4746 3.7129 61.6074 4.1816 62.4629 5.1152 63.2832 6.0215 63.6914 7.1914 63.6914 8.627zM61.4785 8.6953C61.4785 7.8105 61.291 7.0508 60.9082 6.4189 60.4609 5.6523 59.8203 5.2715 58.9941 5.2715 58.1387 5.2715 57.4844 5.6553 57.0391 6.4189 56.6543 7.0527 56.4668 7.8242 56.4668 8.7363 56.4668 9.6211 56.6543 10.3799 57.0391 11.0107 57.5 11.7773 58.1426 12.1592 58.9766 12.1592 59.7891 12.1592 60.4277 11.7676 60.8906 10.9912 61.2813 10.3477 61.4785 9.5801 61.4785 8.6953zM70.6211 5.7832C70.4102 5.7441 70.1855 5.7246 69.9492 5.7246 69.1992 5.7246 68.6191 6.0059 68.2109 6.5742 67.8555 7.0742 67.6777 7.7061 67.6777 8.4688L67.6777 13.5039 65.5469 13.5039 65.5664 6.9297C65.5664 5.8252 65.541 4.8164 65.4863 3.9092L67.3438 3.9092 67.4219 5.7451 67.4805 5.7451C67.707 5.1143 68.0605 4.6055 68.5469 4.2246 69.0215 3.8809 69.5352 3.71 70.0879 3.71 70.2852 3.71 70.4629 3.7246 70.6211 3.749L70.6211 5.7832zM80.1563 8.252C80.1563 8.6338 80.1309 8.9561 80.0781 9.2188L73.6816 9.2188C73.707 10.167 74.0156 10.8926 74.6094 11.3926 75.1484 11.8389 75.8457 12.0625 76.7031 12.0625 77.6484 12.0625 78.5156 11.9131 79.291 11.6094L79.625 13.0889C78.7168 13.4844 77.6465 13.6816 76.4082 13.6816 74.9199 13.6816 73.752 13.2441 72.9004 12.3691 72.0527 11.4941 71.6289 10.3184 71.6289 8.8457 71.6289 7.3984 72.0254 6.1934 72.8164 5.2324 73.6445 4.207 74.7637 3.6934 76.1699 3.6934 77.5527 3.6934 78.6016 4.207 79.3125 5.2324 79.873 6.0469 80.1563 7.0547 80.1563 8.252zM78.123 7.6992C78.1367 7.0664 77.998 6.5215 77.709 6.0605 77.3398 5.4658 76.7734 5.1699 76.0098 5.1699 75.3125 5.1699 74.7461 5.459 74.3125 6.0391 73.959 6.5 73.748 7.0547 73.6816 7.6973L78.123 7.6992 78.123 7.6992z"/>
    </g>
    <g fill="#FFFFFF" transform="translate(43 6)">
      <path d="M6.0498 4.0088C6.0498 5.186 5.6968 6.0723 4.9922 6.667 4.3389 7.2158 3.4111 7.4912 2.209 7.4912 1.6128 7.4912 1.103 7.4648.6758 7.4131L.6758.9819C1.2329.8921 1.833.8462 2.481.8462 3.626.8462 4.4888 1.0947 5.0708 1.5928 5.7231 2.1563 6.0498 2.9609 6.0498 4.0088zM4.9448 4.0381C4.9448 3.2749 4.7432 2.6899 4.3389 2.2822 3.9351 1.875 3.3452 1.6709 2.5679 1.6709 2.2378 1.6709 1.957 1.6929 1.7241 1.7393L1.7241 6.6279C1.853 6.6479 2.0889 6.6572 2.4321 6.6572 3.2339 6.6572 3.853 6.4341 4.2891 5.9878 4.7251 5.542 4.9448 4.8921 4.9448 4.0381zM11.9092 5.0371C11.9092 5.7622 11.7021 6.356 11.2881 6.8223 10.854 7.3008 10.2788 7.54 9.561 7.54 8.8691 7.54 8.3179 7.311 7.9072 6.8511 7.4971 6.3921 7.292 5.813 7.292 5.1152 7.292 4.3848 7.5029 3.7861 7.9268 3.3208 8.3511 2.856 8.9209 2.623 9.6392 2.623 10.3311 2.623 10.8872 2.8521 11.3081 3.311 11.708 3.7568 11.9092 4.333 11.9092 5.0371zM10.8218 5.0708C10.8218 4.6357 10.728 4.2632 10.541 3.9521 10.3208 3.5762 10.0078 3.3882 9.6011 3.3882 9.1802 3.3882 8.8599 3.5762 8.6401 3.9521 8.4521 4.2632 8.3589 4.6421 8.3589 5.0898 8.3589 5.5249 8.4531 5.8979 8.6401 6.209 8.8672 6.585 9.1831 6.7729 9.5908 6.7729 9.9912 6.7729 10.3052 6.582 10.5308 6.1992 10.7251 5.8818 10.8218 5.5059 10.8218 5.0708zM19.7651 2.7188L18.29 7.4331 17.3301 7.4331 16.7192 5.3857C16.564 4.875 16.438 4.3672 16.3398 3.8628L16.3208 3.8628C16.23 4.3809 16.104 4.8882 15.9419 5.3857L15.293 7.4331 14.3218 7.4331 12.9351 2.7188 14.0122 2.7188 14.5449 4.96C14.6738 5.4902 14.7798 5.9951 14.8652 6.4731L14.8838 6.4731C14.9619 6.0791 15.0908 5.5771 15.2729 4.9697L15.9419 2.7197 16.7959 2.7197 17.437 4.9219C17.5918 5.459 17.7178 5.9761 17.8149 6.4741L17.8442 6.4741C17.915 5.9893 18.022 5.4722 18.1641 4.9219L18.7358 2.7197 19.7651 2.7188 19.7651 2.7188zM25.1973 7.4331L24.1499 7.4331 24.1499 4.7329C24.1499 3.9009 23.834 3.4849 23.2002 3.4849 22.8892 3.4849 22.6382 3.5991 22.4429 3.8281 22.25 4.0571 22.1519 4.3271 22.1519 4.6357L22.1519 7.4321 21.104 7.4321 21.104 4.0659C21.104 3.6519 21.0908 3.2031 21.0659 2.7168L21.9868 2.7168 22.0361 3.4541 22.0649 3.4541C22.187 3.2251 22.3691 3.0361 22.6079 2.8848 22.8921 2.709 23.21 2.6201 23.5581 2.6201 23.998 2.6201 24.3638 2.7622 24.6548 3.0469 25.0176 3.396 25.1973 3.917 25.1973 4.6089L25.1973 7.4331z"/>
      <polygon points="28.088 7.433 27.041 7.433 27.041 .556 28.088 .556"/>
      <path d="M34.2578 5.0371C34.2578 5.7622 34.0508 6.356 33.6367 6.8223 33.2031 7.3008 32.627 7.54 31.9102 7.54 31.2168 7.54 30.666 7.311 30.2559 6.8511 29.8457 6.3921 29.6406 5.813 29.6406 5.1152 29.6406 4.3848 29.8516 3.7861 30.2754 3.3208 30.7012 2.856 31.2695 2.623 31.9863 2.623 32.6797 2.623 33.2344 2.8521 33.6582 3.311 34.0566 3.7568 34.2578 4.333 34.2578 5.0371zM33.1699 5.0708C33.1699 4.6357 33.0762 4.2632 32.8887 3.9521 32.6699 3.5762 32.3555 3.3882 31.9512 3.3882 31.5273 3.3882 31.209 3.5762 30.9883 3.9521 30.8008 4.2632 30.709 4.6421 30.709 5.0898 30.709 5.5249 30.8047 5.8979 30.9883 6.209 31.2168 6.585 31.5332 6.7729 31.9395 6.7729 32.3398 6.7729 32.6523 6.582 32.8789 6.1992 33.0742 5.8818 33.1699 5.5059 33.1699 5.0708zM39.3301 7.4331L38.3887 7.4331 38.3105 6.8901 38.2832 6.8901C37.9609 7.3232 37.502 7.54 36.9043 7.54 36.4609 7.54 36.0996 7.397 35.8301 7.1128 35.584 6.855 35.4609 6.5342 35.4609 6.1528 35.4609 5.5771 35.7012 5.1382 36.1855 4.834 36.666 4.5303 37.3438 4.3809 38.2168 4.3882L38.2168 4.2998C38.2168 3.6792 37.8926 3.3691 37.2383 3.3691 36.7734 3.3691 36.3633 3.4858 36.0088 3.7178L35.7949 3.0303C36.2324 2.7588 36.7734 2.623 37.4121 2.623 38.6445 2.623 39.2617 3.2729 39.2617 4.5732L39.2617 6.3091C39.2617 6.7803 39.2852 7.1553 39.3301 7.4331zM38.2422 5.813L38.2422 5.0859C37.0859 5.0659 36.5078 5.3828 36.5078 6.0361 36.5078 6.2822 36.5742 6.4658 36.709 6.5889 36.8438 6.7119 37.0156 6.7729 37.2207 6.7729 37.4512 6.7729 37.666 6.7002 37.8613 6.5552 38.0586 6.4092 38.1797 6.2241 38.2246 5.9971 38.2363 5.9458 38.2422 5.8838 38.2422 5.813zM45.2852 7.4331L44.3555 7.4331 44.3066 6.6758 44.2773 6.6758C43.9805 7.252 43.4746 7.54 42.7637 7.54 42.1953 7.54 41.7227 7.3169 41.3477 6.8711 40.9727 6.4248 40.7842 5.8462 40.7842 5.1348 40.7842 4.3721 40.9863 3.7539 41.3945 3.2822 41.79 2.8418 42.2734 2.6221 42.8496 2.6221 43.4824 2.6221 43.9258 2.835 44.1777 3.2622L44.1973 3.2622 44.1973.5562 45.2471.5562 45.2471 6.1631C45.248 6.6221 45.2598 7.0449 45.2852 7.4331zM44.1992 5.4448L44.1992 4.6592C44.1992 4.5229 44.1895 4.4131 44.1699 4.3291 44.1113 4.0771 43.9844 3.8652 43.791 3.6938 43.5957 3.5229 43.3613 3.437 43.0898 3.437 42.6992 3.437 42.3926 3.5918 42.168 3.9028 41.9453 4.2139 41.832 4.6108 41.832 5.0962 41.832 5.562 41.9395 5.9399 42.1543 6.231 42.3809 6.541 42.6875 6.6958 43.0703 6.6958 43.4141 6.6958 43.6895 6.5669 43.8984 6.3081 44.0996 6.0688 44.1992 5.7813 44.1992 5.4448zM54.248 5.0371C54.248 5.7622 54.041 6.356 53.627 6.8223 53.1934 7.3008 52.6191 7.54 51.9004 7.54 51.209 7.54 50.6582 7.311 50.2461 6.8511 49.8359 6.3921 49.6309 5.813 49.6309 5.1152 49.6309 4.3848 49.8418 3.7861 50.2656 3.3208 50.6895 2.856 51.2598 2.623 51.9785 2.623 52.6699 2.623 53.2266 2.8521 53.6465 3.311 54.0469 3.7568 54.248 4.333 54.248 5.0371zM53.1621 5.0708C53.1621 4.6357 53.0684 4.2632 52.8809 3.9521 52.6602 3.5762 52.3477 3.3882 51.9395 3.3882 51.5195 3.3882 51.2012 3.5762 50.9785 3.9521 50.791 4.2632 50.6992 4.6421 50.6992 5.0898 50.6992 5.5249 50.793 5.8979 50.9785 6.209 51.207 6.585 51.5215 6.7729 51.9297 6.7729 52.3301 6.7729 52.6445 6.582 52.8711 6.1992 53.0645 5.8818 53.1621 5.5059 53.1621 5.0708zM59.8828 7.4331L58.8359 7.4331 58.8359 4.7329C58.8359 3.9009 58.5195 3.4849 57.8848 3.4849 57.5742 3.4849 57.3232 3.5991 57.1289 3.8281 56.9355 4.0571 56.8379 4.3271 56.8379 4.6357L56.8379 7.4321 55.7891 7.4321 55.7891 4.0659C55.7891 3.6519 55.7773 3.2031 55.752 2.7168L56.6719 2.7168 56.7207 3.4541 56.75 3.4541C56.873 3.2251 57.0547 3.0361 57.293 2.8848 57.5781 2.709 57.8945 2.6201 58.2441 2.6201 58.6836 2.6201 59.0488 2.7622 59.3398 3.0469 59.7031 3.396 59.8828 3.917 59.8828 4.6089L59.8828 7.4331zM66.9355 3.5039L65.7832 3.5039 65.7832 5.7939C65.7832 6.376 65.9863 6.667 66.3926 6.667 66.5811 6.667 66.7363 6.6509 66.8594 6.6182L66.8867 7.4131C66.6797 7.4912 66.4082 7.5303 66.0723 7.5303 65.6602 7.5303 65.3379 7.4038 65.1035 7.1519 64.8701 6.8999 64.7539 6.4761 64.7539 5.8809L64.7539 3.5039 64.0645 3.5039 64.0645 2.7188 64.7539 2.7188 64.7539 1.855 65.7813 1.5449 65.7813 2.7178 66.9355 2.7178 66.9355 3.5039 66.9355 3.5039zM72.4844 7.4331L71.4355 7.4331 71.4355 4.7529C71.4355 3.9082 71.1191 3.4849 70.4863 3.4849 70 3.4849 69.668 3.73 69.4863 4.2197 69.4551 4.3242 69.4375 4.4492 69.4375 4.5972L69.4375 7.4321 68.3906 7.4321 68.3906.5562 69.4375.5562 69.4375 3.397 69.457 3.397C69.7871 2.8799 70.2598 2.6221 70.873 2.6221 71.3066 2.6221 71.666 2.7642 71.9512 3.0488 72.3066 3.4038 72.4844 3.9321 72.4844 4.6299L72.4844 7.4331zM78.207 4.853C78.207 5.041 78.1934 5.1992 78.168 5.3281L75.0254 5.3281C75.0391 5.7939 75.1895 6.1489 75.4805 6.395 75.7461 6.6152 76.0879 6.7251 76.5078 6.7251 76.9746 6.7251 77.3984 6.6509 77.7793 6.502L77.9434 7.23C77.4971 7.4238 76.9707 7.521 76.3613 7.521 75.6318 7.521 75.0566 7.3062 74.6406 6.876 74.2227 6.4458 74.0156 5.8691 74.0156 5.145 74.0156 4.4341 74.208 3.8418 74.5977 3.3701 75.0029 2.8662 75.5527 2.6143 76.2451 2.6143 76.9229 2.6143 77.4375 2.8662 77.7861 3.3701 78.0684 3.77 78.207 4.2651 78.207 4.853zM77.207 4.582C77.2148 4.271 77.1465 4.0029 77.0039 3.7769 76.8223 3.4858 76.5449 3.3398 76.1699 3.3398 75.8281 3.3398 75.5488 3.4819 75.3359 3.7671 75.1621 3.9941 75.0586 4.2651 75.0254 4.582L77.207 4.582z"/>
    </g>
  </g>
</svg>
