<?xml version="1.0" encoding="UTF-8"?>
<svg width="135px" height="40px" viewBox="0 0 135 40" version="1.1" xmlns="http://www.w3.org/2000/svg" xmlns:xlink="http://www.w3.org/1999/xlink">
    <!-- Generator: Sketch 44.1 (41455) - http://www.bohemiancoding.com/sketch -->
    <title>btn-microsoft-fr</title>
    <desc>Created with Sketch.</desc>
    <defs></defs>
    <g id="Page-1" stroke="none" stroke-width="1" fill="none" fill-rule="evenodd">
        <g id="btn-microsoft-fr">
            <rect id="Rectangle-path" fill="#000000" fill-rule="nonzero" x="0" y="0" width="135" height="40"></rect>
            <g id="Layer_1" transform="translate(12.000000, 8.000000)">
                <path d="M43.5747945,12.7106145 C43.5747945,12.375419 43.6906849,12.1072626 43.9224658,11.8793296 C44.1542466,11.6513966 44.4246575,11.5441341 44.7465753,11.5441341 C45.0813699,11.5441341 45.3646575,11.6648045 45.5835616,11.8927374 C45.8024658,12.1206704 45.9183562,12.4022346 45.9183562,12.7106145 C45.9183562,13.0324022 45.8024658,13.3139665 45.5706849,13.5284916 C45.3389041,13.7564246 45.0684932,13.8636872 44.7336986,13.8636872 C44.3989041,13.8636872 44.1284932,13.7564246 43.8967123,13.5284916 C43.6778082,13.3005587 43.5747945,13.0324022 43.5747945,12.7106145 L43.5747945,12.7106145 Z M45.6994521,23.6782123 L43.7679452,23.6782123 L43.7679452,15.1642458 L45.6994521,15.1642458 L45.6994521,23.6782123 Z" id="Shape" fill="#FFFFFF" fill-rule="nonzero"></path>
                <path d="M51.5326027,22.2301676 C51.8158904,22.2301676 52.1378082,22.1631285 52.4726027,22.0290503 C52.820274,21.8949721 53.1293151,21.7072626 53.4254795,21.4793296 L53.4254795,23.3296089 C53.1164384,23.5173184 52.7687671,23.6513966 52.3824658,23.7452514 C51.9961644,23.8391061 51.5583562,23.8927374 51.0947945,23.8927374 C49.8972603,23.8927374 48.9186301,23.4905028 48.1589041,22.6994413 C47.3991781,21.9083799 47.0257534,20.8893855 47.0257534,19.6692737 C47.0257534,18.301676 47.4120548,17.175419 48.1846575,16.2905028 C48.9572603,15.4055866 50.0389041,14.9631285 51.4553425,14.9631285 C51.8158904,14.9631285 52.1764384,15.0167598 52.549863,15.1106145 C52.9232877,15.2044693 53.2065753,15.3251397 53.4254795,15.4458101 L53.4254795,17.3631285 C53.1293151,17.1351955 52.820274,16.9608939 52.5112329,16.8402235 C52.2021918,16.7195531 51.880274,16.652514 51.5583562,16.652514 C50.7986301,16.652514 50.1934247,16.9072626 49.7169863,17.4167598 C49.2534247,17.926257 49.0216438,18.6234637 49.0216438,19.4949721 C49.0216438,20.3530726 49.2405479,21.0234637 49.6912329,21.5061453 C50.1419178,21.9888268 50.76,22.2301676 51.5326027,22.2301676" id="Shape" fill="#FFFFFF" fill-rule="nonzero"></path>
                <path d="M58.9109589,15.0301676 C59.0654795,15.0301676 59.2071233,15.0435754 59.3230137,15.0569832 C59.4517808,15.0837989 59.5547945,15.1106145 59.6320548,15.1374302 L59.6320548,17.1620112 C59.5290411,17.0815642 59.3873973,17.0145251 59.1942466,16.947486 C59.0010959,16.8804469 58.7693151,16.8402235 58.4860274,16.8402235 C58.009589,16.8402235 57.610411,17.0413408 57.2884932,17.4569832 C56.9665753,17.8726257 56.7991781,18.5027933 56.7991781,19.3743017 L56.7991781,23.6782123 L54.8805479,23.6782123 L54.8805479,15.1642458 L56.7991781,15.1642458 L56.7991781,16.5050279 L56.8249315,16.5050279 C57.0052055,16.0357542 57.2627397,15.673743 57.6232877,15.4189944 C57.9838356,15.1642458 58.4216438,15.0301676 58.9109589,15.0301676" id="Shape" fill="#FFFFFF" fill-rule="nonzero"></path>
                <path d="M59.7479452,19.5486034 C59.7479452,18.1407821 60.1342466,17.027933 60.8939726,16.196648 C61.6536986,15.3787709 62.7224658,14.9631285 64.0745205,14.9631285 C65.3493151,14.9631285 66.3536986,15.3653631 67.0747945,16.1564246 C67.7958904,16.947486 68.1564384,18.0201117 68.1564384,19.3608939 C68.1564384,20.7418994 67.770137,21.8413408 67.010411,22.6592179 C66.2506849,23.477095 65.2076712,23.8793296 63.8942466,23.8793296 C62.6323288,23.8793296 61.6150685,23.4905028 60.8810959,22.7128492 C60.1084932,21.9486034 59.7479452,20.8893855 59.7479452,19.5486034 M61.7438356,19.4815642 C61.7438356,20.3664804 61.9369863,21.0502793 62.3232877,21.5195531 C62.709589,21.9888268 63.2632877,22.2167598 63.9843836,22.2167598 C64.679726,22.2167598 65.2205479,21.9888268 65.5810959,21.5195531 C65.9416438,21.0502793 66.1347945,20.3530726 66.1347945,19.427933 C66.1347945,18.5162011 65.9416438,17.8189944 65.5682192,17.3497207 C65.1947945,16.8804469 64.6539726,16.652514 63.9715068,16.652514 C63.2632877,16.652514 62.7224658,16.8938547 62.3232877,17.3899441 C61.9369863,17.8860335 61.7438356,18.5832402 61.7438356,19.4815642" id="Shape" fill="#FFFFFF" fill-rule="nonzero"></path>
                <path d="M71.0021918,17.403352 C71.0021918,17.6849162 71.0923288,17.9128492 71.259726,18.073743 C71.44,18.2346369 71.8263014,18.4357542 72.4186301,18.6905028 C73.1912329,19.0122905 73.7320548,19.3743017 74.0410959,19.7765363 C74.350137,20.1787709 74.5046575,20.6614525 74.5046575,21.224581 C74.5046575,22.0290503 74.2084932,22.6726257 73.6161644,23.1553073 C73.0238356,23.6379888 72.2254795,23.8793296 71.2210959,23.8793296 C70.8863014,23.8793296 70.5128767,23.8391061 70.1008219,23.7452514 C69.6887671,23.6648045 69.3410959,23.5441341 69.0578082,23.4234637 L69.0578082,21.452514 C69.4054795,21.7072626 69.7789041,21.9083799 70.1909589,22.0558659 C70.590137,22.203352 70.9635616,22.2837989 71.2854795,22.2837989 C71.7232877,22.2837989 72.0452055,22.2167598 72.2512329,22.0960894 C72.4572603,21.9620112 72.560274,21.7608939 72.560274,21.452514 C72.560274,21.1709497 72.4572603,20.9430168 72.2383562,20.7553073 C72.0194521,20.5675978 71.620274,20.3396648 71.0150685,20.098324 C70.3068493,19.7899441 69.8046575,19.4413408 69.5084932,19.052514 C69.2123288,18.6636872 69.0578082,18.1675978 69.0578082,17.5776536 C69.0578082,16.8134078 69.3539726,16.1832402 69.9334247,15.6871508 C70.5128767,15.1910615 71.2726027,14.9497207 72.2126027,14.9497207 C72.4958904,14.9497207 72.8178082,14.9765363 73.1783562,15.0435754 C73.5389041,15.1106145 73.8350685,15.1910615 74.0668493,15.298324 L74.0668493,17.2022346 C73.8093151,17.027933 73.5131507,16.8804469 73.1783562,16.7463687 C72.8435616,16.6122905 72.4958904,16.5586592 72.1610959,16.5586592 C71.8005479,16.5586592 71.5043836,16.6391061 71.3112329,16.7865922 C71.1052055,16.947486 71.0021918,17.1486034 71.0021918,17.403352" id="Shape" fill="#FFFFFF" fill-rule="nonzero"></path>
                <path d="M75.3545205,19.5486034 C75.3545205,18.1407821 75.7408219,17.027933 76.5005479,16.196648 C77.260274,15.3787709 78.3290411,14.9631285 79.6810959,14.9631285 C80.9558904,14.9631285 81.960274,15.3653631 82.6813699,16.1564246 C83.4024658,16.947486 83.7630137,18.0201117 83.7630137,19.3608939 C83.7630137,20.7418994 83.3767123,21.8413408 82.6169863,22.6592179 C81.8572603,23.477095 80.8142466,23.8793296 79.5008219,23.8793296 C78.2389041,23.8793296 77.2216438,23.4905028 76.4876712,22.7128492 C75.7279452,21.9486034 75.3545205,20.8893855 75.3545205,19.5486034 M77.3632877,19.4815642 C77.3632877,20.3664804 77.5564384,21.0502793 77.9427397,21.5195531 C78.3290411,21.9888268 78.8827397,22.2167598 79.6038356,22.2167598 C80.2991781,22.2167598 80.84,21.9888268 81.2005479,21.5195531 C81.5610959,21.0502793 81.7542466,20.3530726 81.7542466,19.427933 C81.7542466,18.5162011 81.5610959,17.8189944 81.1876712,17.3497207 C80.8142466,16.8804469 80.2734247,16.652514 79.5909589,16.652514 C78.8827397,16.652514 78.3419178,16.8938547 77.9427397,17.3899441 C77.5564384,17.8860335 77.3632877,18.5832402 77.3632877,19.4815642" id="Shape" fill="#FFFFFF" fill-rule="nonzero"></path>
                <path d="M90.1241096,16.8134078 L90.1241096,21.1843575 C90.1241096,22.0960894 90.330137,22.7664804 90.7293151,23.2223464 C91.1413699,23.6782123 91.7465753,23.8927374 92.5578082,23.8927374 C92.8282192,23.8927374 93.1115068,23.8659218 93.3947945,23.7988827 C93.6780822,23.7452514 93.8841096,23.6782123 94,23.5977654 L94,21.9351955 C93.8841096,22.0156425 93.7424658,22.0826816 93.5879452,22.1363128 C93.4334247,22.1899441 93.2917808,22.2167598 93.1887671,22.2167598 C92.8024658,22.2167598 92.5063014,22.1094972 92.3260274,21.8949721 C92.1457534,21.6804469 92.0556164,21.3050279 92.0556164,20.7821229 L92.0556164,16.8 L94,16.8 L94,15.1642458 L92.0556164,15.1642458 L92.0556164,12.6435754 L90.1241096,13.2603352 L90.1241096,15.1776536 L87.2526027,15.1776536 L87.2526027,14.1452514 C87.2526027,13.6357542 87.3556164,13.2469274 87.5745205,12.9787709 C87.7934247,12.7106145 88.1024658,12.5899441 88.5016438,12.5899441 C88.7076712,12.5899441 88.8879452,12.6167598 89.0553425,12.6703911 C89.209863,12.7240223 89.3257534,12.7776536 89.390137,12.8178771 L89.390137,11.0882682 C89.2484932,11.0346369 89.0939726,11.0078212 88.9136986,10.9810056 C88.7334247,10.9541899 88.5273973,10.9407821 88.2956164,10.9407821 C87.42,10.9407821 86.6989041,11.2223464 86.1452055,11.7988827 C85.5915068,12.375419 85.3082192,13.0994413 85.3082192,13.9977654 L85.3082192,15.1776536 L83.9432877,15.1776536 L83.9432877,16.8134078 L85.3082192,16.8134078 L85.3082192,23.6916201 L87.2526027,23.6916201 L87.2526027,16.8134078 L90.1241096,16.8134078 L90.1241096,16.8134078 Z" id="Shape" fill="#FFFFFF" fill-rule="nonzero"></path>
                <polygon id="Shape" fill="#FFFFFF" fill-rule="nonzero" points="41.9136986 11.7988827 41.9136986 23.6916201 39.9306849 23.6916201 39.9306849 14.3731844 39.9049315 14.3731844 36.3638356 23.6916201 35.050411 23.6916201 31.4191781 14.3731844 31.3934247 14.3731844 31.3934247 23.6916201 29.5649315 23.6916201 29.5649315 11.7988827 32.4106849 11.7988827 35.6813699 20.6078212 35.7328767 20.6078212 39.1967123 11.7988827"></polygon>
                <rect id="Rectangle-path" fill="#F25022" fill-rule="nonzero" x="0.0643835616" y="0.0536312849" width="10.7906849" height="11.2357542"></rect>
                <rect id="Rectangle-path" fill="#7FBA00" fill-rule="nonzero" x="11.9753425" y="0.0536312849" width="10.7906849" height="11.2357542"></rect>
                <rect id="Rectangle-path" fill="#00A4EF" fill-rule="nonzero" x="0.0643835616" y="12.4558659" width="10.7906849" height="11.2357542"></rect>
                <rect id="Rectangle-path" fill="#FFB900" fill-rule="nonzero" x="11.9753425" y="12.4558659" width="10.7906849" height="11.2357542"></rect>
                <path d="M34.583366,1.25625971 C35.0066613,1.84493848 35.2183057,2.59813412 35.2183057,3.51586922 C35.2183057,4.50907596 34.9762193,5.33472329 34.4920391,5.99283596 C33.9237797,6.76566552 33.1134424,7.15207451 32.0610028,7.15207451 C31.078146,7.15207451 30.3054988,6.81396665 29.743038,6.13774078 C29.2414621,5.48566584 28.9906779,4.66152792 28.9906779,3.66530232 C28.9906779,2.7656804 29.2052216,1.99588125 29.6343154,1.35588177 C30.1851791,0.534750361 30.9998653,0.124190815 32.0783984,0.124190815 C33.2062193,0.124190815 34.0412002,0.501543339 34.583366,1.25625971 Z M33.8201337,5.49246151 C34.1607994,4.92340537 34.3311297,4.26907609 34.3311297,3.52945405 C34.3311297,2.74756789 34.1347063,2.11814388 33.7418535,1.64116313 C33.3490007,1.16418239 32.8119166,0.925695592 32.1305852,0.925695592 C31.4695488,0.925695592 30.9302903,1.16191827 30.5127937,1.63437072 C30.095297,2.10682317 29.8865518,2.80341593 29.8865518,3.7241699 C29.8865518,4.46077307 30.0655798,5.08189533 30.4236412,5.5875553 C30.7817026,6.09321527 31.3622752,6.34604146 32.1653765,6.34604146 C32.9278878,6.34604146 33.479468,6.06151765 33.8201337,5.49246151 Z M36.0837373,0.28268046 L36.8447951,0.28268046 L36.8447951,2.69625134 C37.0158528,2.4637987 37.2202491,2.28644301 37.4579903,2.16417896 C37.6957315,2.04191491 37.9537638,1.9807838 38.2320949,1.9807838 C38.8119514,1.9807838 39.2823529,2.18832769 39.6433136,2.60342169 C40.0042743,3.0185157 40.1847519,3.63058149 40.1847519,4.43963744 C40.1847519,5.20642927 40.0064487,5.84340033 39.649837,6.35056973 C39.2932252,6.85773913 38.798905,7.11132003 38.1668614,7.11132003 C37.8131489,7.11132003 37.5145273,7.02226483 37.2709875,6.84415177 C37.1260234,6.73849148 36.9709141,6.56943755 36.805655,6.33698491 L36.805655,6.95735866 L36.0837373,6.95735866 L36.0837373,0.28268046 Z M39.0692585,5.86604425 C39.2794565,5.51585585 39.3845539,5.05397636 39.3845539,4.48039192 C39.3845539,3.97020365 39.2794565,3.54756883 39.0692585,3.21247476 C38.8590606,2.87738069 38.5495668,2.70983617 38.1407679,2.70983617 C37.7841562,2.70983617 37.4717632,2.84719249 37.2035795,3.12190925 C36.9353959,3.396626 36.8013061,3.84944903 36.8013061,4.48039192 C36.8013061,4.93624061 36.8563916,5.30604608 36.9665644,5.58981944 C37.1724134,6.12415862 37.5565626,6.39132421 38.1190234,6.39132421 C38.5423187,6.39132421 38.8590606,6.21623264 39.0692585,5.86604425 Z M41.2545819,0.75362112 L42.046082,0.75362112 L42.046082,2.10757552 L42.7897443,2.10757552 L42.7897443,2.77323203 L42.046082,2.77323203 L42.046082,5.93849665 C42.046082,6.10755312 42.1011676,6.22075888 42.2113403,6.27811732 C42.2722252,6.31132484 42.3736986,6.32792835 42.5157635,6.32792835 C42.5534541,6.32792835 42.5940435,6.32717365 42.6375327,6.32566422 C42.681022,6.32415478 42.7317586,6.32038126 42.7897443,6.31434353 L42.7897443,6.95735866 C42.6998665,6.98452845 42.6063661,7.00415078 42.5092401,7.01622624 C42.4121141,7.0283017 42.3070167,7.03433934 42.1939447,7.03433934 C41.8286351,7.03433934 41.5807502,6.93698239 41.4502824,6.74226557 C41.3198147,6.54754875 41.2545819,6.29472255 41.2545819,5.98377941 L41.2545819,2.77323203 L40.623991,2.77323203 L40.623991,2.10757552 L41.2545819,2.10757552 L41.2545819,0.75362112 Z M46.4732644,2.24115965 C46.7834876,2.40266895 47.0197756,2.61172225 47.1821354,2.86832581 C47.3386967,3.11285392 47.4430693,3.39813243 47.4952564,3.7241699 C47.5416449,3.94756594 47.5648388,4.30378673 47.5648388,4.79284293 L44.1509507,4.79284293 C44.1654471,5.28491801 44.2770678,5.67962875 44.4858161,5.976987 C44.6945645,6.27434525 45.0178296,6.42302214 45.4556213,6.42302214 C45.8644201,6.42302214 46.1905845,6.282647 46.4341243,6.00189251 C46.5732898,5.83887378 46.6718639,5.65019751 46.7298496,5.43585807 L47.4996053,5.43585807 C47.4793103,5.61397113 47.411903,5.81245856 47.2973813,6.0313263 C47.1828597,6.25019405 47.0545683,6.42905915 46.9125035,6.56792696 C46.6747623,6.8094362 46.3804896,6.97245249 46.0296764,7.05698072 C45.841223,7.10528257 45.6281289,7.12943313 45.3903878,7.12943313 C44.8105312,7.12943313 44.3191102,6.90981396 43.9161099,6.47056903 C43.5131097,6.03132411 43.3116125,5.41623949 43.3116125,4.62529674 C43.3116125,3.84642944 43.5145593,3.21398661 43.9204588,2.72794927 C44.3263584,2.24191193 44.8569192,1.9988969 45.512157,1.9988969 C45.8426752,1.9988969 46.1630411,2.07965034 46.4732644,2.24115965 Z M46.7602919,4.14529953 C46.7283998,3.79209227 46.6544692,3.50983258 46.5384979,3.29851199 C46.323951,2.90605948 45.965895,2.70983617 45.4643191,2.70983617 C45.104808,2.70983617 44.8032872,2.84492837 44.5597475,3.11511683 C44.3162077,3.38530529 44.1871916,3.72869609 44.1726952,4.14529953 L46.7602919,4.14529953 Z M48.5259462,2.10757552 L49.2696084,2.10757552 L49.2696084,2.7958734 C49.4899539,2.51210005 49.7233426,2.30832969 49.9697817,2.1845562 C50.2162207,2.06078272 50.4901988,1.9988969 50.7917242,1.9988969 C51.4527606,1.9988969 51.8992434,2.23889311 52.131186,2.71889272 C52.2587544,2.98153402 52.3225377,3.35737713 52.3225377,3.84643334 L52.3225377,6.95735866 L51.5266886,6.95735866 L51.5266886,3.90077265 C51.5266886,3.60492383 51.4846497,3.36643703 51.4005705,3.1853051 C51.2614049,2.88341856 51.0091711,2.73247755 50.6438615,2.73247755 C50.4583074,2.73247755 50.3060974,2.75209988 50.1872268,2.79134513 C49.9726799,2.85776017 49.7842293,2.99058826 49.6218695,3.18983338 C49.4914018,3.34983325 49.406599,3.51511366 49.3674587,3.68567956 C49.3283184,3.85624545 49.3087485,4.10001519 49.3087485,4.41699606 L49.3087485,6.95735866 L48.5259462,6.95735866 L48.5259462,2.10757552 Z M53.4793457,2.1302169 L54.2751947,2.1302169 L54.2751947,6.95735866 L53.4793457,6.95735866 L53.4793457,2.1302169 Z M53.4793457,0.305321838 L54.2751947,0.305321838 L54.2751947,1.22909006 L53.4793457,1.22909006 L53.4793457,0.305321838 Z M55.4798406,2.10757552 L56.2235029,2.10757552 L56.2235029,2.9453065 C56.2843878,2.78228776 56.4336986,2.58380034 56.6714398,2.34983826 C56.909181,2.11587619 57.1831591,1.9988969 57.4933823,1.9988969 C57.5078787,1.9988969 57.5325222,2.00040631 57.5673136,2.00342518 C57.602105,2.00644404 57.6615394,2.01248168 57.7456186,2.02153828 L57.7456186,2.88191064 C57.6992301,2.87285404 57.6564663,2.8668164 57.617326,2.86379754 C57.5781857,2.86077867 57.5354219,2.85926926 57.4890334,2.85926926 C57.094731,2.85926926 56.7917605,2.99134265 56.5801129,3.25549338 C56.3684652,3.51964411 56.262643,3.82379024 56.262643,4.1679409 L56.262643,6.95735866 L55.4798406,6.95735866 L55.4798406,2.10757552 Z M61.3639052,5.43585807 C61.3870994,5.70755596 61.4523323,5.91585455 61.5596058,6.0607601 C61.756757,6.32340139 62.0988672,6.45472007 62.5859467,6.45472007 C62.8758749,6.45472007 63.131008,6.38906073 63.3513534,6.25774008 C63.5716989,6.12641943 63.68187,5.92340378 63.68187,5.64868702 C63.68187,5.4403853 63.5934432,5.28189724 63.416587,5.17321808 C63.3035149,5.10680304 63.0802735,5.02982313 62.746856,4.94227603 L62.124963,4.77925811 C61.7277613,4.67661668 61.4349382,4.56190151 61.2464848,4.43510916 C60.910168,4.21473198 60.7420122,3.90983114 60.7420122,3.5203975 C60.7420122,3.06152994 60.9007455,2.69021506 61.218217,2.40644171 C61.5356884,2.12266835 61.9626014,1.9807838 62.4989686,1.9807838 C63.200595,1.9807838 63.7065122,2.19512003 64.0167355,2.62379893 C64.2109874,2.89549683 64.3052127,3.18832238 64.2994141,3.50228439 L63.5601007,3.50228439 C63.5456043,3.3181336 63.4832707,3.15058908 63.3730979,2.99964581 C63.1933424,2.78530636 62.8816742,2.67813824 62.438084,2.67813824 C62.1423572,2.67813824 61.918391,2.73700523 61.7661786,2.85474099 C61.6139663,2.97247674 61.5378613,3.12794598 61.5378613,3.32115337 C61.5378613,3.53247396 61.637885,3.70152789 61.8379355,3.82832024 C61.9539068,3.90379187 62.1249619,3.97020592 62.351106,4.02756436 L62.8686253,4.15888435 C63.4310861,4.30077103 63.8079872,4.43812735 63.9993399,4.57095743 C64.3037645,4.77925915 64.4559746,5.10680114 64.4559746,5.55359323 C64.4559746,5.98529099 64.2986909,6.35811529 63.9841187,6.6720773 C63.6695465,6.98603931 63.1904473,7.14301796 62.5468065,7.14301796 C61.853878,7.14301796 61.3631818,6.97924696 61.0747032,6.65170006 C60.7862246,6.32415315 60.6318401,5.91887654 60.6115451,5.43585807 L61.3639052,5.43585807 Z M66.1346508,2.10757552 L66.1346508,5.32717945 C66.1346508,5.57472642 66.1723409,5.77698737 66.2477222,5.93396838 C66.3868878,6.22377946 66.6463697,6.36868283 67.0261757,6.36868283 C67.5712408,6.36868283 67.9423434,6.11510194 68.1394947,5.60793254 C68.2467681,5.33623464 68.300404,4.96341035 68.300404,4.48944847 L68.300404,2.10757552 L69.0832064,2.10757552 L69.0832064,6.95735866 L68.3438931,6.95735866 L68.3525909,6.24189112 C68.251116,6.42604191 68.1249991,6.58151115 67.9742364,6.7083035 C67.6756103,6.9618882 67.3132054,7.08867865 66.8870108,7.08867865 C66.2230751,7.08867865 65.7707938,6.85773891 65.5301534,6.39585249 C65.3996857,6.14830552 65.3344528,5.81774471 65.3344528,5.40416014 L65.3344528,2.10757552 L66.1346508,2.10757552 Z M70.3269924,2.10757552 L71.0706547,2.10757552 L71.0706547,2.9453065 C71.1315396,2.78228776 71.2808504,2.58380034 71.5185916,2.34983826 C71.7563328,2.11587619 72.0303108,1.9988969 72.3405341,1.9988969 C72.3550305,1.9988969 72.379674,2.00040631 72.4144654,2.00342518 C72.4492568,2.00644404 72.5086912,2.01248168 72.5927704,2.02153828 L72.5927704,2.88191064 C72.5463819,2.87285404 72.5036181,2.8668164 72.4644778,2.86379754 C72.4253375,2.86077867 72.3825737,2.85926926 72.3361852,2.85926926 C71.9418828,2.85926926 71.6389123,2.99134265 71.4272646,3.25549338 C71.215617,3.51964411 71.1097948,3.82379024 71.1097948,4.1679409 L71.1097948,6.95735866 L70.3269924,6.95735866 L70.3269924,2.10757552 Z" id="Obtenir-sur" fill="#FFFFFF"></path>
            </g>
        </g>
    </g>
</svg>