<svg xmlns="http://www.w3.org/2000/svg" width="135" height="40" viewBox="0 0 135 40">
  <g fill="none">
    <rect width="135" height="40" fill="#000000"/>
    <g fill="#FFFFFF" transform="translate(12 6)">
      <path d="M18.1 13.8C18.1 10.6 20.7 9 20.9 8.9 19.4 6.7 17 6.4 16.2 6.4 14.2 6.2 12.3 7.6 11.3 7.6 10.3 7.6 8.7 6.4 7.1 6.5 5 6.5 3 7.8 1.9 9.7-.4 13.6 1.3 19.4 3.5 22.6 4.6 24.2 5.9 25.9 7.5 25.8 9.1 25.7 9.7 24.8 11.7 24.8 13.6 24.8 14.2 25.8 15.9 25.8 17.6 25.8 18.7 24.2 19.8 22.7 21.1 20.9 21.6 19.2 21.6 19.1 21.5 18.9 18.2 17.6 18.1 13.8zM14.9 4.3C15.8 3.2 16.4 1.7 16.2.2 14.9.3 13.4 1.1 12.4 2.1 11.6 3 10.9 4.6 11.1 6 12.6 6.2 14 5.4 14.9 4.3z"/>
    </g>
    <g fill="#FFFFFF" transform="translate(42 18)">
      <path d="M11.7 13.5L9.4 13.5 8.2 9.6 3.9 9.6 2.7 13.5.5 13.5 4.8.2 7.4.2 11.7 13.5zM7.8 8L6.7 4.5C6.6 4.1 6.4 3.3 6 2L6 2C5.9 2.6 5.7 3.4 5.4 4.5L4.3 8 7.8 8zM22.7 8.6C22.7 10.2 22.3 11.5 21.4 12.5 20.6 13.3 19.6 13.8 18.5 13.8 17.2 13.8 16.3 13.3 15.8 12.4L15.8 12.4 15.8 17.5 13.7 17.5 13.7 7.2C13.7 6.2 13.7 5.1 13.6 4L15.5 4 15.6 5.5 15.6 5.5C16.3 4.4 17.4 3.8 18.8 3.8 19.9 3.8 20.9 4.2 21.6 5.1 22.3 5.9 22.7 7.1 22.7 8.6zM20.5 8.7C20.5 7.8 20.3 7 19.9 6.4 19.4 5.8 18.8 5.5 18 5.5 17.5 5.5 17 5.7 16.6 6 16.2 6.3 15.9 6.8 15.8 7.4 15.7 7.7 15.7 7.9 15.7 8.1L15.7 9.7C15.7 10.4 15.9 11 16.3 11.5 16.7 12 17.3 12.2 18 12.2 18.8 12.2 19.4 11.9 19.9 11.3 20.4 10.7 20.5 9.7 20.5 8.7zM33.7 8.6C33.7 10.2 33.3 11.5 32.4 12.5 31.6 13.3 30.6 13.8 29.5 13.8 28.2 13.8 27.3 13.3 26.8 12.4L26.8 12.4 26.8 17.5 24.7 17.5 24.7 7.2C24.7 6.2 24.7 5.1 24.6 4L26.5 4 26.6 5.5 26.6 5.5C27.3 4.4 28.4 3.8 29.8 3.8 30.9 3.8 31.9 4.2 32.6 5.1 33.4 5.9 33.7 7.1 33.7 8.6zM31.6 8.7C31.6 7.8 31.4 7 31 6.4 30.5 5.8 29.9 5.5 29.1 5.5 28.6 5.5 28.1 5.7 27.7 6 27.3 6.3 27 6.8 26.9 7.4 26.8 7.7 26.8 7.9 26.8 8.1L26.8 9.7C26.8 10.4 27 11 27.4 11.5 27.8 12 28.4 12.2 29.1 12.2 29.9 12.2 30.5 11.9 31 11.3 31.5 10.7 31.6 9.7 31.6 8.7zM46.1 9.8C46.1 10.9 45.7 11.9 44.9 12.6 44 13.4 42.8 13.8 41.3 13.8 39.9 13.8 38.7 13.5 37.9 13L38.4 11.2C39.3 11.8 40.4 12.1 41.5 12.1 42.3 12.1 42.9 11.9 43.4 11.6 43.8 11.2 44.1 10.8 44.1 10.1 44.1 9.6 43.9 9.1 43.5 8.7 43.1 8.3 42.5 8 41.7 7.7 39.4 6.8 38.2 5.6 38.2 3.9 38.2 2.8 38.6 1.9 39.4 1.2 40.2.5 41.3.2 42.7.2 43.9.2 44.9.4 45.7.8L45.2 2.5C44.4 2.1 43.6 1.9 42.7 1.9 41.9 1.9 41.4 2.1 40.9 2.5 40.5 2.8 40.4 3.2 40.4 3.7 40.4 4.2 40.6 4.7 41 5 41.4 5.3 42 5.7 42.9 6 44 6.5 44.9 7 45.4 7.6 45.8 8.1 46.1 8.9 46.1 9.8zM53.1 5.5L50.8 5.5 50.8 10.2C50.8 11.4 51.2 12 52 12 52.4 12 52.7 12 52.9 11.9L53 13.5C52.6 13.7 52 13.7 51.3 13.7 50.5 13.7 49.8 13.4 49.3 12.9 48.8 12.4 48.6 11.5 48.6 10.3L48.6 5.5 47.2 5.5 47.2 3.9 48.6 3.9 48.6 2.1 50.7 1.5 50.7 3.9 53.1 3.9 53.1 5.5zM63.7 8.6C63.7 10.1 63.3 11.3 62.4 12.2 61.5 13.2 60.3 13.7 58.9 13.7 57.5 13.7 56.4 13.2 55.5 12.3 54.7 11.4 54.2 10.2 54.2 8.8 54.2 7.3 54.6 6.1 55.5 5.1 56.4 4.2 57.5 3.7 59 3.7 60.4 3.7 61.5 4.2 62.4 5.1 63.3 6 63.7 7.2 63.7 8.6zM61.5 8.7C61.5 7.8 61.3 7.1 60.9 6.4 60.5 5.6 59.8 5.3 59 5.3 58.1 5.3 57.5 5.7 57 6.4 56.6 7 56.4 7.8 56.4 8.7 56.4 9.6 56.6 10.3 57 11 57.5 11.8 58.1 12.1 58.9 12.1 59.7 12.1 60.4 11.7 60.8 10.9 61.3 10.3 61.5 9.6 61.5 8.7zM70.7 5.8C70.5 5.8 70.3 5.7 70 5.7 69.2 5.7 68.7 6 68.3 6.6 67.9 7.1 67.8 7.7 67.8 8.5L67.8 13.5 65.7 13.5 65.7 6.9C65.7 5.8 65.7 4.8 65.6 3.9L67.5 3.9 67.6 5.7 67.7 5.7C67.9 5.1 68.3 4.6 68.8 4.2 69.3 3.9 69.8 3.7 70.3 3.7L70.8 3.7 70.8 5.8 70.7 5.8zM80.2 8.3C80.2 8.7 80.2 9 80.1 9.3L73.7 9.3C73.7 10.2 74 11 74.6 11.5 75.1 11.9 75.8 12.2 76.7 12.2 77.6 12.2 78.5 12.1 79.3 11.7L79.6 13.2C78.7 13.6 77.6 13.8 76.4 13.8 74.9 13.8 73.7 13.4 72.9 12.5 72.1 11.6 71.6 10.4 71.6 9 71.6 7.6 72 6.3 72.8 5.4 73.6 4.4 74.7 3.9 76.2 3.9 77.6 3.9 78.6 4.4 79.3 5.4 79.9 6 80.2 7.1 80.2 8.3zM78.2 7.7C78.2 7.1 78.1 6.5 77.8 6.1 77.4 5.5 76.9 5.2 76.1 5.2 75.4 5.2 74.8 5.5 74.4 6.1 74 6.6 73.8 7.1 73.8 7.8L78.2 7.7 78.2 7.7z"/>
    </g>
    <g fill="#FFFFFF" transform="translate(43 6)">
      <polygon points="4.4 7.4 .7 7.4 .7 .9 1.7 .9 1.7 6.6 4.4 6.6"/>
      <path d="M9.4 7.4L8.5 7.4 8.4 6.9 8.4 6.9C8.1 7.3 7.6 7.5 7 7.5 6.6 7.5 6.2 7.4 5.9 7.1 5.7 6.8 5.5 6.5 5.5 6.1 5.5 5.5 5.7 5.1 6.2 4.8 6.7 4.5 7.4 4.3 8.2 4.4L8.2 4.3C8.2 3.7 7.9 3.4 7.2 3.4 6.7 3.4 6.3 3.5 6 3.7L5.8 3C6.2 2.7 6.8 2.6 7.4 2.6 8.6 2.6 9.3 3.2 9.3 4.6L9.3 6.3C9.3 6.8 9.3 7.2 9.4 7.4zM8.3 5.8L8.3 5.1C7.1 5.1 6.6 5.4 6.6 6.1 6.6 6.3 6.7 6.5 6.8 6.7 6.9 6.8 7.1 6.9 7.3 6.9 7.5 6.9 7.7 6.8 7.9 6.7 8.1 6.6 8.2 6.4 8.3 6.1L8.3 5.8zM15.3 7.4L14.4 7.4 14.4 6.6 14.4 6.6C14.1 7.2 13.6 7.5 12.9 7.5 12.3 7.5 11.9 7.3 11.5 6.8 11.1 6.4 10.9 5.8 10.9 5.1 10.9 4.3 11.1 3.7 11.5 3.2 11.9 2.8 12.4 2.5 13 2.5 13.6 2.5 14.1 2.7 14.3 3.1L14.3 3.1 14.3.4 15.3.4 15.3 6C15.3 6.6 15.3 7 15.3 7.4zM14.2 5.4L14.2 4.6 14.2 4.3C14.1 4 14 3.8 13.8 3.7 13.6 3.5 13.4 3.4 13.1 3.4 12.7 3.4 12.4 3.6 12.2 3.9 12 4.2 11.9 4.6 11.9 5.1 11.9 5.6 12 5.9 12.2 6.2 12.4 6.5 12.7 6.7 13.1 6.7 13.4 6.7 13.7 6.6 13.9 6.3 14.1 6.1 14.2 5.8 14.2 5.4zM21 4.9L21 5.4 17.9 5.4C17.9 5.9 18.1 6.2 18.4 6.5 18.7 6.7 19 6.8 19.4 6.8 19.9 6.8 20.3 6.7 20.7 6.6L20.9 7.3C20.5 7.5 19.9 7.6 19.3 7.6 18.6 7.6 18 7.4 17.6 7 17.2 6.6 17 6 17 5.3 17 4.6 17.2 4 17.6 3.5 18 3 18.6 2.7 19.2 2.7 19.9 2.7 20.4 3 20.7 3.5 20.9 3.8 21 4.3 21 4.9zM20 4.6C20 4.3 19.9 4 19.8 3.8 19.6 3.5 19.3 3.4 19 3.4 18.7 3.4 18.4 3.5 18.2 3.8 18 4 17.9 4.3 17.9 4.6 17.8 4.6 20 4.6 20 4.6zM26.6 7.4L25.6 7.4 25.6 4.7C25.6 3.9 25.3 3.5 24.6 3.5 24.3 3.5 24 3.6 23.8 3.8 23.6 4 23.5 4.3 23.5 4.6L23.5 7.4 22.5 7.4 22.5 4 22.5 2.7 23.4 2.7 23.4 3.4 23.4 3.4C23.5 3.2 23.7 3 23.9 2.8 24.2 2.6 24.5 2.5 24.9 2.5 25.3 2.5 25.7 2.6 26 2.9 26.4 3.2 26.5 3.8 26.5 4.5L26.5 7.4 26.6 7.4zM32.5 1.3C32.5 1.5 32.4 1.6 32.3 1.8 32.2 1.9 32 2 31.8 2 31.6 2 31.5 1.9 31.4 1.8 31.3 1.7 31.2 1.5 31.2 1.3 31.2 1.1 31.3 1 31.4.9 31.5.8 31.7.7 31.9.7 32.1.7 32.2.8 32.4.9 32.4 1 32.5 1.1 32.5 1.3zM32.4 7.4L31.4 7.4 31.4 2.7 32.4 2.7 32.4 7.4zM41 7.4L40 7.4 40 4.8C40 3.9 39.7 3.5 39.1 3.5 38.8 3.5 38.6 3.6 38.4 3.8 38.2 4 38.1 4.3 38.1 4.6L38.1 7.5 37.1 7.5 37.1 4.7C37.1 4.3 37 4.1 36.9 3.8 36.8 3.6 36.5 3.5 36.3 3.5 36 3.5 35.8 3.6 35.6 3.8 35.4 4 35.3 4.3 35.3 4.6L35.3 7.4 34.3 7.4 34.3 4 34.3 2.7 35.2 2.7 35.2 3.4 35.2 3.4C35.5 2.9 36 2.6 36.6 2.6 37.2 2.6 37.7 2.9 37.9 3.5L37.9 3.5C38 3.3 38.2 3.1 38.5 2.9 38.8 2.7 39.1 2.6 39.5 2.6 39.9 2.6 40.3 2.7 40.5 3 40.8 3.4 41 3.9 41 4.6L41 7.4 41 7.4z"/>
    </g>
  </g>
</svg>
